<svg width="1045" height="792" viewBox="0 0 1045 792" fill="none" xmlns="http://www.w3.org/2000/svg">
<path d="M297.476 791H92.7157V556.972H145.328M297.476 791V764.378M297.476 791H891.851V556.972M145.328 556.972V499.393M145.328 556.972H221.402M145.328 499.393H192.252M145.328 499.393H1V246.172H67.8316M297.476 764.378H549.162M297.476 764.378V711.133M192.252 499.393V354.519H227.801M192.252 499.393H521.434M521.434 499.393H574.046V556.972M521.434 499.393V354.519H266.905M1044 226.98V556.972H891.851M1044 226.98V1H67.8316V123.586M1044 226.98H1021.96M574.046 556.972V605.263V764.378H549.162M574.046 556.972V226.98H842.083M574.046 556.972H842.083M891.851 556.972H842.083M891.851 226.98V137.826H227.801V246.172M891.851 226.98H842.083M891.851 226.98H1021.96M227.801 354.519V246.172M227.801 354.519H266.905M227.801 246.172H192.252M67.8316 246.172V123.586M67.8316 246.172H92.7157M67.8316 123.586H92.7157M192.252 246.172V123.586H92.7157M192.252 246.172H170.212M92.7157 246.172V150.208H170.212V246.172M92.7157 246.172H170.212M842.083 556.972V764.378H549.162M266.905 354.519V178.688H842.083V226.98M92.7157 123.586V24.5266H1021.96V226.98M297.476 711.133V556.972H221.402M297.476 711.133H521.434V556.972H221.402M612.438 258.555H1007.74V521.063H612.438V258.555ZM111.912 764.378V581.118H266.905V764.378H111.912Z" stroke="#7B7980" stroke-opacity="0.6"/>
</svg>
