<svg width="1103" height="474" viewBox="0 0 1103 474" fill="none" xmlns="http://www.w3.org/2000/svg">
<path d="M13.1782 427.872L1078.64 427.872V182.172L1078.64 15.37H864.549L13.1782 15.37L13.1782 427.872Z" stroke="#B2085A"/>
<path d="M30.0938 412.662L1059.14 412.662V190.021L852.681 29.6281L30.0937 29.6281L30.0938 412.662Z" stroke="#B2085A"/>
<path d="M637.289 448.843V440.132H1090.61V393.369L1103 406.665V448.843H637.289Z" fill="#00848C"/>
<path d="M137.537 446.884H137.727L137.87 447.01L167.64 473.5H221.574V434.576H15.255L28.4862 446.884H137.537Z" stroke="#00848C"/>
<path d="M0 73.6911L7.44574 84.3638L7.44574 8.55815H57.3698H107.294L91.294 0.92318H41.4117H0L0 73.6911Z" fill="#00848C"/>
</svg>
