<svg width="562" height="270" viewBox="0 0 562 270" fill="none" xmlns="http://www.w3.org/2000/svg">
<g filter="url(#filter0_ddd_956_1336)">
<mask id="path-1-inside-1_956_1336" fill="white">
<path d="M137.2 39.92H122.72C122.28 39.92 121.92 40.28 121.92 40.72V47.24C121.92 47.68 122.28 48.04 122.72 48.04H137.12C139.8 48.04 141.92 50.2 141.92 52.84V59.2C141.92 61.84 139.8 64 137.12 64H118.8C118.36 64 118 63.64 118 63.2V60.88C118 60.44 118.36 60.08 118.8 60.08H137.2C137.64 60.08 138 59.72 138 59.28V52.76C138 52.32 137.64 51.96 137.2 51.96H122.8C120.16 51.96 118 49.8 118 47.16V40.8C118 38.16 120.16 36 122.8 36H137.2C137.64 36 138 36.36 138 36.8V39.12C138 39.56 137.64 39.92 137.2 39.92ZM146.808 47.2V36.8C146.808 36.36 147.168 36 147.608 36H150.008C150.448 36 150.808 36.36 150.808 36.8V47.2C150.808 47.64 151.168 48 151.608 48H166.008C166.448 48 166.808 47.64 166.808 47.2V36.8C166.808 36.36 167.168 36 167.608 36H170.008C170.448 36 170.808 36.36 170.808 36.8V59.2C170.808 61.84 168.648 64 166.008 64H151.608C151.168 64 150.808 63.64 150.808 63.2V60.8C150.808 60.36 151.168 60 151.608 60H166.008C166.448 60 166.808 59.64 166.808 59.2V52.8C166.808 52.36 166.448 52 166.008 52H151.608C148.968 52 146.808 49.84 146.808 47.2ZM194.816 39.92H180.336C179.896 39.92 179.536 40.28 179.536 40.72V47.24C179.536 47.68 179.896 48.04 180.336 48.04H194.736C197.416 48.04 199.536 50.2 199.536 52.84V59.2C199.536 61.84 197.416 64 194.736 64H176.416C175.976 64 175.616 63.64 175.616 63.2V60.88C175.616 60.44 175.976 60.08 176.416 60.08H194.816C195.256 60.08 195.616 59.72 195.616 59.28V52.76C195.616 52.32 195.256 51.96 194.816 51.96H180.416C177.776 51.96 175.616 49.8 175.616 47.16V40.8C175.616 38.16 177.776 36 180.416 36H194.816C195.256 36 195.616 36.36 195.616 36.8V39.12C195.616 39.56 195.256 39.92 194.816 39.92ZM228.343 36.8V39.2C228.343 39.64 227.983 40 227.543 40H219.183C218.743 40 218.383 40.36 218.383 40.8V63.2C218.383 63.64 218.023 64 217.583 64H215.183C214.743 64 214.383 63.64 214.383 63.2V40.8C214.383 40.36 214.023 40 213.583 40H205.223C204.783 40 204.423 39.64 204.423 39.2V36.8C204.423 36.36 204.783 36 205.223 36H227.543C227.983 36 228.343 36.36 228.343 36.8ZM257.151 36.8V39.2C257.151 39.64 256.791 40 256.351 40H238.031C237.591 40 237.231 40.36 237.231 40.8V47.2C237.231 47.64 237.591 48 238.031 48H252.431C252.871 48 253.231 48.36 253.231 48.8V51.2C253.231 51.64 252.871 52 252.431 52H238.031C237.591 52 237.231 52.36 237.231 52.8V59.2C237.231 59.64 237.591 60 238.031 60H256.351C256.791 60 257.151 60.36 257.151 60.8V63.2C257.151 63.64 256.791 64 256.351 64H234.031C233.591 64 233.231 63.64 233.231 63.2V36.8C233.231 36.36 233.591 36 234.031 36H256.351C256.791 36 257.151 36.36 257.151 36.8ZM289.959 36.8V63.2C289.959 63.64 289.599 64 289.159 64H286.759C286.319 64 285.959 63.64 285.959 63.2V42.64C285.959 42.28 285.559 42.08 285.279 42.32L277.839 49.76C277.719 49.92 277.479 50 277.279 50H274.719C274.519 50 274.319 49.92 274.159 49.76L266.719 42.32C266.479 42.08 266.039 42.28 266.039 42.64V63.2C266.039 63.64 265.679 64 265.239 64H262.839C262.399 64 262.039 63.64 262.039 63.2V36.8C262.039 36.36 262.399 36 262.839 36H265.719C265.919 36 266.119 36.08 266.279 36.24L275.719 45.68C275.879 45.84 276.119 45.84 276.279 45.68L285.759 36.24C285.879 36.08 286.079 36 286.319 36H289.159C289.599 36 289.959 36.36 289.959 36.8ZM237.93 84C237.49 84 237.13 84.36 237.13 84.8V103.2C237.13 103.64 237.49 104 237.93 104H256.25C256.69 104 257.05 104.36 257.05 104.8V107.2C257.05 107.64 256.69 108 256.25 108H237.93C235.29 108 233.13 105.84 233.13 103.2V84.8C233.13 82.16 235.29 80 237.93 80H256.25C256.69 80 257.05 80.36 257.05 80.8V83.2C257.05 83.64 256.69 84 256.25 84H237.93ZM265.938 84.8V91.2C265.938 91.64 266.298 92 266.738 92H281.138C281.578 92 281.938 91.64 281.938 91.2V84.8C281.938 84.36 281.578 84 281.138 84H266.738C266.298 84 265.938 84.36 265.938 84.8ZM261.938 107.08V84.8C261.938 82.16 264.098 80 266.738 80H281.138C283.778 80 285.938 82.16 285.938 84.8V107.08C285.938 107.6 285.498 108 285.018 108H282.858C282.338 108 281.938 107.6 281.938 107.08V96.8C281.938 96.36 281.578 96 281.138 96H266.738C266.298 96 265.938 96.36 265.938 96.8V107.08C265.938 107.6 265.538 108 265.018 108H262.858C262.338 108 261.938 107.6 261.938 107.08ZM265.938 84.8V91.2C265.938 91.64 266.298 92 266.738 92H281.138C281.578 92 281.938 91.64 281.938 91.2V84.8C281.938 84.36 281.578 84 281.138 84H266.738C266.298 84 265.938 84.36 265.938 84.8ZM261.938 107.08V84.8C261.938 82.16 264.098 80 266.738 80H281.138C283.778 80 285.938 82.16 285.938 84.8V107.08C285.938 107.6 285.498 108 285.018 108H282.858C282.338 108 281.938 107.6 281.938 107.08V96.8C281.938 96.36 281.578 96 281.138 96H266.738C266.298 96 265.938 96.36 265.938 96.8V107.08C265.938 107.6 265.538 108 265.018 108H262.858C262.338 108 261.938 107.6 261.938 107.08ZM265.938 84.8V91.2C265.938 91.64 266.298 92 266.738 92H281.138C281.578 92 281.938 91.64 281.938 91.2V84.8C281.938 84.36 281.578 84 281.138 84H266.738C266.298 84 265.938 84.36 265.938 84.8ZM261.938 107.2V84.8C261.938 82.16 264.098 80 266.738 80H281.138C283.778 80 285.938 82.16 285.938 84.8V107.2C285.938 107.64 285.578 108 285.138 108H282.738C282.298 108 281.938 107.64 281.938 107.2V96.8C281.938 96.36 281.578 96 281.138 96H266.738C266.298 96 265.938 96.36 265.938 96.8V107.2C265.938 107.64 265.578 108 265.138 108H262.738C262.298 108 261.938 107.64 261.938 107.2ZM314.665 80.8V83.2C314.665 83.64 314.305 84 313.865 84H305.505C305.065 84 304.705 84.36 304.705 84.8V107.2C304.705 107.64 304.345 108 303.905 108H301.505C301.065 108 300.705 107.64 300.705 107.2V84.8C300.705 84.36 300.345 84 299.905 84H291.545C291.105 84 290.745 83.64 290.745 83.2V80.8C290.745 80.36 291.105 80 291.545 80H313.865C314.305 80 314.665 80.36 314.665 80.8ZM304.298 135.2V128.8C304.298 128.36 303.938 128 303.498 128H289.098C288.658 128 288.298 128.36 288.298 128.8V147.2C288.298 147.64 288.658 148 289.098 148H303.498C303.938 148 304.298 147.64 304.298 147.2V140.8C304.298 140.36 303.938 140 303.498 140H295.098C294.658 140 294.298 139.64 294.298 139.2V136.8C294.298 136.36 294.658 136 295.098 136H303.498C303.938 136 304.298 135.64 304.298 135.2ZM308.298 128.8V135.2C308.298 136.24 307.978 137.2 307.378 138C307.978 138.8 308.298 139.76 308.298 140.8V147.2C308.298 149.84 306.138 152 303.498 152H285.098C284.658 152 284.298 151.64 284.298 151.2V124.8C284.298 124.36 284.658 124 285.098 124H303.498C306.138 124 308.298 126.16 308.298 128.8ZM313.106 124.8C313.106 124.36 313.466 124 313.906 124H316.306C316.746 124 317.106 124.36 317.106 124.8V147.2C317.106 147.64 317.466 148 317.906 148H328.306C328.746 148 329.106 148.36 329.106 148.8V151.2C329.106 151.64 328.746 152 328.306 152H313.906C313.466 152 313.106 151.64 313.106 151.2V124.8ZM353.906 147.2V128.8C353.906 128.36 353.546 128 353.106 128H338.706C338.266 128 337.906 128.36 337.906 128.8V147.2C337.906 147.64 338.266 148 338.706 148H353.106C353.546 148 353.906 147.64 353.906 147.2ZM353.106 124C355.746 124 357.906 126.16 357.906 128.8V147.2C357.906 149.84 355.746 152 353.106 152H338.706C336.066 152 333.906 149.84 333.906 147.2V128.8C333.906 126.16 336.066 124 338.706 124H353.106ZM367.514 128C367.074 128 366.714 128.36 366.714 128.8V147.2C366.714 147.64 367.074 148 367.514 148H385.834C386.274 148 386.634 148.36 386.634 148.8V151.2C386.634 151.64 386.274 152 385.834 152H367.514C364.874 152 362.714 149.84 362.714 147.2V128.8C362.714 126.16 364.874 124 367.514 124H385.834C386.274 124 386.634 124.36 386.634 124.8V127.2C386.634 127.64 386.274 128 385.834 128H367.514ZM414.642 136.04C415.082 136.04 415.442 136.4 415.442 136.84V151.2C415.442 151.64 415.082 152 414.642 152H412.322C411.882 152 411.522 151.64 411.522 151.2V140.76C411.522 140.32 411.162 139.96 410.722 139.96H396.242C395.802 139.96 395.442 140.32 395.442 140.76V151.2C395.442 151.64 395.082 152 394.642 152H392.322C391.882 152 391.522 151.64 391.522 151.2V124.8C391.522 124.36 391.882 124 392.322 124H394.642C395.082 124 395.442 124.36 395.442 124.8V128.68V128.72V135.24C395.442 135.68 395.802 136.04 396.242 136.04H406.802C407.242 136.04 407.602 135.68 407.602 135.24V124.8C407.602 124.36 407.922 124 408.402 124H410.722C411.162 124 411.522 124.36 411.522 124.8V135.24C411.522 135.68 411.882 136.04 412.322 136.04H414.642ZM439.53 127.92H425.05C424.61 127.92 424.25 128.28 424.25 128.72V135.24C424.25 135.68 424.61 136.04 425.05 136.04H439.45C442.13 136.04 444.25 138.2 444.25 140.84V147.2C444.25 149.84 442.13 152 439.45 152H421.13C420.69 152 420.33 151.64 420.33 151.2V148.88C420.33 148.44 420.69 148.08 421.13 148.08H439.53C439.97 148.08 440.33 147.72 440.33 147.28V140.76C440.33 140.32 439.97 139.96 439.53 139.96H425.13C422.49 139.96 420.33 137.8 420.33 135.16V128.8C420.33 126.16 422.49 124 425.13 124H439.53C439.97 124 440.33 124.36 440.33 124.8V127.12C440.33 127.56 439.97 127.92 439.53 127.92Z"/>
</mask>
<path d="M137.2 38.42H122.72V41.42H137.2V38.42ZM122.72 38.42C121.452 38.42 120.42 39.4516 120.42 40.72H123.42C123.42 41.1084 123.108 41.42 122.72 41.42V38.42ZM120.42 40.72V47.24H123.42V40.72H120.42ZM120.42 47.24C120.42 48.5084 121.452 49.54 122.72 49.54V46.54C123.108 46.54 123.42 46.8516 123.42 47.24H120.42ZM122.72 49.54H137.12V46.54H122.72V49.54ZM137.12 49.54C138.963 49.54 140.42 51.0203 140.42 52.84H143.42C143.42 49.3797 140.637 46.54 137.12 46.54V49.54ZM140.42 52.84V59.2H143.42V52.84H140.42ZM140.42 59.2C140.42 61.0197 138.963 62.5 137.12 62.5V65.5C140.637 65.5 143.42 62.6603 143.42 59.2H140.42ZM137.12 62.5H118.8V65.5H137.12V62.5ZM118.8 62.5C119.188 62.5 119.5 62.8116 119.5 63.2H116.5C116.5 64.4684 117.532 65.5 118.8 65.5V62.5ZM119.5 63.2V60.88H116.5V63.2H119.5ZM119.5 60.88C119.5 61.2684 119.188 61.58 118.8 61.58V58.58C117.532 58.58 116.5 59.6116 116.5 60.88H119.5ZM118.8 61.58H137.2V58.58H118.8V61.58ZM137.2 61.58C138.468 61.58 139.5 60.5484 139.5 59.28H136.5C136.5 58.8916 136.812 58.58 137.2 58.58V61.58ZM139.5 59.28V52.76H136.5V59.28H139.5ZM139.5 52.76C139.5 51.4916 138.468 50.46 137.2 50.46V53.46C136.812 53.46 136.5 53.1484 136.5 52.76H139.5ZM137.2 50.46H122.8V53.46H137.2V50.46ZM122.8 50.46C120.988 50.46 119.5 48.9716 119.5 47.16H116.5C116.5 50.6284 119.332 53.46 122.8 53.46V50.46ZM119.5 47.16V40.8H116.5V47.16H119.5ZM119.5 40.8C119.5 38.9884 120.988 37.5 122.8 37.5V34.5C119.332 34.5 116.5 37.3316 116.5 40.8H119.5ZM122.8 37.5H137.2V34.5H122.8V37.5ZM137.2 37.5C136.812 37.5 136.5 37.1884 136.5 36.8H139.5C139.5 35.5316 138.468 34.5 137.2 34.5V37.5ZM136.5 36.8V39.12H139.5V36.8H136.5ZM136.5 39.12C136.5 38.7316 136.812 38.42 137.2 38.42V41.42C138.468 41.42 139.5 40.3884 139.5 39.12H136.5ZM148.308 47.2V36.8H145.308V47.2H148.308ZM148.308 36.8C148.308 37.1884 147.996 37.5 147.608 37.5V34.5C146.339 34.5 145.308 35.5316 145.308 36.8H148.308ZM147.608 37.5H150.008V34.5H147.608V37.5ZM150.008 37.5C149.619 37.5 149.308 37.1884 149.308 36.8H152.308C152.308 35.5316 151.276 34.5 150.008 34.5V37.5ZM149.308 36.8V47.2H152.308V36.8H149.308ZM149.308 47.2C149.308 48.4684 150.339 49.5 151.608 49.5V46.5C151.996 46.5 152.308 46.8116 152.308 47.2H149.308ZM151.608 49.5H166.008V46.5H151.608V49.5ZM166.008 49.5C167.276 49.5 168.308 48.4684 168.308 47.2H165.308C165.308 46.8116 165.619 46.5 166.008 46.5V49.5ZM168.308 47.2V36.8H165.308V47.2H168.308ZM168.308 36.8C168.308 37.1884 167.996 37.5 167.608 37.5V34.5C166.339 34.5 165.308 35.5316 165.308 36.8H168.308ZM167.608 37.5H170.008V34.5H167.608V37.5ZM170.008 37.5C169.619 37.5 169.308 37.1884 169.308 36.8H172.308C172.308 35.5316 171.276 34.5 170.008 34.5V37.5ZM169.308 36.8V59.2H172.308V36.8H169.308ZM169.308 59.2C169.308 61.0116 167.819 62.5 166.008 62.5V65.5C169.476 65.5 172.308 62.6684 172.308 59.2H169.308ZM166.008 62.5H151.608V65.5H166.008V62.5ZM151.608 62.5C151.996 62.5 152.308 62.8116 152.308 63.2H149.308C149.308 64.4684 150.339 65.5 151.608 65.5V62.5ZM152.308 63.2V60.8H149.308V63.2H152.308ZM152.308 60.8C152.308 61.1884 151.996 61.5 151.608 61.5V58.5C150.339 58.5 149.308 59.5316 149.308 60.8H152.308ZM151.608 61.5H166.008V58.5H151.608V61.5ZM166.008 61.5C167.276 61.5 168.308 60.4684 168.308 59.2H165.308C165.308 58.8116 165.619 58.5 166.008 58.5V61.5ZM168.308 59.2V52.8H165.308V59.2H168.308ZM168.308 52.8C168.308 51.5316 167.276 50.5 166.008 50.5V53.5C165.619 53.5 165.308 53.1884 165.308 52.8H168.308ZM166.008 50.5H151.608V53.5H166.008V50.5ZM151.608 50.5C149.796 50.5 148.308 49.0116 148.308 47.2H145.308C145.308 50.6684 148.139 53.5 151.608 53.5V50.5ZM194.816 38.42H180.336V41.42H194.816V38.42ZM180.336 38.42C179.067 38.42 178.036 39.4516 178.036 40.72H181.036C181.036 41.1084 180.724 41.42 180.336 41.42V38.42ZM178.036 40.72V47.24H181.036V40.72H178.036ZM178.036 47.24C178.036 48.5084 179.067 49.54 180.336 49.54V46.54C180.724 46.54 181.036 46.8516 181.036 47.24H178.036ZM180.336 49.54H194.736V46.54H180.336V49.54ZM194.736 49.54C196.579 49.54 198.036 51.0203 198.036 52.84H201.036C201.036 49.3797 198.252 46.54 194.736 46.54V49.54ZM198.036 52.84V59.2H201.036V52.84H198.036ZM198.036 59.2C198.036 61.0197 196.579 62.5 194.736 62.5V65.5C198.252 65.5 201.036 62.6603 201.036 59.2H198.036ZM194.736 62.5H176.416V65.5H194.736V62.5ZM176.416 62.5C176.804 62.5 177.116 62.8116 177.116 63.2H174.116C174.116 64.4684 175.147 65.5 176.416 65.5V62.5ZM177.116 63.2V60.88H174.116V63.2H177.116ZM177.116 60.88C177.116 61.2684 176.804 61.58 176.416 61.58V58.58C175.147 58.58 174.116 59.6116 174.116 60.88H177.116ZM176.416 61.58H194.816V58.58H176.416V61.58ZM194.816 61.58C196.084 61.58 197.116 60.5484 197.116 59.28H194.116C194.116 58.8916 194.427 58.58 194.816 58.58V61.58ZM197.116 59.28V52.76H194.116V59.28H197.116ZM197.116 52.76C197.116 51.4916 196.084 50.46 194.816 50.46V53.46C194.427 53.46 194.116 53.1484 194.116 52.76H197.116ZM194.816 50.46H180.416V53.46H194.816V50.46ZM180.416 50.46C178.604 50.46 177.116 48.9716 177.116 47.16H174.116C174.116 50.6284 176.947 53.46 180.416 53.46V50.46ZM177.116 47.16V40.8H174.116V47.16H177.116ZM177.116 40.8C177.116 38.9884 178.604 37.5 180.416 37.5V34.5C176.947 34.5 174.116 37.3316 174.116 40.8H177.116ZM180.416 37.5H194.816V34.5H180.416V37.5ZM194.816 37.5C194.427 37.5 194.116 37.1884 194.116 36.8H197.116C197.116 35.5316 196.084 34.5 194.816 34.5V37.5ZM194.116 36.8V39.12H197.116V36.8H194.116ZM194.116 39.12C194.116 38.7316 194.427 38.42 194.816 38.42V41.42C196.084 41.42 197.116 40.3884 197.116 39.12H194.116ZM226.843 36.8V39.2H229.843V36.8H226.843ZM226.843 39.2C226.843 38.8116 227.155 38.5 227.543 38.5V41.5C228.812 41.5 229.843 40.4684 229.843 39.2H226.843ZM227.543 38.5H219.183V41.5H227.543V38.5ZM219.183 38.5C217.915 38.5 216.883 39.5316 216.883 40.8H219.883C219.883 41.1884 219.572 41.5 219.183 41.5V38.5ZM216.883 40.8V63.2H219.883V40.8H216.883ZM216.883 63.2C216.883 62.8116 217.195 62.5 217.583 62.5V65.5C218.852 65.5 219.883 64.4684 219.883 63.2H216.883ZM217.583 62.5H215.183V65.5H217.583V62.5ZM215.183 62.5C215.572 62.5 215.883 62.8116 215.883 63.2H212.883C212.883 64.4684 213.915 65.5 215.183 65.5V62.5ZM215.883 63.2V40.8H212.883V63.2H215.883ZM215.883 40.8C215.883 39.5316 214.852 38.5 213.583 38.5V41.5C213.195 41.5 212.883 41.1884 212.883 40.8H215.883ZM213.583 38.5H205.223V41.5H213.583V38.5ZM205.223 38.5C205.612 38.5 205.923 38.8116 205.923 39.2H202.923C202.923 40.4684 203.955 41.5 205.223 41.5V38.5ZM205.923 39.2V36.8H202.923V39.2H205.923ZM205.923 36.8C205.923 37.1884 205.612 37.5 205.223 37.5V34.5C203.955 34.5 202.923 35.5316 202.923 36.8H205.923ZM205.223 37.5H227.543V34.5H205.223V37.5ZM227.543 37.5C227.155 37.5 226.843 37.1884 226.843 36.8H229.843C229.843 35.5316 228.812 34.5 227.543 34.5V37.5ZM255.651 36.8V39.2H258.651V36.8H255.651ZM255.651 39.2C255.651 38.8116 255.963 38.5 256.351 38.5V41.5C257.62 41.5 258.651 40.4684 258.651 39.2H255.651ZM256.351 38.5H238.031V41.5H256.351V38.5ZM238.031 38.5C236.763 38.5 235.731 39.5316 235.731 40.8H238.731C238.731 41.1884 238.42 41.5 238.031 41.5V38.5ZM235.731 40.8V47.2H238.731V40.8H235.731ZM235.731 47.2C235.731 48.4684 236.763 49.5 238.031 49.5V46.5C238.42 46.5 238.731 46.8116 238.731 47.2H235.731ZM238.031 49.5H252.431V46.5H238.031V49.5ZM252.431 49.5C252.043 49.5 251.731 49.1884 251.731 48.8H254.731C254.731 47.5316 253.7 46.5 252.431 46.5V49.5ZM251.731 48.8V51.2H254.731V48.8H251.731ZM251.731 51.2C251.731 50.8116 252.043 50.5 252.431 50.5V53.5C253.7 53.5 254.731 52.4684 254.731 51.2H251.731ZM252.431 50.5H238.031V53.5H252.431V50.5ZM238.031 50.5C236.763 50.5 235.731 51.5316 235.731 52.8H238.731C238.731 53.1884 238.42 53.5 238.031 53.5V50.5ZM235.731 52.8V59.2H238.731V52.8H235.731ZM235.731 59.2C235.731 60.4684 236.763 61.5 238.031 61.5V58.5C238.42 58.5 238.731 58.8116 238.731 59.2H235.731ZM238.031 61.5H256.351V58.5H238.031V61.5ZM256.351 61.5C255.963 61.5 255.651 61.1884 255.651 60.8H258.651C258.651 59.5316 257.62 58.5 256.351 58.5V61.5ZM255.651 60.8V63.2H258.651V60.8H255.651ZM255.651 63.2C255.651 62.8116 255.963 62.5 256.351 62.5V65.5C257.62 65.5 258.651 64.4684 258.651 63.2H255.651ZM256.351 62.5H234.031V65.5H256.351V62.5ZM234.031 62.5C234.42 62.5 234.731 62.8116 234.731 63.2H231.731C231.731 64.4684 232.763 65.5 234.031 65.5V62.5ZM234.731 63.2V36.8H231.731V63.2H234.731ZM234.731 36.8C234.731 37.1884 234.42 37.5 234.031 37.5V34.5C232.763 34.5 231.731 35.5316 231.731 36.8H234.731ZM234.031 37.5H256.351V34.5H234.031V37.5ZM256.351 37.5C255.963 37.5 255.651 37.1884 255.651 36.8H258.651C258.651 35.5316 257.62 34.5 256.351 34.5V37.5ZM285.279 42.32L284.303 41.1811L284.259 41.2186L284.218 41.2593L285.279 42.32ZM277.839 49.76L276.778 48.6993L276.703 48.7747L276.639 48.86L277.839 49.76ZM274.159 49.76L273.098 50.8207V50.8207L274.159 49.76ZM266.719 42.32L267.78 41.2593V41.2593L266.719 42.32ZM266.279 36.24L265.218 37.3007V37.3007L266.279 36.24ZM275.719 45.68L276.78 44.6193L275.719 45.68ZM276.279 45.68L275.221 44.6171L275.218 44.6193L276.279 45.68ZM285.759 36.24L286.817 37.3029L286.894 37.2266L286.959 37.14L285.759 36.24ZM288.459 36.8V63.2H291.459V36.8H288.459ZM288.459 63.2C288.459 62.8116 288.771 62.5 289.159 62.5V65.5C290.427 65.5 291.459 64.4684 291.459 63.2H288.459ZM289.159 62.5H286.759V65.5H289.159V62.5ZM286.759 62.5C287.147 62.5 287.459 62.8116 287.459 63.2H284.459C284.459 64.4684 285.491 65.5 286.759 65.5V62.5ZM287.459 63.2V42.64H284.459V63.2H287.459ZM287.459 42.64C287.459 41.0832 285.62 40.0524 284.303 41.1811L286.255 43.4589C285.928 43.7396 285.456 43.7908 285.073 43.6065C284.704 43.4287 284.459 43.0525 284.459 42.64H287.459ZM284.218 41.2593L276.778 48.6993L278.9 50.8207L286.34 43.3807L284.218 41.2593ZM276.639 48.86C276.79 48.6593 276.957 48.5771 277.032 48.5473C277.113 48.5149 277.192 48.5 277.279 48.5V51.5C277.75 51.5 278.534 51.3339 279.039 50.66L276.639 48.86ZM277.279 48.5H274.719V51.5H277.279V48.5ZM274.719 48.5C274.929 48.5 275.107 48.587 275.22 48.6993L273.098 50.8207C273.531 51.253 274.109 51.5 274.719 51.5V48.5ZM275.22 48.6993L267.78 41.2593L265.658 43.3807L273.098 50.8207L275.22 48.6993ZM267.78 41.2593C267.13 40.6093 266.252 40.6186 265.657 40.8945C265.061 41.1715 264.539 41.7999 264.539 42.64H267.539C267.539 43.1201 267.237 43.4685 266.921 43.6155C266.607 43.7614 266.068 43.7907 265.658 43.3807L267.78 41.2593ZM264.539 42.64V63.2H267.539V42.64H264.539ZM264.539 63.2C264.539 62.8116 264.851 62.5 265.239 62.5V65.5C266.507 65.5 267.539 64.4684 267.539 63.2H264.539ZM265.239 62.5H262.839V65.5H265.239V62.5ZM262.839 62.5C263.227 62.5 263.539 62.8116 263.539 63.2H260.539C260.539 64.4684 261.571 65.5 262.839 65.5V62.5ZM263.539 63.2V36.8H260.539V63.2H263.539ZM263.539 36.8C263.539 37.1884 263.227 37.5 262.839 37.5V34.5C261.571 34.5 260.539 35.5316 260.539 36.8H263.539ZM262.839 37.5H265.719V34.5H262.839V37.5ZM265.719 37.5C265.509 37.5 265.331 37.413 265.218 37.3007L267.34 35.1793C266.907 34.747 266.329 34.5 265.719 34.5V37.5ZM265.218 37.3007L274.658 46.7407L276.78 44.6193L267.34 35.1793L265.218 37.3007ZM274.658 46.7407C275.404 47.4864 276.594 47.4864 277.34 46.7407L275.218 44.6193C275.411 44.427 275.689 44.3 275.999 44.3C276.309 44.3 276.587 44.427 276.78 44.6193L274.658 46.7407ZM277.337 46.7429L286.817 37.3029L284.701 35.1771L275.221 44.6171L277.337 46.7429ZM286.959 37.14C286.714 37.4665 286.396 37.5 286.319 37.5V34.5C285.762 34.5 285.044 34.6935 284.559 35.34L286.959 37.14ZM286.319 37.5H289.159V34.5H286.319V37.5ZM289.159 37.5C288.771 37.5 288.459 37.1884 288.459 36.8H291.459C291.459 35.5316 290.427 34.5 289.159 34.5V37.5ZM237.93 82.5C236.661 82.5 235.63 83.5316 235.63 84.8H238.63C238.63 85.1884 238.318 85.5 237.93 85.5V82.5ZM235.63 84.8V103.2H238.63V84.8H235.63ZM235.63 103.2C235.63 104.468 236.661 105.5 237.93 105.5V102.5C238.318 102.5 238.63 102.812 238.63 103.2H235.63ZM237.93 105.5H256.25V102.5H237.93V105.5ZM256.25 105.5C255.861 105.5 255.55 105.188 255.55 104.8H258.55C258.55 103.532 257.518 102.5 256.25 102.5V105.5ZM255.55 104.8V107.2H258.55V104.8H255.55ZM255.55 107.2C255.55 106.812 255.861 106.5 256.25 106.5V109.5C257.518 109.5 258.55 108.468 258.55 107.2H255.55ZM256.25 106.5H237.93V109.5H256.25V106.5ZM237.93 106.5C236.118 106.5 234.63 105.012 234.63 103.2H231.63C231.63 106.668 234.461 109.5 237.93 109.5V106.5ZM234.63 103.2V84.8H231.63V103.2H234.63ZM234.63 84.8C234.63 82.9884 236.118 81.5 237.93 81.5V78.5C234.461 78.5 231.63 81.3316 231.63 84.8H234.63ZM237.93 81.5H256.25V78.5H237.93V81.5ZM256.25 81.5C255.861 81.5 255.55 81.1884 255.55 80.8H258.55C258.55 79.5316 257.518 78.5 256.25 78.5V81.5ZM255.55 80.8V83.2H258.55V80.8H255.55ZM255.55 83.2C255.55 82.8116 255.861 82.5 256.25 82.5V85.5C257.518 85.5 258.55 84.4684 258.55 83.2H255.55ZM256.25 82.5H237.93V85.5H256.25V82.5ZM264.438 84.8V91.2H267.438V84.8H264.438ZM264.438 91.2C264.438 92.4684 265.469 93.5 266.738 93.5V90.5C267.126 90.5 267.438 90.8116 267.438 91.2H264.438ZM266.738 93.5H281.137V90.5H266.738V93.5ZM281.137 93.5C282.406 93.5 283.438 92.4684 283.438 91.2H280.438C280.438 90.8116 280.749 90.5 281.137 90.5V93.5ZM283.438 91.2V84.8H280.438V91.2H283.438ZM283.438 84.8C283.438 83.5316 282.406 82.5 281.137 82.5V85.5C280.749 85.5 280.438 85.1884 280.438 84.8H283.438ZM281.137 82.5H266.738V85.5H281.137V82.5ZM266.738 82.5C265.469 82.5 264.438 83.5316 264.438 84.8H267.438C267.438 85.1884 267.126 85.5 266.738 85.5V82.5ZM263.438 107.08V84.8H260.438V107.08H263.438ZM263.438 84.8C263.438 82.9884 264.926 81.5 266.738 81.5V78.5C263.269 78.5 260.438 81.3316 260.438 84.8H263.438ZM266.738 81.5H281.137V78.5H266.738V81.5ZM281.137 81.5C282.949 81.5 284.438 82.9884 284.438 84.8H287.438C287.438 81.3316 284.606 78.5 281.137 78.5V81.5ZM284.438 84.8V107.08H287.438V84.8H284.438ZM284.438 107.08C284.438 106.903 284.515 106.753 284.613 106.659C284.704 106.57 284.842 106.5 285.018 106.5V109.5C286.283 109.5 287.438 108.47 287.438 107.08H284.438ZM285.018 106.5H282.857V109.5H285.018V106.5ZM282.857 106.5C282.992 106.5 283.145 106.556 283.263 106.674C283.382 106.793 283.438 106.945 283.438 107.08H280.438C280.438 108.428 281.509 109.5 282.857 109.5V106.5ZM283.438 107.08V96.8H280.438V107.08H283.438ZM283.438 96.8C283.438 95.5316 282.406 94.5 281.137 94.5V97.5C280.749 97.5 280.438 97.1884 280.438 96.8H283.438ZM281.137 94.5H266.738V97.5H281.137V94.5ZM266.738 94.5C265.469 94.5 264.438 95.5316 264.438 96.8H267.438C267.438 97.1884 267.126 97.5 266.738 97.5V94.5ZM264.438 96.8V107.08H267.438V96.8H264.438ZM264.438 107.08C264.438 106.945 264.493 106.793 264.612 106.674C264.73 106.556 264.883 106.5 265.018 106.5V109.5C266.366 109.5 267.438 108.428 267.438 107.08H264.438ZM265.018 106.5H262.857V109.5H265.018V106.5ZM262.857 106.5C262.992 106.5 263.145 106.556 263.263 106.674C263.382 106.793 263.438 106.945 263.438 107.08H260.438C260.438 108.428 261.509 109.5 262.857 109.5V106.5ZM264.438 84.8V91.2H267.438V84.8H264.438ZM264.438 91.2C264.438 92.4684 265.469 93.5 266.738 93.5V90.5C267.126 90.5 267.438 90.8116 267.438 91.2H264.438ZM266.738 93.5H281.137V90.5H266.738V93.5ZM281.137 93.5C282.406 93.5 283.438 92.4684 283.438 91.2H280.438C280.438 90.8116 280.749 90.5 281.137 90.5V93.5ZM283.438 91.2V84.8H280.438V91.2H283.438ZM283.438 84.8C283.438 83.5316 282.406 82.5 281.137 82.5V85.5C280.749 85.5 280.438 85.1884 280.438 84.8H283.438ZM281.137 82.5H266.738V85.5H281.137V82.5ZM266.738 82.5C265.469 82.5 264.438 83.5316 264.438 84.8H267.438C267.438 85.1884 267.126 85.5 266.738 85.5V82.5ZM263.438 107.08V84.8H260.438V107.08H263.438ZM263.438 84.8C263.438 82.9884 264.926 81.5 266.738 81.5V78.5C263.269 78.5 260.438 81.3316 260.438 84.8H263.438ZM266.738 81.5H281.137V78.5H266.738V81.5ZM281.137 81.5C282.949 81.5 284.438 82.9884 284.438 84.8H287.438C287.438 81.3316 284.606 78.5 281.137 78.5V81.5ZM284.438 84.8V107.08H287.438V84.8H284.438ZM284.438 107.08C284.438 106.903 284.515 106.753 284.613 106.659C284.704 106.57 284.842 106.5 285.018 106.5V109.5C286.283 109.5 287.438 108.47 287.438 107.08H284.438ZM285.018 106.5H282.857V109.5H285.018V106.5ZM282.857 106.5C282.992 106.5 283.145 106.556 283.263 106.674C283.382 106.793 283.438 106.945 283.438 107.08H280.438C280.438 108.428 281.509 109.5 282.857 109.5V106.5ZM283.438 107.08V96.8H280.438V107.08H283.438ZM283.438 96.8C283.438 95.5316 282.406 94.5 281.137 94.5V97.5C280.749 97.5 280.438 97.1884 280.438 96.8H283.438ZM281.137 94.5H266.738V97.5H281.137V94.5ZM266.738 94.5C265.469 94.5 264.438 95.5316 264.438 96.8H267.438C267.438 97.1884 267.126 97.5 266.738 97.5V94.5ZM264.438 96.8V107.08H267.438V96.8H264.438ZM264.438 107.08C264.438 106.945 264.493 106.793 264.612 106.674C264.73 106.556 264.883 106.5 265.018 106.5V109.5C266.366 109.5 267.438 108.428 267.438 107.08H264.438ZM265.018 106.5H262.857V109.5H265.018V106.5ZM262.857 106.5C262.992 106.5 263.145 106.556 263.263 106.674C263.382 106.793 263.438 106.945 263.438 107.08H260.438C260.438 108.428 261.509 109.5 262.857 109.5V106.5ZM264.438 84.8V91.2H267.438V84.8H264.438ZM264.438 91.2C264.438 92.4684 265.469 93.5 266.738 93.5V90.5C267.126 90.5 267.438 90.8116 267.438 91.2H264.438ZM266.738 93.5H281.137V90.5H266.738V93.5ZM281.137 93.5C282.406 93.5 283.438 92.4684 283.438 91.2H280.438C280.438 90.8116 280.749 90.5 281.137 90.5V93.5ZM283.438 91.2V84.8H280.438V91.2H283.438ZM283.438 84.8C283.438 83.5316 282.406 82.5 281.137 82.5V85.5C280.749 85.5 280.438 85.1884 280.438 84.8H283.438ZM281.137 82.5H266.738V85.5H281.137V82.5ZM266.738 82.5C265.469 82.5 264.438 83.5316 264.438 84.8H267.438C267.438 85.1884 267.126 85.5 266.738 85.5V82.5ZM263.438 107.2V84.8H260.438V107.2H263.438ZM263.438 84.8C263.438 82.9884 264.926 81.5 266.738 81.5V78.5C263.269 78.5 260.438 81.3316 260.438 84.8H263.438ZM266.738 81.5H281.137V78.5H266.738V81.5ZM281.137 81.5C282.949 81.5 284.438 82.9884 284.438 84.8H287.438C287.438 81.3316 284.606 78.5 281.137 78.5V81.5ZM284.438 84.8V107.2H287.438V84.8H284.438ZM284.438 107.2C284.438 106.812 284.749 106.5 285.137 106.5V109.5C286.406 109.5 287.438 108.468 287.438 107.2H284.438ZM285.137 106.5H282.738V109.5H285.137V106.5ZM282.738 106.5C283.126 106.5 283.438 106.812 283.438 107.2H280.438C280.438 108.468 281.469 109.5 282.738 109.5V106.5ZM283.438 107.2V96.8H280.438V107.2H283.438ZM283.438 96.8C283.438 95.5316 282.406 94.5 281.137 94.5V97.5C280.749 97.5 280.438 97.1884 280.438 96.8H283.438ZM281.137 94.5H266.738V97.5H281.137V94.5ZM266.738 94.5C265.469 94.5 264.438 95.5316 264.438 96.8H267.438C267.438 97.1884 267.126 97.5 266.738 97.5V94.5ZM264.438 96.8V107.2H267.438V96.8H264.438ZM264.438 107.2C264.438 106.812 264.749 106.5 265.137 106.5V109.5C266.406 109.5 267.438 108.468 267.438 107.2H264.438ZM265.137 106.5H262.738V109.5H265.137V106.5ZM262.738 106.5C263.126 106.5 263.438 106.812 263.438 107.2H260.438C260.438 108.468 261.469 109.5 262.738 109.5V106.5ZM313.165 80.8V83.2H316.165V80.8H313.165ZM313.165 83.2C313.165 82.8116 313.477 82.5 313.865 82.5V85.5C315.134 85.5 316.165 84.4684 316.165 83.2H313.165ZM313.865 82.5H305.505V85.5H313.865V82.5ZM305.505 82.5C304.237 82.5 303.205 83.5316 303.205 84.8H306.205C306.205 85.1884 305.894 85.5 305.505 85.5V82.5ZM303.205 84.8V107.2H306.205V84.8H303.205ZM303.205 107.2C303.205 106.812 303.517 106.5 303.905 106.5V109.5C305.174 109.5 306.205 108.468 306.205 107.2H303.205ZM303.905 106.5H301.505V109.5H303.905V106.5ZM301.505 106.5C301.894 106.5 302.205 106.812 302.205 107.2H299.205C299.205 108.468 300.237 109.5 301.505 109.5V106.5ZM302.205 107.2V84.8H299.205V107.2H302.205ZM302.205 84.8C302.205 83.5316 301.174 82.5 299.905 82.5V85.5C299.517 85.5 299.205 85.1884 299.205 84.8H302.205ZM299.905 82.5H291.545V85.5H299.905V82.5ZM291.545 82.5C291.934 82.5 292.245 82.8116 292.245 83.2H289.245C289.245 84.4684 290.277 85.5 291.545 85.5V82.5ZM292.245 83.2V80.8H289.245V83.2H292.245ZM292.245 80.8C292.245 81.1884 291.934 81.5 291.545 81.5V78.5C290.277 78.5 289.245 79.5316 289.245 80.8H292.245ZM291.545 81.5H313.865V78.5H291.545V81.5ZM313.865 81.5C313.477 81.5 313.165 81.1884 313.165 80.8H316.165C316.165 79.5316 315.134 78.5 313.865 78.5V81.5ZM307.378 138L306.178 137.1L305.503 138L306.178 138.9L307.378 138ZM305.798 135.2V128.8H302.798V135.2H305.798ZM305.798 128.8C305.798 127.532 304.767 126.5 303.498 126.5V129.5C303.11 129.5 302.798 129.188 302.798 128.8H305.798ZM303.498 126.5H289.098V129.5H303.498V126.5ZM289.098 126.5C287.83 126.5 286.798 127.532 286.798 128.8H289.798C289.798 129.188 289.487 129.5 289.098 129.5V126.5ZM286.798 128.8V147.2H289.798V128.8H286.798ZM286.798 147.2C286.798 148.468 287.83 149.5 289.098 149.5V146.5C289.487 146.5 289.798 146.812 289.798 147.2H286.798ZM289.098 149.5H303.498V146.5H289.098V149.5ZM303.498 149.5C304.767 149.5 305.798 148.468 305.798 147.2H302.798C302.798 146.812 303.11 146.5 303.498 146.5V149.5ZM305.798 147.2V140.8H302.798V147.2H305.798ZM305.798 140.8C305.798 139.532 304.767 138.5 303.498 138.5V141.5C303.11 141.5 302.798 141.188 302.798 140.8H305.798ZM303.498 138.5H295.098V141.5H303.498V138.5ZM295.098 138.5C295.487 138.5 295.798 138.812 295.798 139.2H292.798C292.798 140.468 293.83 141.5 295.098 141.5V138.5ZM295.798 139.2V136.8H292.798V139.2H295.798ZM295.798 136.8C295.798 137.188 295.487 137.5 295.098 137.5V134.5C293.83 134.5 292.798 135.532 292.798 136.8H295.798ZM295.098 137.5H303.498V134.5H295.098V137.5ZM303.498 137.5C304.767 137.5 305.798 136.468 305.798 135.2H302.798C302.798 134.812 303.11 134.5 303.498 134.5V137.5ZM306.798 128.8V135.2H309.798V128.8H306.798ZM306.798 135.2C306.798 135.922 306.58 136.565 306.178 137.1L308.578 138.9C309.377 137.835 309.798 136.558 309.798 135.2H306.798ZM306.178 138.9C306.58 139.435 306.798 140.078 306.798 140.8H309.798C309.798 139.442 309.377 138.165 308.578 137.1L306.178 138.9ZM306.798 140.8V147.2H309.798V140.8H306.798ZM306.798 147.2C306.798 149.012 305.31 150.5 303.498 150.5V153.5C306.967 153.5 309.798 150.668 309.798 147.2H306.798ZM303.498 150.5H285.098V153.5H303.498V150.5ZM285.098 150.5C285.487 150.5 285.798 150.812 285.798 151.2H282.798C282.798 152.468 283.83 153.5 285.098 153.5V150.5ZM285.798 151.2V124.8H282.798V151.2H285.798ZM285.798 124.8C285.798 125.188 285.487 125.5 285.098 125.5V122.5C283.83 122.5 282.798 123.532 282.798 124.8H285.798ZM285.098 125.5H303.498V122.5H285.098V125.5ZM303.498 125.5C305.31 125.5 306.798 126.988 306.798 128.8H309.798C309.798 125.332 306.967 122.5 303.498 122.5V125.5ZM314.606 124.8C314.606 125.188 314.295 125.5 313.906 125.5V122.5C312.638 122.5 311.606 123.532 311.606 124.8H314.606ZM313.906 125.5H316.306V122.5H313.906V125.5ZM316.306 125.5C315.918 125.5 315.606 125.188 315.606 124.8H318.606C318.606 123.532 317.575 122.5 316.306 122.5V125.5ZM315.606 124.8V147.2H318.606V124.8H315.606ZM315.606 147.2C315.606 148.468 316.638 149.5 317.906 149.5V146.5C318.295 146.5 318.606 146.812 318.606 147.2H315.606ZM317.906 149.5H328.306V146.5H317.906V149.5ZM328.306 149.5C327.918 149.5 327.606 149.188 327.606 148.8H330.606C330.606 147.532 329.575 146.5 328.306 146.5V149.5ZM327.606 148.8V151.2H330.606V148.8H327.606ZM327.606 151.2C327.606 150.812 327.918 150.5 328.306 150.5V153.5C329.575 153.5 330.606 152.468 330.606 151.2H327.606ZM328.306 150.5H313.906V153.5H328.306V150.5ZM313.906 150.5C314.295 150.5 314.606 150.812 314.606 151.2H311.606C311.606 152.468 312.638 153.5 313.906 153.5V150.5ZM314.606 151.2V124.8H311.606V151.2H314.606ZM355.406 147.2V128.8H352.406V147.2H355.406ZM355.406 128.8C355.406 127.532 354.375 126.5 353.106 126.5V129.5C352.718 129.5 352.406 129.188 352.406 128.8H355.406ZM353.106 126.5H338.706V129.5H353.106V126.5ZM338.706 126.5C337.438 126.5 336.406 127.532 336.406 128.8H339.406C339.406 129.188 339.095 129.5 338.706 129.5V126.5ZM336.406 128.8V147.2H339.406V128.8H336.406ZM336.406 147.2C336.406 148.468 337.438 149.5 338.706 149.5V146.5C339.095 146.5 339.406 146.812 339.406 147.2H336.406ZM338.706 149.5H353.106V146.5H338.706V149.5ZM353.106 149.5C354.375 149.5 355.406 148.468 355.406 147.2H352.406C352.406 146.812 352.718 146.5 353.106 146.5V149.5ZM353.106 125.5C354.918 125.5 356.406 126.988 356.406 128.8H359.406C359.406 125.332 356.575 122.5 353.106 122.5V125.5ZM356.406 128.8V147.2H359.406V128.8H356.406ZM356.406 147.2C356.406 149.012 354.918 150.5 353.106 150.5V153.5C356.575 153.5 359.406 150.668 359.406 147.2H356.406ZM353.106 150.5H338.706V153.5H353.106V150.5ZM338.706 150.5C336.895 150.5 335.406 149.012 335.406 147.2H332.406C332.406 150.668 335.238 153.5 338.706 153.5V150.5ZM335.406 147.2V128.8H332.406V147.2H335.406ZM335.406 128.8C335.406 126.988 336.895 125.5 338.706 125.5V122.5C335.238 122.5 332.406 125.332 332.406 128.8H335.406ZM338.706 125.5H353.106V122.5H338.706V125.5ZM367.514 126.5C366.246 126.5 365.214 127.532 365.214 128.8H368.214C368.214 129.188 367.902 129.5 367.514 129.5V126.5ZM365.214 128.8V147.2H368.214V128.8H365.214ZM365.214 147.2C365.214 148.468 366.246 149.5 367.514 149.5V146.5C367.902 146.5 368.214 146.812 368.214 147.2H365.214ZM367.514 149.5H385.834V146.5H367.514V149.5ZM385.834 149.5C385.446 149.5 385.134 149.188 385.134 148.8H388.134C388.134 147.532 387.102 146.5 385.834 146.5V149.5ZM385.134 148.8V151.2H388.134V148.8H385.134ZM385.134 151.2C385.134 150.812 385.446 150.5 385.834 150.5V153.5C387.102 153.5 388.134 152.468 388.134 151.2H385.134ZM385.834 150.5H367.514V153.5H385.834V150.5ZM367.514 150.5C365.702 150.5 364.214 149.012 364.214 147.2H361.214C361.214 150.668 364.046 153.5 367.514 153.5V150.5ZM364.214 147.2V128.8H361.214V147.2H364.214ZM364.214 128.8C364.214 126.988 365.702 125.5 367.514 125.5V122.5C364.046 122.5 361.214 125.332 361.214 128.8H364.214ZM367.514 125.5H385.834V122.5H367.514V125.5ZM385.834 125.5C385.446 125.5 385.134 125.188 385.134 124.8H388.134C388.134 123.532 387.103 122.5 385.834 122.5V125.5ZM385.134 124.8V127.2H388.134V124.8H385.134ZM385.134 127.2C385.134 126.812 385.446 126.5 385.834 126.5V129.5C387.102 129.5 388.134 128.468 388.134 127.2H385.134ZM385.834 126.5H367.514V129.5H385.834V126.5ZM414.642 137.54C414.253 137.54 413.942 137.228 413.942 136.84H416.942C416.942 135.572 415.91 134.54 414.642 134.54V137.54ZM413.942 136.84V151.2H416.942V136.84H413.942ZM413.942 151.2C413.942 150.812 414.253 150.5 414.642 150.5V153.5C415.91 153.5 416.942 152.468 416.942 151.2H413.942ZM414.642 150.5H412.322V153.5H414.642V150.5ZM412.322 150.5C412.71 150.5 413.022 150.812 413.022 151.2H410.022C410.022 152.468 411.053 153.5 412.322 153.5V150.5ZM413.022 151.2V140.76H410.022V151.2H413.022ZM413.022 140.76C413.022 139.492 411.99 138.46 410.722 138.46V141.46C410.333 141.46 410.022 141.148 410.022 140.76H413.022ZM410.722 138.46H396.242V141.46H410.722V138.46ZM396.242 138.46C394.973 138.46 393.942 139.492 393.942 140.76H396.942C396.942 141.148 396.63 141.46 396.242 141.46V138.46ZM393.942 140.76V151.2H396.942V140.76H393.942ZM393.942 151.2C393.942 150.812 394.253 150.5 394.642 150.5V153.5C395.91 153.5 396.942 152.468 396.942 151.2H393.942ZM394.642 150.5H392.322V153.5H394.642V150.5ZM392.322 150.5C392.71 150.5 393.022 150.812 393.022 151.2H390.022C390.022 152.468 391.053 153.5 392.322 153.5V150.5ZM393.022 151.2V124.8H390.022V151.2H393.022ZM393.022 124.8C393.022 125.188 392.71 125.5 392.322 125.5V122.5C391.053 122.5 390.022 123.532 390.022 124.8H393.022ZM392.322 125.5H394.642V122.5H392.322V125.5ZM394.642 125.5C394.253 125.5 393.942 125.188 393.942 124.8H396.942C396.942 123.532 395.91 122.5 394.642 122.5V125.5ZM393.942 124.8V128.68H396.942V124.8H393.942ZM393.942 128.68V128.72H396.942V128.68H393.942ZM393.942 128.72V135.24H396.942V128.72H393.942ZM393.942 135.24C393.942 136.508 394.973 137.54 396.242 137.54V134.54C396.63 134.54 396.942 134.852 396.942 135.24H393.942ZM396.242 137.54H406.802V134.54H396.242V137.54ZM406.802 137.54C408.07 137.54 409.102 136.508 409.102 135.24H406.102C406.102 134.852 406.413 134.54 406.802 134.54V137.54ZM409.102 135.24V124.8H406.102V135.24H409.102ZM409.102 124.8C409.102 124.946 409.046 125.127 408.901 125.277C408.748 125.435 408.554 125.5 408.402 125.5V122.5C407.044 122.5 406.102 123.582 406.102 124.8H409.102ZM408.402 125.5H410.722V122.5H408.402V125.5ZM410.722 125.5C410.333 125.5 410.022 125.188 410.022 124.8H413.022C413.022 123.532 411.99 122.5 410.722 122.5V125.5ZM410.022 124.8V135.24H413.022V124.8H410.022ZM410.022 135.24C410.022 136.508 411.053 137.54 412.322 137.54V134.54C412.71 134.54 413.022 134.852 413.022 135.24H410.022ZM412.322 137.54H414.642V134.54H412.322V137.54ZM439.53 126.42H425.05V129.42H439.53V126.42ZM425.05 126.42C423.781 126.42 422.75 127.452 422.75 128.72H425.75C425.75 129.108 425.438 129.42 425.05 129.42V126.42ZM422.75 128.72V135.24H425.75V128.72H422.75ZM422.75 135.24C422.75 136.508 423.781 137.54 425.05 137.54V134.54C425.438 134.54 425.75 134.852 425.75 135.24H422.75ZM425.05 137.54H439.45V134.54H425.05V137.54ZM439.45 137.54C441.293 137.54 442.75 139.02 442.75 140.84H445.75C445.75 137.38 442.966 134.54 439.45 134.54V137.54ZM442.75 140.84V147.2H445.75V140.84H442.75ZM442.75 147.2C442.75 149.02 441.293 150.5 439.45 150.5V153.5C442.966 153.5 445.75 150.66 445.75 147.2H442.75ZM439.45 150.5H421.13V153.5H439.45V150.5ZM421.13 150.5C421.518 150.5 421.83 150.812 421.83 151.2H418.83C418.83 152.468 419.861 153.5 421.13 153.5V150.5ZM421.83 151.2V148.88H418.83V151.2H421.83ZM421.83 148.88C421.83 149.268 421.518 149.58 421.13 149.58V146.58C419.861 146.58 418.83 147.612 418.83 148.88H421.83ZM421.13 149.58H439.53V146.58H421.13V149.58ZM439.53 149.58C440.798 149.58 441.83 148.548 441.83 147.28H438.83C438.83 146.892 439.141 146.58 439.53 146.58V149.58ZM441.83 147.28V140.76H438.83V147.28H441.83ZM441.83 140.76C441.83 139.492 440.798 138.46 439.53 138.46V141.46C439.141 141.46 438.83 141.148 438.83 140.76H441.83ZM439.53 138.46H425.13V141.46H439.53V138.46ZM425.13 138.46C423.318 138.46 421.83 136.972 421.83 135.16H418.83C418.83 138.628 421.661 141.46 425.13 141.46V138.46ZM421.83 135.16V128.8H418.83V135.16H421.83ZM421.83 128.8C421.83 126.988 423.318 125.5 425.13 125.5V122.5C421.661 122.5 418.83 125.332 418.83 128.8H421.83ZM425.13 125.5H439.53V122.5H425.13V125.5ZM439.53 125.5C439.141 125.5 438.83 125.188 438.83 124.8H441.83C441.83 123.532 440.798 122.5 439.53 122.5V125.5ZM438.83 124.8V127.12H441.83V124.8H438.83ZM438.83 127.12C438.83 126.732 439.141 126.42 439.53 126.42V129.42C440.798 129.42 441.83 128.388 441.83 127.12H438.83Z" fill="white" style="mix-blend-mode:hard-light" mask="url(#path-1-inside-1_956_1336)"/>
</g>
<g filter="url(#filter1_dddddd_956_1336)">
<path d="M105 42.5V21H130.5" stroke="#B2085A" stroke-width="3"/>
</g>
<g filter="url(#filter2_dddddd_956_1336)">
<path d="M470 139V164H449" stroke="#B2085A" stroke-width="3"/>
</g>
<defs>
<filter id="filter0_ddd_956_1336" x="0.426849" y="-81.5732" width="561.396" height="351.146" filterUnits="userSpaceOnUse" color-interpolation-filters="sRGB">
<feFlood flood-opacity="0" result="BackgroundImageFix"/>
<feColorMatrix in="SourceAlpha" type="matrix" values="0 0 0 0 0 0 0 0 0 0 0 0 0 0 0 0 0 0 127 0" result="hardAlpha"/>
<feOffset/>
<feGaussianBlur stdDeviation="17.1461"/>
<feColorMatrix type="matrix" values="0 0 0 0 0.482353 0 0 0 0 0.317647 0 0 0 0 0.941176 0 0 0 1 0"/>
<feBlend mode="normal" in2="BackgroundImageFix" result="effect1_dropShadow_956_1336"/>
<feColorMatrix in="SourceAlpha" type="matrix" values="0 0 0 0 0 0 0 0 0 0 0 0 0 0 0 0 0 0 127 0" result="hardAlpha"/>
<feOffset/>
<feGaussianBlur stdDeviation="34.2922"/>
<feColorMatrix type="matrix" values="0 0 0 0 0.698039 0 0 0 0 0.0313726 0 0 0 0 0.352941 0 0 0 1 0"/>
<feBlend mode="normal" in2="effect1_dropShadow_956_1336" result="effect2_dropShadow_956_1336"/>
<feColorMatrix in="SourceAlpha" type="matrix" values="0 0 0 0 0 0 0 0 0 0 0 0 0 0 0 0 0 0 127 0" result="hardAlpha"/>
<feOffset/>
<feGaussianBlur stdDeviation="58.7866"/>
<feColorMatrix type="matrix" values="0 0 0 0 0.698039 0 0 0 0 0.0313726 0 0 0 0 0.352941 0 0 0 1 0"/>
<feBlend mode="normal" in2="effect2_dropShadow_956_1336" result="effect3_dropShadow_956_1336"/>
<feBlend mode="normal" in="SourceGraphic" in2="effect3_dropShadow_956_1336" result="shape"/>
</filter>
<filter id="filter1_dddddd_956_1336" x="21.7613" y="-62.2387" width="190.477" height="186.477" filterUnits="userSpaceOnUse" color-interpolation-filters="sRGB">
<feFlood flood-opacity="0" result="BackgroundImageFix"/>
<feColorMatrix in="SourceAlpha" type="matrix" values="0 0 0 0 0 0 0 0 0 0 0 0 0 0 0 0 0 0 127 0" result="hardAlpha"/>
<feOffset/>
<feGaussianBlur stdDeviation="0.97308"/>
<feColorMatrix type="matrix" values="0 0 0 0 0.784314 0 0 0 0 0.372549 0 0 0 0 0.592157 0 0 0 1 0"/>
<feBlend mode="normal" in2="BackgroundImageFix" result="effect1_dropShadow_956_1336"/>
<feColorMatrix in="SourceAlpha" type="matrix" values="0 0 0 0 0 0 0 0 0 0 0 0 0 0 0 0 0 0 127 0" result="hardAlpha"/>
<feOffset/>
<feGaussianBlur stdDeviation="1.94616"/>
<feColorMatrix type="matrix" values="0 0 0 0 0.784314 0 0 0 0 0.372549 0 0 0 0 0.592157 0 0 0 1 0"/>
<feBlend mode="normal" in2="effect1_dropShadow_956_1336" result="effect2_dropShadow_956_1336"/>
<feColorMatrix in="SourceAlpha" type="matrix" values="0 0 0 0 0 0 0 0 0 0 0 0 0 0 0 0 0 0 127 0" result="hardAlpha"/>
<feOffset/>
<feGaussianBlur stdDeviation="6.81156"/>
<feColorMatrix type="matrix" values="0 0 0 0 0.784314 0 0 0 0 0.372549 0 0 0 0 0.592157 0 0 0 1 0"/>
<feBlend mode="normal" in2="effect2_dropShadow_956_1336" result="effect3_dropShadow_956_1336"/>
<feColorMatrix in="SourceAlpha" type="matrix" values="0 0 0 0 0 0 0 0 0 0 0 0 0 0 0 0 0 0 127 0" result="hardAlpha"/>
<feOffset/>
<feGaussianBlur stdDeviation="13.6231"/>
<feColorMatrix type="matrix" values="0 0 0 0 0.784314 0 0 0 0 0.372549 0 0 0 0 0.592157 0 0 0 1 0"/>
<feBlend mode="normal" in2="effect3_dropShadow_956_1336" result="effect4_dropShadow_956_1336"/>
<feColorMatrix in="SourceAlpha" type="matrix" values="0 0 0 0 0 0 0 0 0 0 0 0 0 0 0 0 0 0 127 0" result="hardAlpha"/>
<feOffset/>
<feGaussianBlur stdDeviation="23.3539"/>
<feColorMatrix type="matrix" values="0 0 0 0 0.784314 0 0 0 0 0.372549 0 0 0 0 0.592157 0 0 0 1 0"/>
<feBlend mode="normal" in2="effect4_dropShadow_956_1336" result="effect5_dropShadow_956_1336"/>
<feColorMatrix in="SourceAlpha" type="matrix" values="0 0 0 0 0 0 0 0 0 0 0 0 0 0 0 0 0 0 127 0" result="hardAlpha"/>
<feOffset/>
<feGaussianBlur stdDeviation="40.8693"/>
<feColorMatrix type="matrix" values="0 0 0 0 0.784314 0 0 0 0 0.372549 0 0 0 0 0.592157 0 0 0 1 0"/>
<feBlend mode="normal" in2="effect5_dropShadow_956_1336" result="effect6_dropShadow_956_1336"/>
<feBlend mode="normal" in="SourceGraphic" in2="effect6_dropShadow_956_1336" result="shape"/>
</filter>
<filter id="filter2_dddddd_956_1336" x="367.261" y="57.2613" width="185.977" height="189.977" filterUnits="userSpaceOnUse" color-interpolation-filters="sRGB">
<feFlood flood-opacity="0" result="BackgroundImageFix"/>
<feColorMatrix in="SourceAlpha" type="matrix" values="0 0 0 0 0 0 0 0 0 0 0 0 0 0 0 0 0 0 127 0" result="hardAlpha"/>
<feOffset/>
<feGaussianBlur stdDeviation="0.97308"/>
<feColorMatrix type="matrix" values="0 0 0 0 0.784314 0 0 0 0 0.372549 0 0 0 0 0.592157 0 0 0 1 0"/>
<feBlend mode="normal" in2="BackgroundImageFix" result="effect1_dropShadow_956_1336"/>
<feColorMatrix in="SourceAlpha" type="matrix" values="0 0 0 0 0 0 0 0 0 0 0 0 0 0 0 0 0 0 127 0" result="hardAlpha"/>
<feOffset/>
<feGaussianBlur stdDeviation="1.94616"/>
<feColorMatrix type="matrix" values="0 0 0 0 0.784314 0 0 0 0 0.372549 0 0 0 0 0.592157 0 0 0 1 0"/>
<feBlend mode="normal" in2="effect1_dropShadow_956_1336" result="effect2_dropShadow_956_1336"/>
<feColorMatrix in="SourceAlpha" type="matrix" values="0 0 0 0 0 0 0 0 0 0 0 0 0 0 0 0 0 0 127 0" result="hardAlpha"/>
<feOffset/>
<feGaussianBlur stdDeviation="6.81156"/>
<feColorMatrix type="matrix" values="0 0 0 0 0.784314 0 0 0 0 0.372549 0 0 0 0 0.592157 0 0 0 1 0"/>
<feBlend mode="normal" in2="effect2_dropShadow_956_1336" result="effect3_dropShadow_956_1336"/>
<feColorMatrix in="SourceAlpha" type="matrix" values="0 0 0 0 0 0 0 0 0 0 0 0 0 0 0 0 0 0 127 0" result="hardAlpha"/>
<feOffset/>
<feGaussianBlur stdDeviation="13.6231"/>
<feColorMatrix type="matrix" values="0 0 0 0 0.784314 0 0 0 0 0.372549 0 0 0 0 0.592157 0 0 0 1 0"/>
<feBlend mode="normal" in2="effect3_dropShadow_956_1336" result="effect4_dropShadow_956_1336"/>
<feColorMatrix in="SourceAlpha" type="matrix" values="0 0 0 0 0 0 0 0 0 0 0 0 0 0 0 0 0 0 127 0" result="hardAlpha"/>
<feOffset/>
<feGaussianBlur stdDeviation="23.3539"/>
<feColorMatrix type="matrix" values="0 0 0 0 0.784314 0 0 0 0 0.372549 0 0 0 0 0.592157 0 0 0 1 0"/>
<feBlend mode="normal" in2="effect4_dropShadow_956_1336" result="effect5_dropShadow_956_1336"/>
<feColorMatrix in="SourceAlpha" type="matrix" values="0 0 0 0 0 0 0 0 0 0 0 0 0 0 0 0 0 0 127 0" result="hardAlpha"/>
<feOffset/>
<feGaussianBlur stdDeviation="40.8693"/>
<feColorMatrix type="matrix" values="0 0 0 0 0.784314 0 0 0 0 0.372549 0 0 0 0 0.592157 0 0 0 1 0"/>
<feBlend mode="normal" in2="effect5_dropShadow_956_1336" result="effect6_dropShadow_956_1336"/>
<feBlend mode="normal" in="SourceGraphic" in2="effect6_dropShadow_956_1336" result="shape"/>
</filter>
</defs>
</svg>
