<svg width="423" height="201" viewBox="0 0 423 201" fill="none" xmlns="http://www.w3.org/2000/svg">
<g filter="url(#filter0_dd_1093_15)">
<mask id="path-1-inside-1_1093_15" fill="white">
<path d="M61.2 47.92H46.72C46.28 47.92 45.92 48.28 45.92 48.72V55.24C45.92 55.68 46.28 56.04 46.72 56.04H61.12C63.8 56.04 65.92 58.2 65.92 60.84V67.2C65.92 69.84 63.8 72 61.12 72H42.8C42.36 72 42 71.64 42 71.2V68.88C42 68.44 42.36 68.08 42.8 68.08H61.2C61.64 68.08 62 67.72 62 67.28V60.76C62 60.32 61.64 59.96 61.2 59.96H46.8C44.16 59.96 42 57.8 42 55.16V48.8C42 46.16 44.16 44 46.8 44H61.2C61.64 44 62 44.36 62 44.8V47.12C62 47.56 61.64 47.92 61.2 47.92ZM70.8078 55.2V44.8C70.8078 44.36 71.1678 44 71.6078 44H74.0078C74.4478 44 74.8078 44.36 74.8078 44.8V55.2C74.8078 55.64 75.1678 56 75.6078 56H90.0078C90.4478 56 90.8078 55.64 90.8078 55.2V44.8C90.8078 44.36 91.1678 44 91.6078 44H94.0078C94.4478 44 94.8078 44.36 94.8078 44.8V67.2C94.8078 69.84 92.6478 72 90.0078 72H75.6078C75.1678 72 74.8078 71.64 74.8078 71.2V68.8C74.8078 68.36 75.1678 68 75.6078 68H90.0078C90.4478 68 90.8078 67.64 90.8078 67.2V60.8C90.8078 60.36 90.4478 60 90.0078 60H75.6078C72.9678 60 70.8078 57.84 70.8078 55.2ZM118.816 47.92H104.336C103.896 47.92 103.536 48.28 103.536 48.72V55.24C103.536 55.68 103.896 56.04 104.336 56.04H118.736C121.416 56.04 123.536 58.2 123.536 60.84V67.2C123.536 69.84 121.416 72 118.736 72H100.416C99.9756 72 99.6156 71.64 99.6156 71.2V68.88C99.6156 68.44 99.9756 68.08 100.416 68.08H118.816C119.256 68.08 119.616 67.72 119.616 67.28V60.76C119.616 60.32 119.256 59.96 118.816 59.96H104.416C101.776 59.96 99.6156 57.8 99.6156 55.16V48.8C99.6156 46.16 101.776 44 104.416 44H118.816C119.256 44 119.616 44.36 119.616 44.8V47.12C119.616 47.56 119.256 47.92 118.816 47.92ZM152.343 44.8V47.2C152.343 47.64 151.983 48 151.543 48H143.183C142.743 48 142.383 48.36 142.383 48.8V71.2C142.383 71.64 142.023 72 141.583 72H139.183C138.743 72 138.383 71.64 138.383 71.2V48.8C138.383 48.36 138.023 48 137.583 48H129.223C128.783 48 128.423 47.64 128.423 47.2V44.8C128.423 44.36 128.783 44 129.223 44H151.543C151.983 44 152.343 44.36 152.343 44.8ZM181.151 44.8V47.2C181.151 47.64 180.791 48 180.351 48H162.031C161.591 48 161.231 48.36 161.231 48.8V55.2C161.231 55.64 161.591 56 162.031 56H176.431C176.871 56 177.231 56.36 177.231 56.8V59.2C177.231 59.64 176.871 60 176.431 60H162.031C161.591 60 161.231 60.36 161.231 60.8V67.2C161.231 67.64 161.591 68 162.031 68H180.351C180.791 68 181.151 68.36 181.151 68.8V71.2C181.151 71.64 180.791 72 180.351 72H158.031C157.591 72 157.231 71.64 157.231 71.2V44.8C157.231 44.36 157.591 44 158.031 44H180.351C180.791 44 181.151 44.36 181.151 44.8ZM213.959 44.8V71.2C213.959 71.64 213.599 72 213.159 72H210.759C210.319 72 209.959 71.64 209.959 71.2V50.64C209.959 50.28 209.559 50.08 209.279 50.32L201.839 57.76C201.719 57.92 201.479 58 201.279 58H198.719C198.519 58 198.319 57.92 198.159 57.76L190.719 50.32C190.479 50.08 190.039 50.28 190.039 50.64V71.2C190.039 71.64 189.679 72 189.239 72H186.839C186.399 72 186.039 71.64 186.039 71.2V44.8C186.039 44.36 186.399 44 186.839 44H189.719C189.919 44 190.119 44.08 190.279 44.24L199.719 53.68C199.879 53.84 200.119 53.84 200.279 53.68L209.759 44.24C209.879 44.08 210.079 44 210.319 44H213.159C213.599 44 213.959 44.36 213.959 44.8ZM161.93 92C161.49 92 161.13 92.36 161.13 92.8V111.2C161.13 111.64 161.49 112 161.93 112H180.25C180.69 112 181.05 112.36 181.05 112.8V115.2C181.05 115.64 180.69 116 180.25 116H161.93C159.29 116 157.13 113.84 157.13 111.2V92.8C157.13 90.16 159.29 88 161.93 88H180.25C180.69 88 181.05 88.36 181.05 88.8V91.2C181.05 91.64 180.69 92 180.25 92H161.93ZM189.938 92.8V99.2C189.938 99.64 190.298 100 190.738 100H205.138C205.578 100 205.938 99.64 205.938 99.2V92.8C205.938 92.36 205.578 92 205.138 92H190.738C190.298 92 189.938 92.36 189.938 92.8ZM185.938 115.08V92.8C185.938 90.16 188.098 88 190.738 88H205.138C207.778 88 209.938 90.16 209.938 92.8V115.08C209.938 115.6 209.498 116 209.018 116H206.858C206.338 116 205.938 115.6 205.938 115.08V104.8C205.938 104.36 205.578 104 205.138 104H190.738C190.298 104 189.938 104.36 189.938 104.8V115.08C189.938 115.6 189.538 116 189.018 116H186.858C186.338 116 185.938 115.6 185.938 115.08ZM189.938 92.8V99.2C189.938 99.64 190.298 100 190.738 100H205.138C205.578 100 205.938 99.64 205.938 99.2V92.8C205.938 92.36 205.578 92 205.138 92H190.738C190.298 92 189.938 92.36 189.938 92.8ZM185.938 115.08V92.8C185.938 90.16 188.098 88 190.738 88H205.138C207.778 88 209.938 90.16 209.938 92.8V115.08C209.938 115.6 209.498 116 209.018 116H206.858C206.338 116 205.938 115.6 205.938 115.08V104.8C205.938 104.36 205.578 104 205.138 104H190.738C190.298 104 189.938 104.36 189.938 104.8V115.08C189.938 115.6 189.538 116 189.018 116H186.858C186.338 116 185.938 115.6 185.938 115.08ZM189.938 92.8V99.2C189.938 99.64 190.298 100 190.738 100H205.138C205.578 100 205.938 99.64 205.938 99.2V92.8C205.938 92.36 205.578 92 205.138 92H190.738C190.298 92 189.938 92.36 189.938 92.8ZM185.938 115.2V92.8C185.938 90.16 188.098 88 190.738 88H205.138C207.778 88 209.938 90.16 209.938 92.8V115.2C209.938 115.64 209.578 116 209.138 116H206.738C206.298 116 205.938 115.64 205.938 115.2V104.8C205.938 104.36 205.578 104 205.138 104H190.738C190.298 104 189.938 104.36 189.938 104.8V115.2C189.938 115.64 189.578 116 189.138 116H186.738C186.298 116 185.938 115.64 185.938 115.2ZM238.665 88.8V91.2C238.665 91.64 238.305 92 237.865 92H229.505C229.065 92 228.705 92.36 228.705 92.8V115.2C228.705 115.64 228.345 116 227.905 116H225.505C225.065 116 224.705 115.64 224.705 115.2V92.8C224.705 92.36 224.345 92 223.905 92H215.545C215.105 92 214.745 91.64 214.745 91.2V88.8C214.745 88.36 215.105 88 215.545 88H237.865C238.305 88 238.665 88.36 238.665 88.8ZM228.298 143.2V136.8C228.298 136.36 227.938 136 227.498 136H213.098C212.658 136 212.298 136.36 212.298 136.8V155.2C212.298 155.64 212.658 156 213.098 156H227.498C227.938 156 228.298 155.64 228.298 155.2V148.8C228.298 148.36 227.938 148 227.498 148H219.098C218.658 148 218.298 147.64 218.298 147.2V144.8C218.298 144.36 218.658 144 219.098 144H227.498C227.938 144 228.298 143.64 228.298 143.2ZM232.298 136.8V143.2C232.298 144.24 231.978 145.2 231.378 146C231.978 146.8 232.298 147.76 232.298 148.8V155.2C232.298 157.84 230.138 160 227.498 160H209.098C208.658 160 208.298 159.64 208.298 159.2V132.8C208.298 132.36 208.658 132 209.098 132H227.498C230.138 132 232.298 134.16 232.298 136.8ZM237.106 132.8C237.106 132.36 237.466 132 237.906 132H240.306C240.746 132 241.106 132.36 241.106 132.8V155.2C241.106 155.64 241.466 156 241.906 156H252.306C252.746 156 253.106 156.36 253.106 156.8V159.2C253.106 159.64 252.746 160 252.306 160H237.906C237.466 160 237.106 159.64 237.106 159.2V132.8ZM277.906 155.2V136.8C277.906 136.36 277.546 136 277.106 136H262.706C262.266 136 261.906 136.36 261.906 136.8V155.2C261.906 155.64 262.266 156 262.706 156H277.106C277.546 156 277.906 155.64 277.906 155.2ZM277.106 132C279.746 132 281.906 134.16 281.906 136.8V155.2C281.906 157.84 279.746 160 277.106 160H262.706C260.066 160 257.906 157.84 257.906 155.2V136.8C257.906 134.16 260.066 132 262.706 132H277.106ZM291.514 136C291.074 136 290.714 136.36 290.714 136.8V155.2C290.714 155.64 291.074 156 291.514 156H309.834C310.274 156 310.634 156.36 310.634 156.8V159.2C310.634 159.64 310.274 160 309.834 160H291.514C288.874 160 286.714 157.84 286.714 155.2V136.8C286.714 134.16 288.874 132 291.514 132H309.834C310.274 132 310.634 132.36 310.634 132.8V135.2C310.634 135.64 310.274 136 309.834 136H291.514ZM338.642 144.04C339.082 144.04 339.442 144.4 339.442 144.84V159.2C339.442 159.64 339.082 160 338.642 160H336.322C335.882 160 335.522 159.64 335.522 159.2V148.76C335.522 148.32 335.162 147.96 334.722 147.96H320.242C319.802 147.96 319.442 148.32 319.442 148.76V159.2C319.442 159.64 319.082 160 318.642 160H316.322C315.882 160 315.522 159.64 315.522 159.2V132.8C315.522 132.36 315.882 132 316.322 132H318.642C319.082 132 319.442 132.36 319.442 132.8V136.68V136.72V143.24C319.442 143.68 319.802 144.04 320.242 144.04H330.802C331.242 144.04 331.602 143.68 331.602 143.24V132.8C331.602 132.36 331.922 132 332.402 132H334.722C335.162 132 335.522 132.36 335.522 132.8V143.24C335.522 143.68 335.882 144.04 336.322 144.04H338.642ZM363.53 135.92H349.05C348.61 135.92 348.25 136.28 348.25 136.72V143.24C348.25 143.68 348.61 144.04 349.05 144.04H363.45C366.13 144.04 368.25 146.2 368.25 148.84V155.2C368.25 157.84 366.13 160 363.45 160H345.13C344.69 160 344.33 159.64 344.33 159.2V156.88C344.33 156.44 344.69 156.08 345.13 156.08H363.53C363.97 156.08 364.33 155.72 364.33 155.28V148.76C364.33 148.32 363.97 147.96 363.53 147.96H349.13C346.49 147.96 344.33 145.8 344.33 143.16V136.8C344.33 134.16 346.49 132 349.13 132H363.53C363.97 132 364.33 132.36 364.33 132.8V135.12C364.33 135.56 363.97 135.92 363.53 135.92Z"/>
</mask>
<path d="M61.2 46.42H46.72V49.42H61.2V46.42ZM46.72 46.42C45.4516 46.42 44.42 47.4516 44.42 48.72H47.42C47.42 49.1084 47.1084 49.42 46.72 49.42V46.42ZM44.42 48.72V55.24H47.42V48.72H44.42ZM44.42 55.24C44.42 56.5084 45.4516 57.54 46.72 57.54V54.54C47.1084 54.54 47.42 54.8516 47.42 55.24H44.42ZM46.72 57.54H61.12V54.54H46.72V57.54ZM61.12 57.54C62.9634 57.54 64.42 59.0203 64.42 60.84H67.42C67.42 57.3797 64.6366 54.54 61.12 54.54V57.54ZM64.42 60.84V67.2H67.42V60.84H64.42ZM64.42 67.2C64.42 69.0197 62.9634 70.5 61.12 70.5V73.5C64.6366 73.5 67.42 70.6603 67.42 67.2H64.42ZM61.12 70.5H42.8V73.5H61.12V70.5ZM42.8 70.5C43.1884 70.5 43.5 70.8116 43.5 71.2H40.5C40.5 72.4684 41.5316 73.5 42.8 73.5V70.5ZM43.5 71.2V68.88H40.5V71.2H43.5ZM43.5 68.88C43.5 69.2684 43.1884 69.58 42.8 69.58V66.58C41.5316 66.58 40.5 67.6116 40.5 68.88H43.5ZM42.8 69.58H61.2V66.58H42.8V69.58ZM61.2 69.58C62.4684 69.58 63.5 68.5484 63.5 67.28H60.5C60.5 66.8916 60.8116 66.58 61.2 66.58V69.58ZM63.5 67.28V60.76H60.5V67.28H63.5ZM63.5 60.76C63.5 59.4916 62.4684 58.46 61.2 58.46V61.46C60.8116 61.46 60.5 61.1484 60.5 60.76H63.5ZM61.2 58.46H46.8V61.46H61.2V58.46ZM46.8 58.46C44.9884 58.46 43.5 56.9716 43.5 55.16H40.5C40.5 58.6284 43.3316 61.46 46.8 61.46V58.46ZM43.5 55.16V48.8H40.5V55.16H43.5ZM43.5 48.8C43.5 46.9884 44.9884 45.5 46.8 45.5V42.5C43.3316 42.5 40.5 45.3316 40.5 48.8H43.5ZM46.8 45.5H61.2V42.5H46.8V45.5ZM61.2 45.5C60.8116 45.5 60.5 45.1884 60.5 44.8H63.5C63.5 43.5316 62.4684 42.5 61.2 42.5V45.5ZM60.5 44.8V47.12H63.5V44.8H60.5ZM60.5 47.12C60.5 46.7316 60.8116 46.42 61.2 46.42V49.42C62.4684 49.42 63.5 48.3884 63.5 47.12H60.5ZM72.3078 55.2V44.8H69.3078V55.2H72.3078ZM72.3078 44.8C72.3078 45.1884 71.9962 45.5 71.6078 45.5V42.5C70.3394 42.5 69.3078 43.5316 69.3078 44.8H72.3078ZM71.6078 45.5H74.0078V42.5H71.6078V45.5ZM74.0078 45.5C73.6194 45.5 73.3078 45.1884 73.3078 44.8H76.3078C76.3078 43.5316 75.2762 42.5 74.0078 42.5V45.5ZM73.3078 44.8V55.2H76.3078V44.8H73.3078ZM73.3078 55.2C73.3078 56.4684 74.3394 57.5 75.6078 57.5V54.5C75.9962 54.5 76.3078 54.8116 76.3078 55.2H73.3078ZM75.6078 57.5H90.0078V54.5H75.6078V57.5ZM90.0078 57.5C91.2762 57.5 92.3078 56.4684 92.3078 55.2H89.3078C89.3078 54.8116 89.6194 54.5 90.0078 54.5V57.5ZM92.3078 55.2V44.8H89.3078V55.2H92.3078ZM92.3078 44.8C92.3078 45.1884 91.9962 45.5 91.6078 45.5V42.5C90.3394 42.5 89.3078 43.5316 89.3078 44.8H92.3078ZM91.6078 45.5H94.0078V42.5H91.6078V45.5ZM94.0078 45.5C93.6194 45.5 93.3078 45.1884 93.3078 44.8H96.3078C96.3078 43.5316 95.2762 42.5 94.0078 42.5V45.5ZM93.3078 44.8V67.2H96.3078V44.8H93.3078ZM93.3078 67.2C93.3078 69.0116 91.8194 70.5 90.0078 70.5V73.5C93.4762 73.5 96.3078 70.6684 96.3078 67.2H93.3078ZM90.0078 70.5H75.6078V73.5H90.0078V70.5ZM75.6078 70.5C75.9962 70.5 76.3078 70.8116 76.3078 71.2H73.3078C73.3078 72.4684 74.3394 73.5 75.6078 73.5V70.5ZM76.3078 71.2V68.8H73.3078V71.2H76.3078ZM76.3078 68.8C76.3078 69.1884 75.9962 69.5 75.6078 69.5V66.5C74.3394 66.5 73.3078 67.5316 73.3078 68.8H76.3078ZM75.6078 69.5H90.0078V66.5H75.6078V69.5ZM90.0078 69.5C91.2762 69.5 92.3078 68.4684 92.3078 67.2H89.3078C89.3078 66.8116 89.6194 66.5 90.0078 66.5V69.5ZM92.3078 67.2V60.8H89.3078V67.2H92.3078ZM92.3078 60.8C92.3078 59.5316 91.2762 58.5 90.0078 58.5V61.5C89.6194 61.5 89.3078 61.1884 89.3078 60.8H92.3078ZM90.0078 58.5H75.6078V61.5H90.0078V58.5ZM75.6078 58.5C73.7962 58.5 72.3078 57.0116 72.3078 55.2H69.3078C69.3078 58.6684 72.1394 61.5 75.6078 61.5V58.5ZM118.816 46.42H104.336V49.42H118.816V46.42ZM104.336 46.42C103.067 46.42 102.036 47.4516 102.036 48.72H105.036C105.036 49.1084 104.724 49.42 104.336 49.42V46.42ZM102.036 48.72V55.24H105.036V48.72H102.036ZM102.036 55.24C102.036 56.5084 103.067 57.54 104.336 57.54V54.54C104.724 54.54 105.036 54.8516 105.036 55.24H102.036ZM104.336 57.54H118.736V54.54H104.336V57.54ZM118.736 57.54C120.579 57.54 122.036 59.0203 122.036 60.84H125.036C125.036 57.3797 122.252 54.54 118.736 54.54V57.54ZM122.036 60.84V67.2H125.036V60.84H122.036ZM122.036 67.2C122.036 69.0197 120.579 70.5 118.736 70.5V73.5C122.252 73.5 125.036 70.6603 125.036 67.2H122.036ZM118.736 70.5H100.416V73.5H118.736V70.5ZM100.416 70.5C100.804 70.5 101.116 70.8116 101.116 71.2H98.1156C98.1156 72.4684 99.1472 73.5 100.416 73.5V70.5ZM101.116 71.2V68.88H98.1156V71.2H101.116ZM101.116 68.88C101.116 69.2684 100.804 69.58 100.416 69.58V66.58C99.1472 66.58 98.1156 67.6116 98.1156 68.88H101.116ZM100.416 69.58H118.816V66.58H100.416V69.58ZM118.816 69.58C120.084 69.58 121.116 68.5484 121.116 67.28H118.116C118.116 66.8916 118.427 66.58 118.816 66.58V69.58ZM121.116 67.28V60.76H118.116V67.28H121.116ZM121.116 60.76C121.116 59.4916 120.084 58.46 118.816 58.46V61.46C118.427 61.46 118.116 61.1484 118.116 60.76H121.116ZM118.816 58.46H104.416V61.46H118.816V58.46ZM104.416 58.46C102.604 58.46 101.116 56.9716 101.116 55.16H98.1156C98.1156 58.6284 100.947 61.46 104.416 61.46V58.46ZM101.116 55.16V48.8H98.1156V55.16H101.116ZM101.116 48.8C101.116 46.9884 102.604 45.5 104.416 45.5V42.5C100.947 42.5 98.1156 45.3316 98.1156 48.8H101.116ZM104.416 45.5H118.816V42.5H104.416V45.5ZM118.816 45.5C118.427 45.5 118.116 45.1884 118.116 44.8H121.116C121.116 43.5316 120.084 42.5 118.816 42.5V45.5ZM118.116 44.8V47.12H121.116V44.8H118.116ZM118.116 47.12C118.116 46.7316 118.427 46.42 118.816 46.42V49.42C120.084 49.42 121.116 48.3884 121.116 47.12H118.116ZM150.843 44.8V47.2H153.843V44.8H150.843ZM150.843 47.2C150.843 46.8116 151.155 46.5 151.543 46.5V49.5C152.812 49.5 153.843 48.4684 153.843 47.2H150.843ZM151.543 46.5H143.183V49.5H151.543V46.5ZM143.183 46.5C141.915 46.5 140.883 47.5316 140.883 48.8H143.883C143.883 49.1884 143.572 49.5 143.183 49.5V46.5ZM140.883 48.8V71.2H143.883V48.8H140.883ZM140.883 71.2C140.883 70.8116 141.195 70.5 141.583 70.5V73.5C142.852 73.5 143.883 72.4684 143.883 71.2H140.883ZM141.583 70.5H139.183V73.5H141.583V70.5ZM139.183 70.5C139.572 70.5 139.883 70.8116 139.883 71.2H136.883C136.883 72.4684 137.915 73.5 139.183 73.5V70.5ZM139.883 71.2V48.8H136.883V71.2H139.883ZM139.883 48.8C139.883 47.5316 138.852 46.5 137.583 46.5V49.5C137.195 49.5 136.883 49.1884 136.883 48.8H139.883ZM137.583 46.5H129.223V49.5H137.583V46.5ZM129.223 46.5C129.612 46.5 129.923 46.8116 129.923 47.2H126.923C126.923 48.4684 127.955 49.5 129.223 49.5V46.5ZM129.923 47.2V44.8H126.923V47.2H129.923ZM129.923 44.8C129.923 45.1884 129.612 45.5 129.223 45.5V42.5C127.955 42.5 126.923 43.5316 126.923 44.8H129.923ZM129.223 45.5H151.543V42.5H129.223V45.5ZM151.543 45.5C151.155 45.5 150.843 45.1884 150.843 44.8H153.843C153.843 43.5316 152.812 42.5 151.543 42.5V45.5ZM179.651 44.8V47.2H182.651V44.8H179.651ZM179.651 47.2C179.651 46.8116 179.963 46.5 180.351 46.5V49.5C181.62 49.5 182.651 48.4684 182.651 47.2H179.651ZM180.351 46.5H162.031V49.5H180.351V46.5ZM162.031 46.5C160.763 46.5 159.731 47.5316 159.731 48.8H162.731C162.731 49.1884 162.42 49.5 162.031 49.5V46.5ZM159.731 48.8V55.2H162.731V48.8H159.731ZM159.731 55.2C159.731 56.4684 160.763 57.5 162.031 57.5V54.5C162.42 54.5 162.731 54.8116 162.731 55.2H159.731ZM162.031 57.5H176.431V54.5H162.031V57.5ZM176.431 57.5C176.043 57.5 175.731 57.1884 175.731 56.8H178.731C178.731 55.5316 177.7 54.5 176.431 54.5V57.5ZM175.731 56.8V59.2H178.731V56.8H175.731ZM175.731 59.2C175.731 58.8116 176.043 58.5 176.431 58.5V61.5C177.7 61.5 178.731 60.4684 178.731 59.2H175.731ZM176.431 58.5H162.031V61.5H176.431V58.5ZM162.031 58.5C160.763 58.5 159.731 59.5316 159.731 60.8H162.731C162.731 61.1884 162.42 61.5 162.031 61.5V58.5ZM159.731 60.8V67.2H162.731V60.8H159.731ZM159.731 67.2C159.731 68.4684 160.763 69.5 162.031 69.5V66.5C162.42 66.5 162.731 66.8116 162.731 67.2H159.731ZM162.031 69.5H180.351V66.5H162.031V69.5ZM180.351 69.5C179.963 69.5 179.651 69.1884 179.651 68.8H182.651C182.651 67.5316 181.62 66.5 180.351 66.5V69.5ZM179.651 68.8V71.2H182.651V68.8H179.651ZM179.651 71.2C179.651 70.8116 179.963 70.5 180.351 70.5V73.5C181.62 73.5 182.651 72.4684 182.651 71.2H179.651ZM180.351 70.5H158.031V73.5H180.351V70.5ZM158.031 70.5C158.42 70.5 158.731 70.8116 158.731 71.2H155.731C155.731 72.4684 156.763 73.5 158.031 73.5V70.5ZM158.731 71.2V44.8H155.731V71.2H158.731ZM158.731 44.8C158.731 45.1884 158.42 45.5 158.031 45.5V42.5C156.763 42.5 155.731 43.5316 155.731 44.8H158.731ZM158.031 45.5H180.351V42.5H158.031V45.5ZM180.351 45.5C179.963 45.5 179.651 45.1884 179.651 44.8H182.651C182.651 43.5316 181.62 42.5 180.351 42.5V45.5ZM209.279 50.32L208.303 49.1811L208.259 49.2186L208.218 49.2593L209.279 50.32ZM201.839 57.76L200.778 56.6993L200.703 56.7747L200.639 56.86L201.839 57.76ZM198.159 57.76L197.098 58.8207V58.8207L198.159 57.76ZM190.719 50.32L191.78 49.2593V49.2593L190.719 50.32ZM190.279 44.24L189.218 45.3007V45.3007L190.279 44.24ZM199.719 53.68L200.78 52.6193L199.719 53.68ZM200.279 53.68L199.221 52.6171L199.218 52.6193L200.279 53.68ZM209.759 44.24L210.817 45.3029L210.894 45.2266L210.959 45.14L209.759 44.24ZM212.459 44.8V71.2H215.459V44.8H212.459ZM212.459 71.2C212.459 70.8116 212.771 70.5 213.159 70.5V73.5C214.427 73.5 215.459 72.4684 215.459 71.2H212.459ZM213.159 70.5H210.759V73.5H213.159V70.5ZM210.759 70.5C211.147 70.5 211.459 70.8116 211.459 71.2H208.459C208.459 72.4684 209.491 73.5 210.759 73.5V70.5ZM211.459 71.2V50.64H208.459V71.2H211.459ZM211.459 50.64C211.459 49.0832 209.62 48.0524 208.303 49.1811L210.255 51.4589C209.928 51.7396 209.456 51.7908 209.073 51.6065C208.704 51.4287 208.459 51.0525 208.459 50.64H211.459ZM208.218 49.2593L200.778 56.6993L202.9 58.8207L210.34 51.3807L208.218 49.2593ZM200.639 56.86C200.79 56.6593 200.957 56.5771 201.032 56.5473C201.113 56.5149 201.192 56.5 201.279 56.5V59.5C201.75 59.5 202.534 59.3339 203.039 58.66L200.639 56.86ZM201.279 56.5H198.719V59.5H201.279V56.5ZM198.719 56.5C198.929 56.5 199.107 56.587 199.22 56.6993L197.098 58.8207C197.531 59.253 198.109 59.5 198.719 59.5V56.5ZM199.22 56.6993L191.78 49.2593L189.658 51.3807L197.098 58.8207L199.22 56.6993ZM191.78 49.2593C191.13 48.6093 190.252 48.6186 189.657 48.8945C189.061 49.1715 188.539 49.7999 188.539 50.64H191.539C191.539 51.1201 191.237 51.4685 190.921 51.6155C190.607 51.7614 190.068 51.7907 189.658 51.3807L191.78 49.2593ZM188.539 50.64V71.2H191.539V50.64H188.539ZM188.539 71.2C188.539 70.8116 188.851 70.5 189.239 70.5V73.5C190.507 73.5 191.539 72.4684 191.539 71.2H188.539ZM189.239 70.5H186.839V73.5H189.239V70.5ZM186.839 70.5C187.227 70.5 187.539 70.8116 187.539 71.2H184.539C184.539 72.4684 185.571 73.5 186.839 73.5V70.5ZM187.539 71.2V44.8H184.539V71.2H187.539ZM187.539 44.8C187.539 45.1884 187.227 45.5 186.839 45.5V42.5C185.571 42.5 184.539 43.5316 184.539 44.8H187.539ZM186.839 45.5H189.719V42.5H186.839V45.5ZM189.719 45.5C189.509 45.5 189.331 45.413 189.218 45.3007L191.34 43.1793C190.907 42.747 190.329 42.5 189.719 42.5V45.5ZM189.218 45.3007L198.658 54.7407L200.78 52.6193L191.34 43.1793L189.218 45.3007ZM198.658 54.7407C199.404 55.4864 200.594 55.4864 201.34 54.7407L199.218 52.6193C199.411 52.427 199.689 52.3 199.999 52.3C200.309 52.3 200.587 52.427 200.78 52.6193L198.658 54.7407ZM201.337 54.7429L210.817 45.3029L208.701 43.1771L199.221 52.6171L201.337 54.7429ZM210.959 45.14C210.714 45.4665 210.396 45.5 210.319 45.5V42.5C209.762 42.5 209.044 42.6935 208.559 43.34L210.959 45.14ZM210.319 45.5H213.159V42.5H210.319V45.5ZM213.159 45.5C212.771 45.5 212.459 45.1884 212.459 44.8H215.459C215.459 43.5316 214.427 42.5 213.159 42.5V45.5ZM161.93 90.5C160.661 90.5 159.63 91.5316 159.63 92.8H162.63C162.63 93.1884 162.318 93.5 161.93 93.5V90.5ZM159.63 92.8V111.2H162.63V92.8H159.63ZM159.63 111.2C159.63 112.468 160.661 113.5 161.93 113.5V110.5C162.318 110.5 162.63 110.812 162.63 111.2H159.63ZM161.93 113.5H180.25V110.5H161.93V113.5ZM180.25 113.5C179.861 113.5 179.55 113.188 179.55 112.8H182.55C182.55 111.532 181.518 110.5 180.25 110.5V113.5ZM179.55 112.8V115.2H182.55V112.8H179.55ZM179.55 115.2C179.55 114.812 179.861 114.5 180.25 114.5V117.5C181.518 117.5 182.55 116.468 182.55 115.2H179.55ZM180.25 114.5H161.93V117.5H180.25V114.5ZM161.93 114.5C160.118 114.5 158.63 113.012 158.63 111.2H155.63C155.63 114.668 158.461 117.5 161.93 117.5V114.5ZM158.63 111.2V92.8H155.63V111.2H158.63ZM158.63 92.8C158.63 90.9884 160.118 89.5 161.93 89.5V86.5C158.461 86.5 155.63 89.3316 155.63 92.8H158.63ZM161.93 89.5H180.25V86.5H161.93V89.5ZM180.25 89.5C179.861 89.5 179.55 89.1884 179.55 88.8H182.55C182.55 87.5316 181.518 86.5 180.25 86.5V89.5ZM179.55 88.8V91.2H182.55V88.8H179.55ZM179.55 91.2C179.55 90.8116 179.861 90.5 180.25 90.5V93.5C181.518 93.5 182.55 92.4684 182.55 91.2H179.55ZM180.25 90.5H161.93V93.5H180.25V90.5ZM188.438 92.8V99.2H191.438V92.8H188.438ZM188.438 99.2C188.438 100.468 189.469 101.5 190.738 101.5V98.5C191.126 98.5 191.438 98.8116 191.438 99.2H188.438ZM190.738 101.5H205.137V98.5H190.738V101.5ZM205.137 101.5C206.406 101.5 207.438 100.468 207.438 99.2H204.438C204.438 98.8116 204.749 98.5 205.137 98.5V101.5ZM207.438 99.2V92.8H204.438V99.2H207.438ZM207.438 92.8C207.438 91.5316 206.406 90.5 205.137 90.5V93.5C204.749 93.5 204.438 93.1884 204.438 92.8H207.438ZM205.137 90.5H190.738V93.5H205.137V90.5ZM190.738 90.5C189.469 90.5 188.438 91.5316 188.438 92.8H191.438C191.438 93.1884 191.126 93.5 190.738 93.5V90.5ZM187.438 115.08V92.8H184.438V115.08H187.438ZM187.438 92.8C187.438 90.9884 188.926 89.5 190.738 89.5V86.5C187.269 86.5 184.438 89.3316 184.438 92.8H187.438ZM190.738 89.5H205.137V86.5H190.738V89.5ZM205.137 89.5C206.949 89.5 208.438 90.9884 208.438 92.8H211.438C211.438 89.3316 208.606 86.5 205.137 86.5V89.5ZM208.438 92.8V115.08H211.438V92.8H208.438ZM208.438 115.08C208.438 114.903 208.515 114.753 208.613 114.659C208.704 114.57 208.842 114.5 209.018 114.5V117.5C210.283 117.5 211.438 116.47 211.438 115.08H208.438ZM209.018 114.5H206.857V117.5H209.018V114.5ZM206.857 114.5C206.992 114.5 207.145 114.556 207.263 114.674C207.382 114.793 207.438 114.945 207.438 115.08H204.438C204.438 116.428 205.509 117.5 206.857 117.5V114.5ZM207.438 115.08V104.8H204.438V115.08H207.438ZM207.438 104.8C207.438 103.532 206.406 102.5 205.137 102.5V105.5C204.749 105.5 204.438 105.188 204.438 104.8H207.438ZM205.137 102.5H190.738V105.5H205.137V102.5ZM190.738 102.5C189.469 102.5 188.438 103.532 188.438 104.8H191.438C191.438 105.188 191.126 105.5 190.738 105.5V102.5ZM188.438 104.8V115.08H191.438V104.8H188.438ZM188.438 115.08C188.438 114.945 188.493 114.793 188.612 114.674C188.73 114.556 188.883 114.5 189.018 114.5V117.5C190.366 117.5 191.438 116.428 191.438 115.08H188.438ZM189.018 114.5H186.857V117.5H189.018V114.5ZM186.857 114.5C186.992 114.5 187.145 114.556 187.263 114.674C187.382 114.793 187.438 114.945 187.438 115.08H184.438C184.438 116.428 185.509 117.5 186.857 117.5V114.5ZM188.438 92.8V99.2H191.438V92.8H188.438ZM188.438 99.2C188.438 100.468 189.469 101.5 190.738 101.5V98.5C191.126 98.5 191.438 98.8116 191.438 99.2H188.438ZM190.738 101.5H205.137V98.5H190.738V101.5ZM205.137 101.5C206.406 101.5 207.438 100.468 207.438 99.2H204.438C204.438 98.8116 204.749 98.5 205.137 98.5V101.5ZM207.438 99.2V92.8H204.438V99.2H207.438ZM207.438 92.8C207.438 91.5316 206.406 90.5 205.137 90.5V93.5C204.749 93.5 204.438 93.1884 204.438 92.8H207.438ZM205.137 90.5H190.738V93.5H205.137V90.5ZM190.738 90.5C189.469 90.5 188.438 91.5316 188.438 92.8H191.438C191.438 93.1884 191.126 93.5 190.738 93.5V90.5ZM187.438 115.08V92.8H184.438V115.08H187.438ZM187.438 92.8C187.438 90.9884 188.926 89.5 190.738 89.5V86.5C187.269 86.5 184.438 89.3316 184.438 92.8H187.438ZM190.738 89.5H205.137V86.5H190.738V89.5ZM205.137 89.5C206.949 89.5 208.438 90.9884 208.438 92.8H211.438C211.438 89.3316 208.606 86.5 205.137 86.5V89.5ZM208.438 92.8V115.08H211.438V92.8H208.438ZM208.438 115.08C208.438 114.903 208.515 114.753 208.613 114.659C208.704 114.57 208.842 114.5 209.018 114.5V117.5C210.283 117.5 211.438 116.47 211.438 115.08H208.438ZM209.018 114.5H206.857V117.5H209.018V114.5ZM206.857 114.5C206.992 114.5 207.145 114.556 207.263 114.674C207.382 114.793 207.438 114.945 207.438 115.08H204.438C204.438 116.428 205.509 117.5 206.857 117.5V114.5ZM207.438 115.08V104.8H204.438V115.08H207.438ZM207.438 104.8C207.438 103.532 206.406 102.5 205.137 102.5V105.5C204.749 105.5 204.438 105.188 204.438 104.8H207.438ZM205.137 102.5H190.738V105.5H205.137V102.5ZM190.738 102.5C189.469 102.5 188.438 103.532 188.438 104.8H191.438C191.438 105.188 191.126 105.5 190.738 105.5V102.5ZM188.438 104.8V115.08H191.438V104.8H188.438ZM188.438 115.08C188.438 114.945 188.493 114.793 188.612 114.674C188.73 114.556 188.883 114.5 189.018 114.5V117.5C190.366 117.5 191.438 116.428 191.438 115.08H188.438ZM189.018 114.5H186.857V117.5H189.018V114.5ZM186.857 114.5C186.992 114.5 187.145 114.556 187.263 114.674C187.382 114.793 187.438 114.945 187.438 115.08H184.438C184.438 116.428 185.509 117.5 186.857 117.5V114.5ZM188.438 92.8V99.2H191.438V92.8H188.438ZM188.438 99.2C188.438 100.468 189.469 101.5 190.738 101.5V98.5C191.126 98.5 191.438 98.8116 191.438 99.2H188.438ZM190.738 101.5H205.137V98.5H190.738V101.5ZM205.137 101.5C206.406 101.5 207.438 100.468 207.438 99.2H204.438C204.438 98.8116 204.749 98.5 205.137 98.5V101.5ZM207.438 99.2V92.8H204.438V99.2H207.438ZM207.438 92.8C207.438 91.5316 206.406 90.5 205.137 90.5V93.5C204.749 93.5 204.438 93.1884 204.438 92.8H207.438ZM205.137 90.5H190.738V93.5H205.137V90.5ZM190.738 90.5C189.469 90.5 188.438 91.5316 188.438 92.8H191.438C191.438 93.1884 191.126 93.5 190.738 93.5V90.5ZM187.438 115.2V92.8H184.438V115.2H187.438ZM187.438 92.8C187.438 90.9884 188.926 89.5 190.738 89.5V86.5C187.269 86.5 184.438 89.3316 184.438 92.8H187.438ZM190.738 89.5H205.137V86.5H190.738V89.5ZM205.137 89.5C206.949 89.5 208.438 90.9884 208.438 92.8H211.438C211.438 89.3316 208.606 86.5 205.137 86.5V89.5ZM208.438 92.8V115.2H211.438V92.8H208.438ZM208.438 115.2C208.438 114.812 208.749 114.5 209.137 114.5V117.5C210.406 117.5 211.438 116.468 211.438 115.2H208.438ZM209.137 114.5H206.738V117.5H209.137V114.5ZM206.738 114.5C207.126 114.5 207.438 114.812 207.438 115.2H204.438C204.438 116.468 205.469 117.5 206.738 117.5V114.5ZM207.438 115.2V104.8H204.438V115.2H207.438ZM207.438 104.8C207.438 103.532 206.406 102.5 205.137 102.5V105.5C204.749 105.5 204.438 105.188 204.438 104.8H207.438ZM205.137 102.5H190.738V105.5H205.137V102.5ZM190.738 102.5C189.469 102.5 188.438 103.532 188.438 104.8H191.438C191.438 105.188 191.126 105.5 190.738 105.5V102.5ZM188.438 104.8V115.2H191.438V104.8H188.438ZM188.438 115.2C188.438 114.812 188.749 114.5 189.137 114.5V117.5C190.406 117.5 191.438 116.468 191.438 115.2H188.438ZM189.137 114.5H186.738V117.5H189.137V114.5ZM186.738 114.5C187.126 114.5 187.438 114.812 187.438 115.2H184.438C184.438 116.468 185.469 117.5 186.738 117.5V114.5ZM237.165 88.8V91.2H240.165V88.8H237.165ZM237.165 91.2C237.165 90.8116 237.477 90.5 237.865 90.5V93.5C239.134 93.5 240.165 92.4684 240.165 91.2H237.165ZM237.865 90.5H229.505V93.5H237.865V90.5ZM229.505 90.5C228.237 90.5 227.205 91.5316 227.205 92.8H230.205C230.205 93.1884 229.894 93.5 229.505 93.5V90.5ZM227.205 92.8V115.2H230.205V92.8H227.205ZM227.205 115.2C227.205 114.812 227.517 114.5 227.905 114.5V117.5C229.174 117.5 230.205 116.468 230.205 115.2H227.205ZM227.905 114.5H225.505V117.5H227.905V114.5ZM225.505 114.5C225.894 114.5 226.205 114.812 226.205 115.2H223.205C223.205 116.468 224.237 117.5 225.505 117.5V114.5ZM226.205 115.2V92.8H223.205V115.2H226.205ZM226.205 92.8C226.205 91.5316 225.174 90.5 223.905 90.5V93.5C223.517 93.5 223.205 93.1884 223.205 92.8H226.205ZM223.905 90.5H215.545V93.5H223.905V90.5ZM215.545 90.5C215.934 90.5 216.245 90.8116 216.245 91.2H213.245C213.245 92.4684 214.277 93.5 215.545 93.5V90.5ZM216.245 91.2V88.8H213.245V91.2H216.245ZM216.245 88.8C216.245 89.1884 215.934 89.5 215.545 89.5V86.5C214.277 86.5 213.245 87.5316 213.245 88.8H216.245ZM215.545 89.5H237.865V86.5H215.545V89.5ZM237.865 89.5C237.477 89.5 237.165 89.1884 237.165 88.8H240.165C240.165 87.5316 239.134 86.5 237.865 86.5V89.5ZM231.378 146L230.178 145.1L229.503 146L230.178 146.9L231.378 146ZM229.798 143.2V136.8H226.798V143.2H229.798ZM229.798 136.8C229.798 135.532 228.767 134.5 227.498 134.5V137.5C227.11 137.5 226.798 137.188 226.798 136.8H229.798ZM227.498 134.5H213.098V137.5H227.498V134.5ZM213.098 134.5C211.83 134.5 210.798 135.532 210.798 136.8H213.798C213.798 137.188 213.487 137.5 213.098 137.5V134.5ZM210.798 136.8V155.2H213.798V136.8H210.798ZM210.798 155.2C210.798 156.468 211.83 157.5 213.098 157.5V154.5C213.487 154.5 213.798 154.812 213.798 155.2H210.798ZM213.098 157.5H227.498V154.5H213.098V157.5ZM227.498 157.5C228.767 157.5 229.798 156.468 229.798 155.2H226.798C226.798 154.812 227.11 154.5 227.498 154.5V157.5ZM229.798 155.2V148.8H226.798V155.2H229.798ZM229.798 148.8C229.798 147.532 228.767 146.5 227.498 146.5V149.5C227.11 149.5 226.798 149.188 226.798 148.8H229.798ZM227.498 146.5H219.098V149.5H227.498V146.5ZM219.098 146.5C219.487 146.5 219.798 146.812 219.798 147.2H216.798C216.798 148.468 217.83 149.5 219.098 149.5V146.5ZM219.798 147.2V144.8H216.798V147.2H219.798ZM219.798 144.8C219.798 145.188 219.487 145.5 219.098 145.5V142.5C217.83 142.5 216.798 143.532 216.798 144.8H219.798ZM219.098 145.5H227.498V142.5H219.098V145.5ZM227.498 145.5C228.767 145.5 229.798 144.468 229.798 143.2H226.798C226.798 142.812 227.11 142.5 227.498 142.5V145.5ZM230.798 136.8V143.2H233.798V136.8H230.798ZM230.798 143.2C230.798 143.922 230.58 144.565 230.178 145.1L232.578 146.9C233.377 145.835 233.798 144.558 233.798 143.2H230.798ZM230.178 146.9C230.58 147.435 230.798 148.078 230.798 148.8H233.798C233.798 147.442 233.377 146.165 232.578 145.1L230.178 146.9ZM230.798 148.8V155.2H233.798V148.8H230.798ZM230.798 155.2C230.798 157.012 229.31 158.5 227.498 158.5V161.5C230.967 161.5 233.798 158.668 233.798 155.2H230.798ZM227.498 158.5H209.098V161.5H227.498V158.5ZM209.098 158.5C209.487 158.5 209.798 158.812 209.798 159.2H206.798C206.798 160.468 207.83 161.5 209.098 161.5V158.5ZM209.798 159.2V132.8H206.798V159.2H209.798ZM209.798 132.8C209.798 133.188 209.487 133.5 209.098 133.5V130.5C207.83 130.5 206.798 131.532 206.798 132.8H209.798ZM209.098 133.5H227.498V130.5H209.098V133.5ZM227.498 133.5C229.31 133.5 230.798 134.988 230.798 136.8H233.798C233.798 133.332 230.967 130.5 227.498 130.5V133.5ZM238.606 132.8C238.606 133.188 238.295 133.5 237.906 133.5V130.5C236.638 130.5 235.606 131.532 235.606 132.8H238.606ZM237.906 133.5H240.306V130.5H237.906V133.5ZM240.306 133.5C239.918 133.5 239.606 133.188 239.606 132.8H242.606C242.606 131.532 241.575 130.5 240.306 130.5V133.5ZM239.606 132.8V155.2H242.606V132.8H239.606ZM239.606 155.2C239.606 156.468 240.638 157.5 241.906 157.5V154.5C242.295 154.5 242.606 154.812 242.606 155.2H239.606ZM241.906 157.5H252.306V154.5H241.906V157.5ZM252.306 157.5C251.918 157.5 251.606 157.188 251.606 156.8H254.606C254.606 155.532 253.575 154.5 252.306 154.5V157.5ZM251.606 156.8V159.2H254.606V156.8H251.606ZM251.606 159.2C251.606 158.812 251.918 158.5 252.306 158.5V161.5C253.575 161.5 254.606 160.468 254.606 159.2H251.606ZM252.306 158.5H237.906V161.5H252.306V158.5ZM237.906 158.5C238.295 158.5 238.606 158.812 238.606 159.2H235.606C235.606 160.468 236.638 161.5 237.906 161.5V158.5ZM238.606 159.2V132.8H235.606V159.2H238.606ZM279.406 155.2V136.8H276.406V155.2H279.406ZM279.406 136.8C279.406 135.532 278.375 134.5 277.106 134.5V137.5C276.718 137.5 276.406 137.188 276.406 136.8H279.406ZM277.106 134.5H262.706V137.5H277.106V134.5ZM262.706 134.5C261.438 134.5 260.406 135.532 260.406 136.8H263.406C263.406 137.188 263.095 137.5 262.706 137.5V134.5ZM260.406 136.8V155.2H263.406V136.8H260.406ZM260.406 155.2C260.406 156.468 261.438 157.5 262.706 157.5V154.5C263.095 154.5 263.406 154.812 263.406 155.2H260.406ZM262.706 157.5H277.106V154.5H262.706V157.5ZM277.106 157.5C278.375 157.5 279.406 156.468 279.406 155.2H276.406C276.406 154.812 276.718 154.5 277.106 154.5V157.5ZM277.106 133.5C278.918 133.5 280.406 134.988 280.406 136.8H283.406C283.406 133.332 280.575 130.5 277.106 130.5V133.5ZM280.406 136.8V155.2H283.406V136.8H280.406ZM280.406 155.2C280.406 157.012 278.918 158.5 277.106 158.5V161.5C280.575 161.5 283.406 158.668 283.406 155.2H280.406ZM277.106 158.5H262.706V161.5H277.106V158.5ZM262.706 158.5C260.895 158.5 259.406 157.012 259.406 155.2H256.406C256.406 158.668 259.238 161.5 262.706 161.5V158.5ZM259.406 155.2V136.8H256.406V155.2H259.406ZM259.406 136.8C259.406 134.988 260.895 133.5 262.706 133.5V130.5C259.238 130.5 256.406 133.332 256.406 136.8H259.406ZM262.706 133.5H277.106V130.5H262.706V133.5ZM291.514 134.5C290.246 134.5 289.214 135.532 289.214 136.8H292.214C292.214 137.188 291.902 137.5 291.514 137.5V134.5ZM289.214 136.8V155.2H292.214V136.8H289.214ZM289.214 155.2C289.214 156.468 290.246 157.5 291.514 157.5V154.5C291.902 154.5 292.214 154.812 292.214 155.2H289.214ZM291.514 157.5H309.834V154.5H291.514V157.5ZM309.834 157.5C309.446 157.5 309.134 157.188 309.134 156.8H312.134C312.134 155.532 311.102 154.5 309.834 154.5V157.5ZM309.134 156.8V159.2H312.134V156.8H309.134ZM309.134 159.2C309.134 158.812 309.446 158.5 309.834 158.5V161.5C311.102 161.5 312.134 160.468 312.134 159.2H309.134ZM309.834 158.5H291.514V161.5H309.834V158.5ZM291.514 158.5C289.702 158.5 288.214 157.012 288.214 155.2H285.214C285.214 158.668 288.046 161.5 291.514 161.5V158.5ZM288.214 155.2V136.8H285.214V155.2H288.214ZM288.214 136.8C288.214 134.988 289.702 133.5 291.514 133.5V130.5C288.046 130.5 285.214 133.332 285.214 136.8H288.214ZM291.514 133.5H309.834V130.5H291.514V133.5ZM309.834 133.5C309.446 133.5 309.134 133.188 309.134 132.8H312.134C312.134 131.532 311.103 130.5 309.834 130.5V133.5ZM309.134 132.8V135.2H312.134V132.8H309.134ZM309.134 135.2C309.134 134.812 309.446 134.5 309.834 134.5V137.5C311.102 137.5 312.134 136.468 312.134 135.2H309.134ZM309.834 134.5H291.514V137.5H309.834V134.5ZM338.642 145.54C338.253 145.54 337.942 145.228 337.942 144.84H340.942C340.942 143.572 339.91 142.54 338.642 142.54V145.54ZM337.942 144.84V159.2H340.942V144.84H337.942ZM337.942 159.2C337.942 158.812 338.253 158.5 338.642 158.5V161.5C339.91 161.5 340.942 160.468 340.942 159.2H337.942ZM338.642 158.5H336.322V161.5H338.642V158.5ZM336.322 158.5C336.71 158.5 337.022 158.812 337.022 159.2H334.022C334.022 160.468 335.053 161.5 336.322 161.5V158.5ZM337.022 159.2V148.76H334.022V159.2H337.022ZM337.022 148.76C337.022 147.492 335.99 146.46 334.722 146.46V149.46C334.333 149.46 334.022 149.148 334.022 148.76H337.022ZM334.722 146.46H320.242V149.46H334.722V146.46ZM320.242 146.46C318.973 146.46 317.942 147.492 317.942 148.76H320.942C320.942 149.148 320.63 149.46 320.242 149.46V146.46ZM317.942 148.76V159.2H320.942V148.76H317.942ZM317.942 159.2C317.942 158.812 318.253 158.5 318.642 158.5V161.5C319.91 161.5 320.942 160.468 320.942 159.2H317.942ZM318.642 158.5H316.322V161.5H318.642V158.5ZM316.322 158.5C316.71 158.5 317.022 158.812 317.022 159.2H314.022C314.022 160.468 315.053 161.5 316.322 161.5V158.5ZM317.022 159.2V132.8H314.022V159.2H317.022ZM317.022 132.8C317.022 133.188 316.71 133.5 316.322 133.5V130.5C315.053 130.5 314.022 131.532 314.022 132.8H317.022ZM316.322 133.5H318.642V130.5H316.322V133.5ZM318.642 133.5C318.253 133.5 317.942 133.188 317.942 132.8H320.942C320.942 131.532 319.91 130.5 318.642 130.5V133.5ZM317.942 132.8V136.68H320.942V132.8H317.942ZM317.942 136.68V136.72H320.942V136.68H317.942ZM317.942 136.72V143.24H320.942V136.72H317.942ZM317.942 143.24C317.942 144.508 318.973 145.54 320.242 145.54V142.54C320.63 142.54 320.942 142.852 320.942 143.24H317.942ZM320.242 145.54H330.802V142.54H320.242V145.54ZM330.802 145.54C332.07 145.54 333.102 144.508 333.102 143.24H330.102C330.102 142.852 330.413 142.54 330.802 142.54V145.54ZM333.102 143.24V132.8H330.102V143.24H333.102ZM333.102 132.8C333.102 132.946 333.046 133.127 332.901 133.277C332.748 133.435 332.554 133.5 332.402 133.5V130.5C331.044 130.5 330.102 131.582 330.102 132.8H333.102ZM332.402 133.5H334.722V130.5H332.402V133.5ZM334.722 133.5C334.333 133.5 334.022 133.188 334.022 132.8H337.022C337.022 131.532 335.99 130.5 334.722 130.5V133.5ZM334.022 132.8V143.24H337.022V132.8H334.022ZM334.022 143.24C334.022 144.508 335.053 145.54 336.322 145.54V142.54C336.71 142.54 337.022 142.852 337.022 143.24H334.022ZM336.322 145.54H338.642V142.54H336.322V145.54ZM363.53 134.42H349.05V137.42H363.53V134.42ZM349.05 134.42C347.781 134.42 346.75 135.452 346.75 136.72H349.75C349.75 137.108 349.438 137.42 349.05 137.42V134.42ZM346.75 136.72V143.24H349.75V136.72H346.75ZM346.75 143.24C346.75 144.508 347.781 145.54 349.05 145.54V142.54C349.438 142.54 349.75 142.852 349.75 143.24H346.75ZM349.05 145.54H363.45V142.54H349.05V145.54ZM363.45 145.54C365.293 145.54 366.75 147.02 366.75 148.84H369.75C369.75 145.38 366.966 142.54 363.45 142.54V145.54ZM366.75 148.84V155.2H369.75V148.84H366.75ZM366.75 155.2C366.75 157.02 365.293 158.5 363.45 158.5V161.5C366.966 161.5 369.75 158.66 369.75 155.2H366.75ZM363.45 158.5H345.13V161.5H363.45V158.5ZM345.13 158.5C345.518 158.5 345.83 158.812 345.83 159.2H342.83C342.83 160.468 343.861 161.5 345.13 161.5V158.5ZM345.83 159.2V156.88H342.83V159.2H345.83ZM345.83 156.88C345.83 157.268 345.518 157.58 345.13 157.58V154.58C343.861 154.58 342.83 155.612 342.83 156.88H345.83ZM345.13 157.58H363.53V154.58H345.13V157.58ZM363.53 157.58C364.798 157.58 365.83 156.548 365.83 155.28H362.83C362.83 154.892 363.141 154.58 363.53 154.58V157.58ZM365.83 155.28V148.76H362.83V155.28H365.83ZM365.83 148.76C365.83 147.492 364.798 146.46 363.53 146.46V149.46C363.141 149.46 362.83 149.148 362.83 148.76H365.83ZM363.53 146.46H349.13V149.46H363.53V146.46ZM349.13 146.46C347.318 146.46 345.83 144.972 345.83 143.16H342.83C342.83 146.628 345.661 149.46 349.13 149.46V146.46ZM345.83 143.16V136.8H342.83V143.16H345.83ZM345.83 136.8C345.83 134.988 347.318 133.5 349.13 133.5V130.5C345.661 130.5 342.83 133.332 342.83 136.8H345.83ZM349.13 133.5H363.53V130.5H349.13V133.5ZM363.53 133.5C363.141 133.5 362.83 133.188 362.83 132.8H365.83C365.83 131.532 364.798 130.5 363.53 130.5V133.5ZM362.83 132.8V135.12H365.83V132.8H362.83ZM362.83 135.12C362.83 134.732 363.141 134.42 363.53 134.42V137.42C364.798 137.42 365.83 136.388 365.83 135.12H362.83Z" fill="white" style="mix-blend-mode:hard-light" mask="url(#path-1-inside-1_1093_15)"/>
</g>
<g style="mix-blend-mode:plus-lighter" filter="url(#filter1_ddd_1093_15)">
<path d="M29 50.5V29H54.5" stroke="#B2085A" stroke-width="3"/>
</g>
<g style="mix-blend-mode:plus-lighter" filter="url(#filter2_ddd_1093_15)">
<path d="M394 147V172H373" stroke="#B2085A" stroke-width="3"/>
</g>
<defs>
<filter id="filter0_dd_1093_15" x="14.75" y="16.75" width="380.75" height="170.5" filterUnits="userSpaceOnUse" color-interpolation-filters="sRGB">
<feFlood flood-opacity="0" result="BackgroundImageFix"/>
<feColorMatrix in="SourceAlpha" type="matrix" values="0 0 0 0 0 0 0 0 0 0 0 0 0 0 0 0 0 0 127 0" result="hardAlpha"/>
<feOffset/>
<feGaussianBlur stdDeviation="6.81"/>
<feColorMatrix type="matrix" values="0 0 0 0 0.482353 0 0 0 0 0.317647 0 0 0 0 0.941176 0 0 0 0.5 0"/>
<feBlend mode="normal" in2="BackgroundImageFix" result="effect1_dropShadow_1093_15"/>
<feColorMatrix in="SourceAlpha" type="matrix" values="0 0 0 0 0 0 0 0 0 0 0 0 0 0 0 0 0 0 127 0" result="hardAlpha"/>
<feOffset/>
<feGaussianBlur stdDeviation="13.625"/>
<feColorMatrix type="matrix" values="0 0 0 0 0.698039 0 0 0 0 0.0313726 0 0 0 0 0.352941 0 0 0 1 0"/>
<feBlend mode="normal" in2="effect1_dropShadow_1093_15" result="effect2_dropShadow_1093_15"/>
<feBlend mode="normal" in="SourceGraphic" in2="effect2_dropShadow_1093_15" result="shape"/>
</filter>
<filter id="filter1_ddd_1093_15" x="0.25" y="0.25" width="81.5" height="77.5" filterUnits="userSpaceOnUse" color-interpolation-filters="sRGB">
<feFlood flood-opacity="0" result="BackgroundImageFix"/>
<feColorMatrix in="SourceAlpha" type="matrix" values="0 0 0 0 0 0 0 0 0 0 0 0 0 0 0 0 0 0 127 0" result="hardAlpha"/>
<feOffset/>
<feGaussianBlur stdDeviation="0.97308"/>
<feColorMatrix type="matrix" values="0 0 0 0 0.784314 0 0 0 0 0.372549 0 0 0 0 0.592157 0 0 0 1 0"/>
<feBlend mode="normal" in2="BackgroundImageFix" result="effect1_dropShadow_1093_15"/>
<feColorMatrix in="SourceAlpha" type="matrix" values="0 0 0 0 0 0 0 0 0 0 0 0 0 0 0 0 0 0 127 0" result="hardAlpha"/>
<feOffset/>
<feGaussianBlur stdDeviation="6.81"/>
<feColorMatrix type="matrix" values="0 0 0 0 0.784314 0 0 0 0 0.372549 0 0 0 0 0.592157 0 0 0 1 0"/>
<feBlend mode="normal" in2="effect1_dropShadow_1093_15" result="effect2_dropShadow_1093_15"/>
<feColorMatrix in="SourceAlpha" type="matrix" values="0 0 0 0 0 0 0 0 0 0 0 0 0 0 0 0 0 0 127 0" result="hardAlpha"/>
<feOffset/>
<feGaussianBlur stdDeviation="13.625"/>
<feColorMatrix type="matrix" values="0 0 0 0 0.784314 0 0 0 0 0.372549 0 0 0 0 0.592157 0 0 0 1 0"/>
<feBlend mode="normal" in2="effect2_dropShadow_1093_15" result="effect3_dropShadow_1093_15"/>
<feBlend mode="normal" in="SourceGraphic" in2="effect3_dropShadow_1093_15" result="shape"/>
</filter>
<filter id="filter2_ddd_1093_15" x="345.754" y="119.754" width="76.9925" height="80.9925" filterUnits="userSpaceOnUse" color-interpolation-filters="sRGB">
<feFlood flood-opacity="0" result="BackgroundImageFix"/>
<feColorMatrix in="SourceAlpha" type="matrix" values="0 0 0 0 0 0 0 0 0 0 0 0 0 0 0 0 0 0 127 0" result="hardAlpha"/>
<feOffset/>
<feGaussianBlur stdDeviation="0.97308"/>
<feColorMatrix type="matrix" values="0 0 0 0 0.784314 0 0 0 0 0.372549 0 0 0 0 0.592157 0 0 0 1 0"/>
<feBlend mode="normal" in2="BackgroundImageFix" result="effect1_dropShadow_1093_15"/>
<feColorMatrix in="SourceAlpha" type="matrix" values="0 0 0 0 0 0 0 0 0 0 0 0 0 0 0 0 0 0 127 0" result="hardAlpha"/>
<feOffset/>
<feGaussianBlur stdDeviation="6.81156"/>
<feColorMatrix type="matrix" values="0 0 0 0 0.784314 0 0 0 0 0.372549 0 0 0 0 0.592157 0 0 0 1 0"/>
<feBlend mode="normal" in2="effect1_dropShadow_1093_15" result="effect2_dropShadow_1093_15"/>
<feColorMatrix in="SourceAlpha" type="matrix" values="0 0 0 0 0 0 0 0 0 0 0 0 0 0 0 0 0 0 127 0" result="hardAlpha"/>
<feOffset/>
<feGaussianBlur stdDeviation="13.6231"/>
<feColorMatrix type="matrix" values="0 0 0 0 0.784314 0 0 0 0 0.372549 0 0 0 0 0.592157 0 0 0 1 0"/>
<feBlend mode="normal" in2="effect2_dropShadow_1093_15" result="effect3_dropShadow_1093_15"/>
<feBlend mode="normal" in="SourceGraphic" in2="effect3_dropShadow_1093_15" result="shape"/>
</filter>
</defs>
</svg>
