<svg width="285" height="156" viewBox="0 0 285 156" fill="none" xmlns="http://www.w3.org/2000/svg">
<g filter="url(#filter0_dd_1843_37)">
<mask id="path-1-inside-1_1843_37" fill="white">
<path d="M49.0162 37.6065H38.1562C37.8262 37.6065 37.5562 37.8765 37.5562 38.2065V43.0965C37.5562 43.4265 37.8262 43.6965 38.1562 43.6965H48.9562C50.9662 43.6965 52.5562 45.3165 52.5562 47.2965V52.0665C52.5562 54.0465 50.9662 55.6665 48.9562 55.6665H35.2162C34.8862 55.6665 34.6162 55.3965 34.6162 55.0665V53.3265C34.6162 52.9965 34.8862 52.7265 35.2162 52.7265H49.0162C49.3462 52.7265 49.6162 52.4565 49.6162 52.1265V47.2365C49.6162 46.9065 49.3462 46.6365 49.0162 46.6365H38.2162C36.2362 46.6365 34.6162 45.0165 34.6162 43.0365V38.2665C34.6162 36.2865 36.2362 34.6665 38.2162 34.6665H49.0162C49.3462 34.6665 49.6162 34.9365 49.6162 35.2665V37.0065C49.6162 37.3365 49.3462 37.6065 49.0162 37.6065ZM56.2221 43.0665V35.2665C56.2221 34.9365 56.4921 34.6665 56.8221 34.6665H58.6221C58.9521 34.6665 59.2221 34.9365 59.2221 35.2665V43.0665C59.2221 43.3965 59.4921 43.6665 59.8221 43.6665H70.6221C70.9521 43.6665 71.2221 43.3965 71.2221 43.0665V35.2665C71.2221 34.9365 71.4921 34.6665 71.8221 34.6665H73.6221C73.9521 34.6665 74.2221 34.9365 74.2221 35.2665V52.0665C74.2221 54.0465 72.6021 55.6665 70.6221 55.6665H59.8221C59.4921 55.6665 59.2221 55.3965 59.2221 55.0665V53.2665C59.2221 52.9365 59.4921 52.6665 59.8221 52.6665H70.6221C70.9521 52.6665 71.2221 52.3965 71.2221 52.0665V47.2665C71.2221 46.9365 70.9521 46.6665 70.6221 46.6665H59.8221C57.8421 46.6665 56.2221 45.0465 56.2221 43.0665ZM92.2279 37.6065H81.3679C81.0379 37.6065 80.7679 37.8765 80.7679 38.2065V43.0965C80.7679 43.4265 81.0379 43.6965 81.3679 43.6965H92.1679C94.1779 43.6965 95.7679 45.3165 95.7679 47.2965V52.0665C95.7679 54.0465 94.1779 55.6665 92.1679 55.6665H78.4279C78.0979 55.6665 77.8279 55.3965 77.8279 55.0665V53.3265C77.8279 52.9965 78.0979 52.7265 78.4279 52.7265H92.2279C92.5579 52.7265 92.8279 52.4565 92.8279 52.1265V47.2365C92.8279 46.9065 92.5579 46.6365 92.2279 46.6365H81.4279C79.4479 46.6365 77.8279 45.0165 77.8279 43.0365V38.2665C77.8279 36.2865 79.4479 34.6665 81.4279 34.6665H92.2279C92.5579 34.6665 92.8279 34.9365 92.8279 35.2665V37.0065C92.8279 37.3365 92.5579 37.6065 92.2279 37.6065ZM117.374 35.2665V37.0665C117.374 37.3965 117.104 37.6665 116.774 37.6665H110.504C110.174 37.6665 109.904 37.9365 109.904 38.2665V55.0665C109.904 55.3965 109.634 55.6665 109.304 55.6665H107.504C107.174 55.6665 106.904 55.3965 106.904 55.0665V38.2665C106.904 37.9365 106.634 37.6665 106.304 37.6665H100.034C99.7038 37.6665 99.4338 37.3965 99.4338 37.0665V35.2665C99.4338 34.9365 99.7038 34.6665 100.034 34.6665H116.774C117.104 34.6665 117.374 34.9365 117.374 35.2665ZM138.98 35.2665V37.0665C138.98 37.3965 138.71 37.6665 138.38 37.6665H124.64C124.31 37.6665 124.04 37.9365 124.04 38.2665V43.0665C124.04 43.3965 124.31 43.6665 124.64 43.6665H135.44C135.77 43.6665 136.04 43.9365 136.04 44.2665V46.0665C136.04 46.3965 135.77 46.6665 135.44 46.6665H124.64C124.31 46.6665 124.04 46.9365 124.04 47.2665V52.0665C124.04 52.3965 124.31 52.6665 124.64 52.6665H138.38C138.71 52.6665 138.98 52.9365 138.98 53.2665V55.0665C138.98 55.3965 138.71 55.6665 138.38 55.6665H121.64C121.31 55.6665 121.04 55.3965 121.04 55.0665V35.2665C121.04 34.9365 121.31 34.6665 121.64 34.6665H138.38C138.71 34.6665 138.98 34.9365 138.98 35.2665ZM163.586 35.2665V55.0665C163.586 55.3965 163.316 55.6665 162.986 55.6665H161.186C160.856 55.6665 160.586 55.3965 160.586 55.0665V39.6465C160.586 39.3765 160.286 39.2265 160.076 39.4065L154.496 44.9865C154.406 45.1065 154.226 45.1665 154.076 45.1665H152.156C152.006 45.1665 151.856 45.1065 151.736 44.9865L146.156 39.4065C145.976 39.2265 145.646 39.3765 145.646 39.6465V55.0665C145.646 55.3965 145.376 55.6665 145.046 55.6665H143.246C142.916 55.6665 142.646 55.3965 142.646 55.0665V35.2665C142.646 34.9365 142.916 34.6665 143.246 34.6665H145.406C145.556 34.6665 145.706 34.7265 145.826 34.8465L152.906 41.9265C153.026 42.0465 153.206 42.0465 153.326 41.9265L160.436 34.8465C160.526 34.7265 160.676 34.6665 160.856 34.6665H162.986C163.316 34.6665 163.586 34.9365 163.586 35.2665ZM105.375 70.6665C105.045 70.6665 104.775 70.9365 104.775 71.2665V85.0665C104.775 85.3965 105.045 85.6665 105.375 85.6665H119.115C119.445 85.6665 119.715 85.9365 119.715 86.2665V88.0665C119.715 88.3965 119.445 88.6665 119.115 88.6665H105.375C103.395 88.6665 101.775 87.0465 101.775 85.0665V71.2665C101.775 69.2865 103.395 67.6665 105.375 67.6665H119.115C119.445 67.6665 119.715 67.9365 119.715 68.2665V70.0665C119.715 70.3965 119.445 70.6665 119.115 70.6665H105.375ZM138.381 76.0665V71.2665C138.381 70.9365 138.111 70.6665 137.781 70.6665H126.981C126.651 70.6665 126.381 70.9365 126.381 71.2665V76.0665C126.381 76.3965 126.651 76.6665 126.981 76.6665H137.781C138.111 76.6665 138.381 76.3965 138.381 76.0665ZM141.381 71.2665V88.0665C141.381 88.3965 141.111 88.6665 140.781 88.6665H138.981C138.651 88.6665 138.381 88.3965 138.381 88.0665V80.2665C138.381 79.9365 138.111 79.6665 137.781 79.6665H126.981C126.651 79.6665 126.381 79.9365 126.381 80.2665V88.0665C126.381 88.3965 126.111 88.6665 125.781 88.6665H123.981C123.651 88.6665 123.381 88.3965 123.381 88.0665V71.2665C123.381 69.2865 125.001 67.6665 126.981 67.6665H137.781C139.761 67.6665 141.381 69.2865 141.381 71.2665ZM162.927 68.2665V70.0665C162.927 70.3965 162.657 70.6665 162.327 70.6665H156.057C155.727 70.6665 155.457 70.9365 155.457 71.2665V88.0665C155.457 88.3965 155.187 88.6665 154.857 88.6665H153.057C152.727 88.6665 152.457 88.3965 152.457 88.0665V71.2665C152.457 70.9365 152.187 70.6665 151.857 70.6665H145.587C145.257 70.6665 144.987 70.3965 144.987 70.0665V68.2665C144.987 67.9365 145.257 67.6665 145.587 67.6665H162.327C162.657 67.6665 162.927 67.9365 162.927 68.2665ZM145.558 109.067V104.267C145.558 103.937 145.288 103.667 144.958 103.667H134.158C133.828 103.667 133.558 103.937 133.558 104.267V118.067C133.558 118.397 133.828 118.667 134.158 118.667H144.958C145.288 118.667 145.558 118.397 145.558 118.067V113.267C145.558 112.937 145.288 112.667 144.958 112.667H138.658C138.328 112.667 138.058 112.397 138.058 112.067V110.267C138.058 109.937 138.328 109.667 138.658 109.667H144.958C145.288 109.667 145.558 109.397 145.558 109.067ZM148.558 104.267V109.067C148.558 109.847 148.318 110.567 147.868 111.167C148.318 111.767 148.558 112.487 148.558 113.267V118.067C148.558 120.047 146.938 121.667 144.958 121.667H131.158C130.828 121.667 130.558 121.397 130.558 121.067V101.267C130.558 100.937 130.828 100.667 131.158 100.667H144.958C146.938 100.667 148.558 102.287 148.558 104.267ZM152.163 101.267C152.163 100.937 152.433 100.667 152.763 100.667H154.563C154.893 100.667 155.163 100.937 155.163 101.267V118.067C155.163 118.397 155.433 118.667 155.763 118.667H163.563C163.893 118.667 164.163 118.937 164.163 119.267V121.067C164.163 121.397 163.893 121.667 163.563 121.667H152.763C152.433 121.667 152.163 121.397 152.163 121.067V101.267ZM182.763 118.067V104.267C182.763 103.937 182.493 103.667 182.163 103.667H171.363C171.033 103.667 170.763 103.937 170.763 104.267V118.067C170.763 118.397 171.033 118.667 171.363 118.667H182.163C182.493 118.667 182.763 118.397 182.763 118.067ZM182.163 100.667C184.143 100.667 185.763 102.287 185.763 104.267V118.067C185.763 120.047 184.143 121.667 182.163 121.667H171.363C169.383 121.667 167.763 120.047 167.763 118.067V104.267C167.763 102.287 169.383 100.667 171.363 100.667H182.163ZM192.969 103.667C192.639 103.667 192.369 103.937 192.369 104.267V118.067C192.369 118.397 192.639 118.667 192.969 118.667H206.709C207.039 118.667 207.309 118.937 207.309 119.267V121.067C207.309 121.397 207.039 121.667 206.709 121.667H192.969C190.989 121.667 189.369 120.047 189.369 118.067V104.267C189.369 102.287 190.989 100.667 192.969 100.667H206.709C207.039 100.667 207.309 100.937 207.309 101.267V103.067C207.309 103.397 207.039 103.667 206.709 103.667H192.969ZM228.315 109.697C228.645 109.697 228.915 109.967 228.915 110.297V121.067C228.915 121.397 228.645 121.667 228.315 121.667H226.575C226.245 121.667 225.975 121.397 225.975 121.067V113.237C225.975 112.907 225.705 112.637 225.375 112.637H214.515C214.185 112.637 213.915 112.907 213.915 113.237V121.067C213.915 121.397 213.645 121.667 213.315 121.667H211.575C211.245 121.667 210.975 121.397 210.975 121.067V101.267C210.975 100.937 211.245 100.667 211.575 100.667H213.315C213.645 100.667 213.915 100.937 213.915 101.267V109.097C213.915 109.427 214.185 109.697 214.515 109.697H222.435C222.765 109.697 223.035 109.427 223.035 109.097V101.267C223.035 100.937 223.275 100.667 223.635 100.667H225.375C225.705 100.667 225.975 100.937 225.975 101.267V109.097C225.975 109.427 226.245 109.697 226.575 109.697H228.315ZM246.981 103.607H236.121C235.791 103.607 235.521 103.877 235.521 104.207V109.097C235.521 109.427 235.791 109.697 236.121 109.697H246.921C248.931 109.697 250.521 111.317 250.521 113.297V118.067C250.521 120.047 248.931 121.667 246.921 121.667H233.181C232.851 121.667 232.581 121.397 232.581 121.067V119.327C232.581 118.997 232.851 118.727 233.181 118.727H246.981C247.311 118.727 247.581 118.457 247.581 118.127V113.237C247.581 112.907 247.311 112.637 246.981 112.637H236.181C234.201 112.637 232.581 111.017 232.581 109.037V104.267C232.581 102.287 234.201 100.667 236.181 100.667H246.981C247.311 100.667 247.581 100.937 247.581 101.267V103.007C247.581 103.337 247.311 103.607 246.981 103.607Z"/>
</mask>
<path d="M49.0162 36.1065H38.1562V39.1065H49.0162V36.1065ZM38.1562 36.1065C36.9978 36.1065 36.0562 37.0481 36.0562 38.2065H39.0562C39.0562 38.7049 38.6546 39.1065 38.1562 39.1065V36.1065ZM36.0562 38.2065V43.0965H39.0562V38.2065H36.0562ZM36.0562 43.0965C36.0562 44.2549 36.9978 45.1965 38.1562 45.1965V42.1965C38.6546 42.1965 39.0562 42.5981 39.0562 43.0965H36.0562ZM38.1562 45.1965H48.9562V42.1965H38.1562V45.1965ZM48.9562 45.1965C50.1296 45.1965 51.0562 46.1368 51.0562 47.2965H54.0562C54.0562 44.4962 51.8028 42.1965 48.9562 42.1965V45.1965ZM51.0562 47.2965V52.0665H54.0562V47.2965H51.0562ZM51.0562 52.0665C51.0562 53.2262 50.1296 54.1665 48.9562 54.1665V57.1665C51.8028 57.1665 54.0562 54.8668 54.0562 52.0665H51.0562ZM48.9562 54.1665H35.2162V57.1665H48.9562V54.1665ZM35.2162 54.1665C35.7146 54.1665 36.1162 54.5681 36.1162 55.0665H33.1162C33.1162 56.2249 34.0578 57.1665 35.2162 57.1665V54.1665ZM36.1162 55.0665V53.3265H33.1162V55.0665H36.1162ZM36.1162 53.3265C36.1162 53.8249 35.7146 54.2265 35.2162 54.2265V51.2265C34.0578 51.2265 33.1162 52.1681 33.1162 53.3265H36.1162ZM35.2162 54.2265H49.0162V51.2265H35.2162V54.2265ZM49.0162 54.2265C50.1746 54.2265 51.1162 53.2849 51.1162 52.1265H48.1162C48.1162 51.6281 48.5178 51.2265 49.0162 51.2265V54.2265ZM51.1162 52.1265V47.2365H48.1162V52.1265H51.1162ZM51.1162 47.2365C51.1162 46.0781 50.1746 45.1365 49.0162 45.1365V48.1365C48.5178 48.1365 48.1162 47.7349 48.1162 47.2365H51.1162ZM49.0162 45.1365H38.2162V48.1365H49.0162V45.1365ZM38.2162 45.1365C37.0646 45.1365 36.1162 44.1881 36.1162 43.0365H33.1162C33.1162 45.8449 35.4078 48.1365 38.2162 48.1365V45.1365ZM36.1162 43.0365V38.2665H33.1162V43.0365H36.1162ZM36.1162 38.2665C36.1162 37.1149 37.0646 36.1665 38.2162 36.1665V33.1665C35.4078 33.1665 33.1162 35.4581 33.1162 38.2665H36.1162ZM38.2162 36.1665H49.0162V33.1665H38.2162V36.1665ZM49.0162 36.1665C48.5178 36.1665 48.1162 35.7649 48.1162 35.2665H51.1162C51.1162 34.1081 50.1746 33.1665 49.0162 33.1665V36.1665ZM48.1162 35.2665V37.0065H51.1162V35.2665H48.1162ZM48.1162 37.0065C48.1162 36.5081 48.5178 36.1065 49.0162 36.1065V39.1065C50.1746 39.1065 51.1162 38.1649 51.1162 37.0065H48.1162ZM57.7221 43.0665V35.2665H54.7221V43.0665H57.7221ZM57.7221 35.2665C57.7221 35.7649 57.3205 36.1665 56.8221 36.1665V33.1665C55.6636 33.1665 54.7221 34.1081 54.7221 35.2665H57.7221ZM56.8221 36.1665H58.6221V33.1665H56.8221V36.1665ZM58.6221 36.1665C58.1236 36.1665 57.7221 35.7649 57.7221 35.2665H60.7221C60.7221 34.1081 59.7805 33.1665 58.6221 33.1665V36.1665ZM57.7221 35.2665V43.0665H60.7221V35.2665H57.7221ZM57.7221 43.0665C57.7221 44.2249 58.6636 45.1665 59.8221 45.1665V42.1665C60.3205 42.1665 60.7221 42.5681 60.7221 43.0665H57.7221ZM59.8221 45.1665H70.6221V42.1665H59.8221V45.1665ZM70.6221 45.1665C71.7805 45.1665 72.7221 44.2249 72.7221 43.0665H69.7221C69.7221 42.5681 70.1236 42.1665 70.6221 42.1665V45.1665ZM72.7221 43.0665V35.2665H69.7221V43.0665H72.7221ZM72.7221 35.2665C72.7221 35.7649 72.3205 36.1665 71.8221 36.1665V33.1665C70.6636 33.1665 69.7221 34.1081 69.7221 35.2665H72.7221ZM71.8221 36.1665H73.6221V33.1665H71.8221V36.1665ZM73.6221 36.1665C73.1236 36.1665 72.7221 35.7649 72.7221 35.2665H75.7221C75.7221 34.1081 74.7805 33.1665 73.6221 33.1665V36.1665ZM72.7221 35.2665V52.0665H75.7221V35.2665H72.7221ZM72.7221 52.0665C72.7221 53.2181 71.7736 54.1665 70.6221 54.1665V57.1665C73.4305 57.1665 75.7221 54.8749 75.7221 52.0665H72.7221ZM70.6221 54.1665H59.8221V57.1665H70.6221V54.1665ZM59.8221 54.1665C60.3205 54.1665 60.7221 54.5681 60.7221 55.0665H57.7221C57.7221 56.2249 58.6636 57.1665 59.8221 57.1665V54.1665ZM60.7221 55.0665V53.2665H57.7221V55.0665H60.7221ZM60.7221 53.2665C60.7221 53.7649 60.3205 54.1665 59.8221 54.1665V51.1665C58.6636 51.1665 57.7221 52.1081 57.7221 53.2665H60.7221ZM59.8221 54.1665H70.6221V51.1665H59.8221V54.1665ZM70.6221 54.1665C71.7805 54.1665 72.7221 53.2249 72.7221 52.0665H69.7221C69.7221 51.5681 70.1236 51.1665 70.6221 51.1665V54.1665ZM72.7221 52.0665V47.2665H69.7221V52.0665H72.7221ZM72.7221 47.2665C72.7221 46.1081 71.7805 45.1665 70.6221 45.1665V48.1665C70.1236 48.1665 69.7221 47.7649 69.7221 47.2665H72.7221ZM70.6221 45.1665H59.8221V48.1665H70.6221V45.1665ZM59.8221 45.1665C58.6705 45.1665 57.7221 44.2181 57.7221 43.0665H54.7221C54.7221 45.8749 57.0136 48.1665 59.8221 48.1665V45.1665ZM92.2279 36.1065H81.3679V39.1065H92.2279V36.1065ZM81.3679 36.1065C80.2095 36.1065 79.2679 37.0481 79.2679 38.2065H82.2679C82.2679 38.7049 81.8664 39.1065 81.3679 39.1065V36.1065ZM79.2679 38.2065V43.0965H82.2679V38.2065H79.2679ZM79.2679 43.0965C79.2679 44.2549 80.2095 45.1965 81.3679 45.1965V42.1965C81.8664 42.1965 82.2679 42.5981 82.2679 43.0965H79.2679ZM81.3679 45.1965H92.1679V42.1965H81.3679V45.1965ZM92.1679 45.1965C93.3414 45.1965 94.2679 46.1368 94.2679 47.2965H97.2679C97.2679 44.4962 95.0145 42.1965 92.1679 42.1965V45.1965ZM94.2679 47.2965V52.0665H97.2679V47.2965H94.2679ZM94.2679 52.0665C94.2679 53.2262 93.3414 54.1665 92.1679 54.1665V57.1665C95.0145 57.1665 97.2679 54.8668 97.2679 52.0665H94.2679ZM92.1679 54.1665H78.4279V57.1665H92.1679V54.1665ZM78.4279 54.1665C78.9264 54.1665 79.3279 54.5681 79.3279 55.0665H76.3279C76.3279 56.2249 77.2695 57.1665 78.4279 57.1665V54.1665ZM79.3279 55.0665V53.3265H76.3279V55.0665H79.3279ZM79.3279 53.3265C79.3279 53.8249 78.9264 54.2265 78.4279 54.2265V51.2265C77.2695 51.2265 76.3279 52.1681 76.3279 53.3265H79.3279ZM78.4279 54.2265H92.2279V51.2265H78.4279V54.2265ZM92.2279 54.2265C93.3864 54.2265 94.3279 53.2849 94.3279 52.1265H91.3279C91.3279 51.6281 91.7295 51.2265 92.2279 51.2265V54.2265ZM94.3279 52.1265V47.2365H91.3279V52.1265H94.3279ZM94.3279 47.2365C94.3279 46.0781 93.3864 45.1365 92.2279 45.1365V48.1365C91.7295 48.1365 91.3279 47.7349 91.3279 47.2365H94.3279ZM92.2279 45.1365H81.4279V48.1365H92.2279V45.1365ZM81.4279 45.1365C80.2764 45.1365 79.3279 44.1881 79.3279 43.0365H76.3279C76.3279 45.8449 78.6195 48.1365 81.4279 48.1365V45.1365ZM79.3279 43.0365V38.2665H76.3279V43.0365H79.3279ZM79.3279 38.2665C79.3279 37.1149 80.2764 36.1665 81.4279 36.1665V33.1665C78.6195 33.1665 76.3279 35.4581 76.3279 38.2665H79.3279ZM81.4279 36.1665H92.2279V33.1665H81.4279V36.1665ZM92.2279 36.1665C91.7295 36.1665 91.3279 35.7649 91.3279 35.2665H94.3279C94.3279 34.1081 93.3864 33.1665 92.2279 33.1665V36.1665ZM91.3279 35.2665V37.0065H94.3279V35.2665H91.3279ZM91.3279 37.0065C91.3279 36.5081 91.7295 36.1065 92.2279 36.1065V39.1065C93.3864 39.1065 94.3279 38.1649 94.3279 37.0065H91.3279ZM115.874 35.2665V37.0665H118.874V35.2665H115.874ZM115.874 37.0665C115.874 36.5681 116.275 36.1665 116.774 36.1665V39.1665C117.932 39.1665 118.874 38.2249 118.874 37.0665H115.874ZM116.774 36.1665H110.504V39.1665H116.774V36.1665ZM110.504 36.1665C109.345 36.1665 108.404 37.1081 108.404 38.2665H111.404C111.404 38.7649 111.002 39.1665 110.504 39.1665V36.1665ZM108.404 38.2665V55.0665H111.404V38.2665H108.404ZM108.404 55.0665C108.404 54.5681 108.805 54.1665 109.304 54.1665V57.1665C110.462 57.1665 111.404 56.2249 111.404 55.0665H108.404ZM109.304 54.1665H107.504V57.1665H109.304V54.1665ZM107.504 54.1665C108.002 54.1665 108.404 54.5681 108.404 55.0665H105.404C105.404 56.2249 106.345 57.1665 107.504 57.1665V54.1665ZM108.404 55.0665V38.2665H105.404V55.0665H108.404ZM108.404 38.2665C108.404 37.1081 107.462 36.1665 106.304 36.1665V39.1665C105.805 39.1665 105.404 38.7649 105.404 38.2665H108.404ZM106.304 36.1665H100.034V39.1665H106.304V36.1665ZM100.034 36.1665C100.532 36.1665 100.934 36.5681 100.934 37.0665H97.9338C97.9338 38.2249 98.8754 39.1665 100.034 39.1665V36.1665ZM100.934 37.0665V35.2665H97.9338V37.0665H100.934ZM100.934 35.2665C100.934 35.7649 100.532 36.1665 100.034 36.1665V33.1665C98.8754 33.1665 97.9338 34.1081 97.9338 35.2665H100.934ZM100.034 36.1665H116.774V33.1665H100.034V36.1665ZM116.774 36.1665C116.275 36.1665 115.874 35.7649 115.874 35.2665H118.874C118.874 34.1081 117.932 33.1665 116.774 33.1665V36.1665ZM137.48 35.2665V37.0665H140.48V35.2665H137.48ZM137.48 37.0665C137.48 36.5681 137.881 36.1665 138.38 36.1665V39.1665C139.538 39.1665 140.48 38.2249 140.48 37.0665H137.48ZM138.38 36.1665H124.64V39.1665H138.38V36.1665ZM124.64 36.1665C123.481 36.1665 122.54 37.1081 122.54 38.2665H125.54C125.54 38.7649 125.138 39.1665 124.64 39.1665V36.1665ZM122.54 38.2665V43.0665H125.54V38.2665H122.54ZM122.54 43.0665C122.54 44.2249 123.481 45.1665 124.64 45.1665V42.1665C125.138 42.1665 125.54 42.5681 125.54 43.0665H122.54ZM124.64 45.1665H135.44V42.1665H124.64V45.1665ZM135.44 45.1665C134.941 45.1665 134.54 44.7649 134.54 44.2665H137.54C137.54 43.1081 136.598 42.1665 135.44 42.1665V45.1665ZM134.54 44.2665V46.0665H137.54V44.2665H134.54ZM134.54 46.0665C134.54 45.5681 134.941 45.1665 135.44 45.1665V48.1665C136.598 48.1665 137.54 47.2249 137.54 46.0665H134.54ZM135.44 45.1665H124.64V48.1665H135.44V45.1665ZM124.64 45.1665C123.481 45.1665 122.54 46.1081 122.54 47.2665H125.54C125.54 47.7649 125.138 48.1665 124.64 48.1665V45.1665ZM122.54 47.2665V52.0665H125.54V47.2665H122.54ZM122.54 52.0665C122.54 53.2249 123.481 54.1665 124.64 54.1665V51.1665C125.138 51.1665 125.54 51.5681 125.54 52.0665H122.54ZM124.64 54.1665H138.38V51.1665H124.64V54.1665ZM138.38 54.1665C137.881 54.1665 137.48 53.7649 137.48 53.2665H140.48C140.48 52.1081 139.538 51.1665 138.38 51.1665V54.1665ZM137.48 53.2665V55.0665H140.48V53.2665H137.48ZM137.48 55.0665C137.48 54.5681 137.881 54.1665 138.38 54.1665V57.1665C139.538 57.1665 140.48 56.2249 140.48 55.0665H137.48ZM138.38 54.1665H121.64V57.1665H138.38V54.1665ZM121.64 54.1665C122.138 54.1665 122.54 54.5681 122.54 55.0665H119.54C119.54 56.2249 120.481 57.1665 121.64 57.1665V54.1665ZM122.54 55.0665V35.2665H119.54V55.0665H122.54ZM122.54 35.2665C122.54 35.7649 122.138 36.1665 121.64 36.1665V33.1665C120.481 33.1665 119.54 34.1081 119.54 35.2665H122.54ZM121.64 36.1665H138.38V33.1665H121.64V36.1665ZM138.38 36.1665C137.881 36.1665 137.48 35.7649 137.48 35.2665H140.48C140.48 34.1081 139.538 33.1665 138.38 33.1665V36.1665ZM160.076 39.4065L159.099 38.2676L159.056 38.3051L159.015 38.3458L160.076 39.4065ZM154.496 44.9865L153.435 43.9258L153.359 44.0012L153.296 44.0865L154.496 44.9865ZM151.736 44.9865L150.675 46.0472L150.675 46.0472L151.736 44.9865ZM146.156 39.4065L147.216 38.3458L147.216 38.3458L146.156 39.4065ZM145.826 34.8465L144.765 35.9072L144.765 35.9072L145.826 34.8465ZM152.906 41.9265L153.966 40.8658L153.966 40.8658L152.906 41.9265ZM153.326 41.9265L152.267 40.8636L152.265 40.8658L153.326 41.9265ZM160.436 34.8465L161.494 35.9094L161.571 35.8331L161.636 35.7465L160.436 34.8465ZM162.086 35.2665V55.0665H165.086V35.2665H162.086ZM162.086 55.0665C162.086 54.5681 162.487 54.1665 162.986 54.1665V57.1665C164.144 57.1665 165.086 56.2249 165.086 55.0665H162.086ZM162.986 54.1665H161.186V57.1665H162.986V54.1665ZM161.186 54.1665C161.684 54.1665 162.086 54.5681 162.086 55.0665H159.086C159.086 56.2249 160.027 57.1665 161.186 57.1665V54.1665ZM162.086 55.0665V39.6465H159.086V55.0665H162.086ZM162.086 39.6465C162.086 38.1797 160.346 37.1989 159.099 38.2676L161.052 40.5454C160.689 40.8561 160.175 40.9098 159.759 40.7093C159.355 40.5152 159.086 40.104 159.086 39.6465H162.086ZM159.015 38.3458L153.435 43.9258L155.556 46.0472L161.136 40.4672L159.015 38.3458ZM153.296 44.0865C153.461 43.8658 153.651 43.7686 153.751 43.7288C153.857 43.6864 153.964 43.6665 154.076 43.6665V46.6665C154.496 46.6665 155.22 46.5204 155.696 45.8865L153.296 44.0865ZM154.076 43.6665H152.156V46.6665H154.076V43.6665ZM152.156 43.6665C152.416 43.6665 152.644 43.7735 152.796 43.9258L150.675 46.0472C151.067 46.4395 151.595 46.6665 152.156 46.6665V43.6665ZM152.796 43.9258L147.216 38.3458L145.095 40.4672L150.675 46.0472L152.796 43.9258ZM147.216 38.3458C146.596 37.7258 145.761 37.7376 145.201 37.9972C144.64 38.258 144.146 38.8514 144.146 39.6465H147.146C147.146 40.1716 146.816 40.555 146.465 40.7183C146.116 40.8804 145.535 40.9072 145.095 40.4672L147.216 38.3458ZM144.146 39.6465V55.0665H147.146V39.6465H144.146ZM144.146 55.0665C144.146 54.5681 144.547 54.1665 145.046 54.1665V57.1665C146.204 57.1665 147.146 56.2249 147.146 55.0665H144.146ZM145.046 54.1665H143.246V57.1665H145.046V54.1665ZM143.246 54.1665C143.744 54.1665 144.146 54.5681 144.146 55.0665H141.146C141.146 56.2249 142.087 57.1665 143.246 57.1665V54.1665ZM144.146 55.0665V35.2665H141.146V55.0665H144.146ZM144.146 35.2665C144.146 35.7649 143.744 36.1665 143.246 36.1665V33.1665C142.087 33.1665 141.146 34.1081 141.146 35.2665H144.146ZM143.246 36.1665H145.406V33.1665H143.246V36.1665ZM145.406 36.1665C145.145 36.1665 144.917 36.0595 144.765 35.9072L146.886 33.7858C146.494 33.3935 145.966 33.1665 145.406 33.1665V36.1665ZM144.765 35.9072L151.845 42.9872L153.966 40.8658L146.886 33.7858L144.765 35.9072ZM151.845 42.9872C152.551 43.6929 153.68 43.693 154.386 42.9872L152.265 40.8658C152.477 40.6535 152.78 40.5165 153.116 40.5165C153.451 40.5165 153.754 40.6535 153.966 40.8658L151.845 42.9872ZM154.384 42.9894L161.494 35.9094L159.377 33.7836L152.267 40.8636L154.384 42.9894ZM161.636 35.7465C161.361 36.113 160.993 36.1665 160.856 36.1665V33.1665C160.358 33.1665 159.69 33.34 159.236 33.9465L161.636 35.7465ZM160.856 36.1665H162.986V33.1665H160.856V36.1665ZM162.986 36.1665C162.487 36.1665 162.086 35.7649 162.086 35.2665H165.086C165.086 34.1081 164.144 33.1665 162.986 33.1665V36.1665ZM105.375 69.1665C104.217 69.1665 103.275 70.1081 103.275 71.2665H106.275C106.275 71.7649 105.874 72.1665 105.375 72.1665V69.1665ZM103.275 71.2665V85.0665H106.275V71.2665H103.275ZM103.275 85.0665C103.275 86.2249 104.217 87.1665 105.375 87.1665V84.1665C105.874 84.1665 106.275 84.5681 106.275 85.0665H103.275ZM105.375 87.1665H119.115V84.1665H105.375V87.1665ZM119.115 87.1665C118.617 87.1665 118.215 86.7649 118.215 86.2665H121.215C121.215 85.1081 120.274 84.1665 119.115 84.1665V87.1665ZM118.215 86.2665V88.0665H121.215V86.2665H118.215ZM118.215 88.0665C118.215 87.5681 118.617 87.1665 119.115 87.1665V90.1665C120.274 90.1665 121.215 89.2249 121.215 88.0665H118.215ZM119.115 87.1665H105.375V90.1665H119.115V87.1665ZM105.375 87.1665C104.224 87.1665 103.275 86.2181 103.275 85.0665H100.275C100.275 87.8749 102.567 90.1665 105.375 90.1665V87.1665ZM103.275 85.0665V71.2665H100.275V85.0665H103.275ZM103.275 71.2665C103.275 70.1149 104.224 69.1665 105.375 69.1665V66.1665C102.567 66.1665 100.275 68.4581 100.275 71.2665H103.275ZM105.375 69.1665H119.115V66.1665H105.375V69.1665ZM119.115 69.1665C118.617 69.1665 118.215 68.7649 118.215 68.2665H121.215C121.215 67.1081 120.274 66.1665 119.115 66.1665V69.1665ZM118.215 68.2665V70.0665H121.215V68.2665H118.215ZM118.215 70.0665C118.215 69.5681 118.617 69.1665 119.115 69.1665V72.1665C120.274 72.1665 121.215 71.2249 121.215 70.0665H118.215ZM119.115 69.1665H105.375V72.1665H119.115V69.1665ZM139.881 76.0665V71.2665H136.881V76.0665H139.881ZM139.881 71.2665C139.881 70.1081 138.939 69.1665 137.781 69.1665V72.1665C137.283 72.1665 136.881 71.7649 136.881 71.2665H139.881ZM137.781 69.1665H126.981V72.1665H137.781V69.1665ZM126.981 69.1665C125.823 69.1665 124.881 70.1081 124.881 71.2665H127.881C127.881 71.7649 127.479 72.1665 126.981 72.1665V69.1665ZM124.881 71.2665V76.0665H127.881V71.2665H124.881ZM124.881 76.0665C124.881 77.2249 125.823 78.1665 126.981 78.1665V75.1665C127.479 75.1665 127.881 75.5681 127.881 76.0665H124.881ZM126.981 78.1665H137.781V75.1665H126.981V78.1665ZM137.781 78.1665C138.939 78.1665 139.881 77.2249 139.881 76.0665H136.881C136.881 75.5681 137.283 75.1665 137.781 75.1665V78.1665ZM139.881 71.2665V88.0665H142.881V71.2665H139.881ZM139.881 88.0665C139.881 87.5681 140.283 87.1665 140.781 87.1665V90.1665C141.939 90.1665 142.881 89.2249 142.881 88.0665H139.881ZM140.781 87.1665H138.981V90.1665H140.781V87.1665ZM138.981 87.1665C139.479 87.1665 139.881 87.5681 139.881 88.0665H136.881C136.881 89.2249 137.823 90.1665 138.981 90.1665V87.1665ZM139.881 88.0665V80.2665H136.881V88.0665H139.881ZM139.881 80.2665C139.881 79.1081 138.939 78.1665 137.781 78.1665V81.1665C137.283 81.1665 136.881 80.7649 136.881 80.2665H139.881ZM137.781 78.1665H126.981V81.1665H137.781V78.1665ZM126.981 78.1665C125.823 78.1665 124.881 79.1081 124.881 80.2665H127.881C127.881 80.7649 127.479 81.1665 126.981 81.1665V78.1665ZM124.881 80.2665V88.0665H127.881V80.2665H124.881ZM124.881 88.0665C124.881 87.5681 125.283 87.1665 125.781 87.1665V90.1665C126.939 90.1665 127.881 89.2249 127.881 88.0665H124.881ZM125.781 87.1665H123.981V90.1665H125.781V87.1665ZM123.981 87.1665C124.479 87.1665 124.881 87.5681 124.881 88.0665H121.881C121.881 89.2249 122.823 90.1665 123.981 90.1665V87.1665ZM124.881 88.0665V71.2665H121.881V88.0665H124.881ZM124.881 71.2665C124.881 70.1149 125.829 69.1665 126.981 69.1665V66.1665C124.173 66.1665 121.881 68.4581 121.881 71.2665H124.881ZM126.981 69.1665H137.781V66.1665H126.981V69.1665ZM137.781 69.1665C138.933 69.1665 139.881 70.1149 139.881 71.2665H142.881C142.881 68.4581 140.589 66.1665 137.781 66.1665V69.1665ZM161.427 68.2665V70.0665H164.427V68.2665H161.427ZM161.427 70.0665C161.427 69.5681 161.828 69.1665 162.327 69.1665V72.1665C163.485 72.1665 164.427 71.2249 164.427 70.0665H161.427ZM162.327 69.1665H156.057V72.1665H162.327V69.1665ZM156.057 69.1665C154.898 69.1665 153.957 70.1081 153.957 71.2665H156.957C156.957 71.7649 156.555 72.1665 156.057 72.1665V69.1665ZM153.957 71.2665V88.0665H156.957V71.2665H153.957ZM153.957 88.0665C153.957 87.5681 154.358 87.1665 154.857 87.1665V90.1665C156.015 90.1665 156.957 89.2249 156.957 88.0665H153.957ZM154.857 87.1665H153.057V90.1665H154.857V87.1665ZM153.057 87.1665C153.555 87.1665 153.957 87.5681 153.957 88.0665H150.957C150.957 89.2249 151.898 90.1665 153.057 90.1665V87.1665ZM153.957 88.0665V71.2665H150.957V88.0665H153.957ZM153.957 71.2665C153.957 70.1081 153.015 69.1665 151.857 69.1665V72.1665C151.358 72.1665 150.957 71.7649 150.957 71.2665H153.957ZM151.857 69.1665H145.587V72.1665H151.857V69.1665ZM145.587 69.1665C146.085 69.1665 146.487 69.5681 146.487 70.0665H143.487C143.487 71.2249 144.428 72.1665 145.587 72.1665V69.1665ZM146.487 70.0665V68.2665H143.487V70.0665H146.487ZM146.487 68.2665C146.487 68.7649 146.085 69.1665 145.587 69.1665V66.1665C144.428 66.1665 143.487 67.1081 143.487 68.2665H146.487ZM145.587 69.1665H162.327V66.1665H145.587V69.1665ZM162.327 69.1665C161.828 69.1665 161.427 68.7649 161.427 68.2665H164.427C164.427 67.1081 163.485 66.1665 162.327 66.1665V69.1665ZM147.868 111.167L146.668 110.267L145.993 111.167L146.668 112.067L147.868 111.167ZM147.058 109.067V104.267H144.058V109.067H147.058ZM147.058 104.267C147.058 103.108 146.116 102.167 144.958 102.167V105.167C144.459 105.167 144.058 104.765 144.058 104.267H147.058ZM144.958 102.167H134.158V105.167H144.958V102.167ZM134.158 102.167C132.999 102.167 132.058 103.108 132.058 104.267H135.058C135.058 104.765 134.656 105.167 134.158 105.167V102.167ZM132.058 104.267V118.067H135.058V104.267H132.058ZM132.058 118.067C132.058 119.225 132.999 120.167 134.158 120.167V117.167C134.656 117.167 135.058 117.568 135.058 118.067H132.058ZM134.158 120.167H144.958V117.167H134.158V120.167ZM144.958 120.167C146.116 120.167 147.058 119.225 147.058 118.067H144.058C144.058 117.568 144.459 117.167 144.958 117.167V120.167ZM147.058 118.067V113.267H144.058V118.067H147.058ZM147.058 113.267C147.058 112.108 146.116 111.167 144.958 111.167V114.167C144.459 114.167 144.058 113.765 144.058 113.267H147.058ZM144.958 111.167H138.658V114.167H144.958V111.167ZM138.658 111.167C139.156 111.167 139.558 111.568 139.558 112.067H136.558C136.558 113.225 137.499 114.167 138.658 114.167V111.167ZM139.558 112.067V110.267H136.558V112.067H139.558ZM139.558 110.267C139.558 110.765 139.156 111.167 138.658 111.167V108.167C137.499 108.167 136.558 109.108 136.558 110.267H139.558ZM138.658 111.167H144.958V108.167H138.658V111.167ZM144.958 111.167C146.116 111.167 147.058 110.225 147.058 109.067H144.058C144.058 108.568 144.459 108.167 144.958 108.167V111.167ZM147.058 104.267V109.067H150.058V104.267H147.058ZM147.058 109.067C147.058 109.529 146.919 109.932 146.668 110.267L149.068 112.067C149.716 111.201 150.058 110.164 150.058 109.067H147.058ZM146.668 112.067C146.919 112.401 147.058 112.804 147.058 113.267H150.058C150.058 112.169 149.716 111.132 149.068 110.267L146.668 112.067ZM147.058 113.267V118.067H150.058V113.267H147.058ZM147.058 118.067C147.058 119.218 146.109 120.167 144.958 120.167V123.167C147.766 123.167 150.058 120.875 150.058 118.067H147.058ZM144.958 120.167H131.158V123.167H144.958V120.167ZM131.158 120.167C131.656 120.167 132.058 120.568 132.058 121.067H129.058C129.058 122.225 129.999 123.167 131.158 123.167V120.167ZM132.058 121.067V101.267H129.058V121.067H132.058ZM132.058 101.267C132.058 101.765 131.656 102.167 131.158 102.167V99.1665C129.999 99.1665 129.058 100.108 129.058 101.267H132.058ZM131.158 102.167H144.958V99.1665H131.158V102.167ZM144.958 102.167C146.109 102.167 147.058 103.115 147.058 104.267H150.058C150.058 101.458 147.766 99.1665 144.958 99.1665V102.167ZM153.663 101.267C153.663 101.765 153.262 102.167 152.763 102.167V99.1665C151.605 99.1665 150.663 100.108 150.663 101.267H153.663ZM152.763 102.167H154.563V99.1665H152.763V102.167ZM154.563 102.167C154.065 102.167 153.663 101.765 153.663 101.267H156.663C156.663 100.108 155.722 99.1665 154.563 99.1665V102.167ZM153.663 101.267V118.067H156.663V101.267H153.663ZM153.663 118.067C153.663 119.225 154.605 120.167 155.763 120.167V117.167C156.262 117.167 156.663 117.568 156.663 118.067H153.663ZM155.763 120.167H163.563V117.167H155.763V120.167ZM163.563 120.167C163.065 120.167 162.663 119.765 162.663 119.267H165.663C165.663 118.108 164.722 117.167 163.563 117.167V120.167ZM162.663 119.267V121.067H165.663V119.267H162.663ZM162.663 121.067C162.663 120.568 163.065 120.167 163.563 120.167V123.167C164.722 123.167 165.663 122.225 165.663 121.067H162.663ZM163.563 120.167H152.763V123.167H163.563V120.167ZM152.763 120.167C153.262 120.167 153.663 120.568 153.663 121.067H150.663C150.663 122.225 151.605 123.167 152.763 123.167V120.167ZM153.663 121.067V101.267H150.663V121.067H153.663ZM184.263 118.067V104.267H181.263V118.067H184.263ZM184.263 104.267C184.263 103.108 183.322 102.167 182.163 102.167V105.167C181.665 105.167 181.263 104.765 181.263 104.267H184.263ZM182.163 102.167H171.363V105.167H182.163V102.167ZM171.363 102.167C170.205 102.167 169.263 103.108 169.263 104.267H172.263C172.263 104.765 171.862 105.167 171.363 105.167V102.167ZM169.263 104.267V118.067H172.263V104.267H169.263ZM169.263 118.067C169.263 119.225 170.205 120.167 171.363 120.167V117.167C171.862 117.167 172.263 117.568 172.263 118.067H169.263ZM171.363 120.167H182.163V117.167H171.363V120.167ZM182.163 120.167C183.322 120.167 184.263 119.225 184.263 118.067H181.263C181.263 117.568 181.665 117.167 182.163 117.167V120.167ZM182.163 102.167C183.315 102.167 184.263 103.115 184.263 104.267H187.263C187.263 101.458 184.972 99.1665 182.163 99.1665V102.167ZM184.263 104.267V118.067H187.263V104.267H184.263ZM184.263 118.067C184.263 119.218 183.315 120.167 182.163 120.167V123.167C184.972 123.167 187.263 120.875 187.263 118.067H184.263ZM182.163 120.167H171.363V123.167H182.163V120.167ZM171.363 120.167C170.212 120.167 169.263 119.218 169.263 118.067H166.263C166.263 120.875 168.555 123.167 171.363 123.167V120.167ZM169.263 118.067V104.267H166.263V118.067H169.263ZM169.263 104.267C169.263 103.115 170.212 102.167 171.363 102.167V99.1665C168.555 99.1665 166.263 101.458 166.263 104.267H169.263ZM171.363 102.167H182.163V99.1665H171.363V102.167ZM192.969 102.167C191.811 102.167 190.869 103.108 190.869 104.267H193.869C193.869 104.765 193.468 105.167 192.969 105.167V102.167ZM190.869 104.267V118.067H193.869V104.267H190.869ZM190.869 118.067C190.869 119.225 191.811 120.167 192.969 120.167V117.167C193.468 117.167 193.869 117.568 193.869 118.067H190.869ZM192.969 120.167H206.709V117.167H192.969V120.167ZM206.709 120.167C206.211 120.167 205.809 119.765 205.809 119.267H208.809C208.809 118.108 207.868 117.167 206.709 117.167V120.167ZM205.809 119.267V121.067H208.809V119.267H205.809ZM205.809 121.067C205.809 120.568 206.211 120.167 206.709 120.167V123.167C207.868 123.167 208.809 122.225 208.809 121.067H205.809ZM206.709 120.167H192.969V123.167H206.709V120.167ZM192.969 120.167C191.818 120.167 190.869 119.218 190.869 118.067H187.869C187.869 120.875 190.161 123.167 192.969 123.167V120.167ZM190.869 118.067V104.267H187.869V118.067H190.869ZM190.869 104.267C190.869 103.115 191.818 102.167 192.969 102.167V99.1665C190.161 99.1665 187.869 101.458 187.869 104.267H190.869ZM192.969 102.167H206.709V99.1665H192.969V102.167ZM206.709 102.167C206.211 102.167 205.809 101.765 205.809 101.267H208.809C208.809 100.108 207.868 99.1665 206.709 99.1665V102.167ZM205.809 101.267V103.067H208.809V101.267H205.809ZM205.809 103.067C205.809 102.568 206.211 102.167 206.709 102.167V105.167C207.868 105.167 208.809 104.225 208.809 103.067H205.809ZM206.709 102.167H192.969V105.167H206.709V102.167ZM228.315 111.197C227.817 111.197 227.415 110.795 227.415 110.297H230.415C230.415 109.138 229.474 108.197 228.315 108.197V111.197ZM227.415 110.297V121.067H230.415V110.297H227.415ZM227.415 121.067C227.415 120.568 227.817 120.167 228.315 120.167V123.167C229.474 123.167 230.415 122.225 230.415 121.067H227.415ZM228.315 120.167H226.575V123.167H228.315V120.167ZM226.575 120.167C227.074 120.167 227.475 120.568 227.475 121.067H224.475C224.475 122.225 225.417 123.167 226.575 123.167V120.167ZM227.475 121.067V113.237H224.475V121.067H227.475ZM227.475 113.237C227.475 112.078 226.534 111.137 225.375 111.137V114.137C224.877 114.137 224.475 113.735 224.475 113.237H227.475ZM225.375 111.137H214.515V114.137H225.375V111.137ZM214.515 111.137C213.357 111.137 212.415 112.078 212.415 113.237H215.415C215.415 113.735 215.014 114.137 214.515 114.137V111.137ZM212.415 113.237V121.067H215.415V113.237H212.415ZM212.415 121.067C212.415 120.568 212.817 120.167 213.315 120.167V123.167C214.474 123.167 215.415 122.225 215.415 121.067H212.415ZM213.315 120.167H211.575V123.167H213.315V120.167ZM211.575 120.167C212.074 120.167 212.475 120.568 212.475 121.067H209.475C209.475 122.225 210.417 123.167 211.575 123.167V120.167ZM212.475 121.067V101.267H209.475V121.067H212.475ZM212.475 101.267C212.475 101.765 212.074 102.167 211.575 102.167V99.1665C210.417 99.1665 209.475 100.108 209.475 101.267H212.475ZM211.575 102.167H213.315V99.1665H211.575V102.167ZM213.315 102.167C212.817 102.167 212.415 101.765 212.415 101.267H215.415C215.415 100.108 214.474 99.1665 213.315 99.1665V102.167ZM212.415 101.267V109.097H215.415V101.267H212.415ZM212.415 109.097C212.415 110.255 213.357 111.197 214.515 111.197V108.197C215.014 108.197 215.415 108.598 215.415 109.097H212.415ZM214.515 111.197H222.435V108.197H214.515V111.197ZM222.435 111.197C223.594 111.197 224.535 110.255 224.535 109.097H221.535C221.535 108.598 221.937 108.197 222.435 108.197V111.197ZM224.535 109.097V101.267H221.535V109.097H224.535ZM224.535 101.267C224.535 101.468 224.459 101.698 224.279 101.885C224.092 102.079 223.848 102.167 223.635 102.167V99.1665C222.398 99.1665 221.535 100.158 221.535 101.267H224.535ZM223.635 102.167H225.375V99.1665H223.635V102.167ZM225.375 102.167C224.877 102.167 224.475 101.765 224.475 101.267H227.475C227.475 100.108 226.534 99.1665 225.375 99.1665V102.167ZM224.475 101.267V109.097H227.475V101.267H224.475ZM224.475 109.097C224.475 110.255 225.417 111.197 226.575 111.197V108.197C227.074 108.197 227.475 108.598 227.475 109.097H224.475ZM226.575 111.197H228.315V108.197H226.575V111.197ZM246.981 102.107H236.121V105.107H246.981V102.107ZM236.121 102.107C234.963 102.107 234.021 103.048 234.021 104.207H237.021C237.021 104.705 236.619 105.107 236.121 105.107V102.107ZM234.021 104.207V109.097H237.021V104.207H234.021ZM234.021 109.097C234.021 110.255 234.963 111.197 236.121 111.197V108.197C236.619 108.197 237.021 108.598 237.021 109.097H234.021ZM236.121 111.197H246.921V108.197H236.121V111.197ZM246.921 111.197C248.094 111.197 249.021 112.137 249.021 113.297H252.021C252.021 110.496 249.768 108.197 246.921 108.197V111.197ZM249.021 113.297V118.067H252.021V113.297H249.021ZM249.021 118.067C249.021 119.226 248.094 120.167 246.921 120.167V123.167C249.768 123.167 252.021 120.867 252.021 118.067H249.021ZM246.921 120.167H233.181V123.167H246.921V120.167ZM233.181 120.167C233.679 120.167 234.081 120.568 234.081 121.067H231.081C231.081 122.225 232.023 123.167 233.181 123.167V120.167ZM234.081 121.067V119.327H231.081V121.067H234.081ZM234.081 119.327C234.081 119.825 233.679 120.227 233.181 120.227V117.227C232.023 117.227 231.081 118.168 231.081 119.327H234.081ZM233.181 120.227H246.981V117.227H233.181V120.227ZM246.981 120.227C248.139 120.227 249.081 119.285 249.081 118.127H246.081C246.081 117.628 246.483 117.227 246.981 117.227V120.227ZM249.081 118.127V113.237H246.081V118.127H249.081ZM249.081 113.237C249.081 112.078 248.139 111.137 246.981 111.137V114.137C246.483 114.137 246.081 113.735 246.081 113.237H249.081ZM246.981 111.137H236.181V114.137H246.981V111.137ZM236.181 111.137C235.029 111.137 234.081 110.188 234.081 109.037H231.081C231.081 111.845 233.373 114.137 236.181 114.137V111.137ZM234.081 109.037V104.267H231.081V109.037H234.081ZM234.081 104.267C234.081 103.115 235.029 102.167 236.181 102.167V99.1665C233.373 99.1665 231.081 101.458 231.081 104.267H234.081ZM236.181 102.167H246.981V99.1665H236.181V102.167ZM246.981 102.167C246.483 102.167 246.081 101.765 246.081 101.267H249.081C249.081 100.108 248.139 99.1665 246.981 99.1665V102.167ZM246.081 101.267V103.007H249.081V101.267H246.081ZM246.081 103.007C246.081 102.508 246.483 102.107 246.981 102.107V105.107C248.139 105.107 249.081 104.165 249.081 103.007H246.081Z" fill="white" style="mix-blend-mode:hard-light" mask="url(#path-1-inside-1_1843_37)"/>
</g>
<g filter="url(#filter1_dd_1843_37)">
<path d="M25 36.8V27H40.0253" stroke="#B2085A" stroke-width="3"/>
</g>
<g filter="url(#filter2_dd_1843_37)">
<path d="M263 119.105V132H247.975" stroke="#B2085A" stroke-width="3"/>
</g>
<defs>
<filter id="filter0_dd_1843_37" x="0.324039" y="0.374332" width="284.489" height="155.584" filterUnits="userSpaceOnUse" color-interpolation-filters="sRGB">
<feFlood flood-opacity="0" result="BackgroundImageFix"/>
<feColorMatrix in="SourceAlpha" type="matrix" values="0 0 0 0 0 0 0 0 0 0 0 0 0 0 0 0 0 0 127 0" result="hardAlpha"/>
<feOffset/>
<feGaussianBlur stdDeviation="4.89888"/>
<feColorMatrix type="matrix" values="0 0 0 0 0.52549 0 0 0 0 0.254902 0 0 0 0 0.372549 0 0 0 1 0"/>
<feBlend mode="normal" in2="BackgroundImageFix" result="effect1_dropShadow_1843_37"/>
<feColorMatrix in="SourceAlpha" type="matrix" values="0 0 0 0 0 0 0 0 0 0 0 0 0 0 0 0 0 0 127 0" result="hardAlpha"/>
<feOffset/>
<feGaussianBlur stdDeviation="17.1461"/>
<feColorMatrix type="matrix" values="0 0 0 0 0.52549 0 0 0 0 0.254902 0 0 0 0 0.372549 0 0 0 1 0"/>
<feBlend mode="normal" in2="effect1_dropShadow_1843_37" result="effect2_dropShadow_1843_37"/>
<feBlend mode="normal" in="SourceGraphic" in2="effect2_dropShadow_1843_37" result="shape"/>
</filter>
<filter id="filter1_dd_1843_37" x="9.87689" y="11.8769" width="43.7716" height="38.546" filterUnits="userSpaceOnUse" color-interpolation-filters="sRGB">
<feFlood flood-opacity="0" result="BackgroundImageFix"/>
<feColorMatrix in="SourceAlpha" type="matrix" values="0 0 0 0 0 0 0 0 0 0 0 0 0 0 0 0 0 0 127 0" result="hardAlpha"/>
<feOffset/>
<feGaussianBlur stdDeviation="1.94616"/>
<feColorMatrix type="matrix" values="0 0 0 0 0.784314 0 0 0 0 0.372549 0 0 0 0 0.592157 0 0 0 1 0"/>
<feBlend mode="normal" in2="BackgroundImageFix" result="effect1_dropShadow_1843_37"/>
<feColorMatrix in="SourceAlpha" type="matrix" values="0 0 0 0 0 0 0 0 0 0 0 0 0 0 0 0 0 0 127 0" result="hardAlpha"/>
<feOffset/>
<feGaussianBlur stdDeviation="6.81156"/>
<feColorMatrix type="matrix" values="0 0 0 0 0.784314 0 0 0 0 0.372549 0 0 0 0 0.592157 0 0 0 1 0"/>
<feBlend mode="normal" in2="effect1_dropShadow_1843_37" result="effect2_dropShadow_1843_37"/>
<feBlend mode="normal" in="SourceGraphic" in2="effect2_dropShadow_1843_37" result="shape"/>
</filter>
<filter id="filter2_dd_1843_37" x="234.351" y="105.482" width="43.7716" height="41.6408" filterUnits="userSpaceOnUse" color-interpolation-filters="sRGB">
<feFlood flood-opacity="0" result="BackgroundImageFix"/>
<feColorMatrix in="SourceAlpha" type="matrix" values="0 0 0 0 0 0 0 0 0 0 0 0 0 0 0 0 0 0 127 0" result="hardAlpha"/>
<feOffset/>
<feGaussianBlur stdDeviation="1.94616"/>
<feColorMatrix type="matrix" values="0 0 0 0 0.784314 0 0 0 0 0.372549 0 0 0 0 0.592157 0 0 0 1 0"/>
<feBlend mode="normal" in2="BackgroundImageFix" result="effect1_dropShadow_1843_37"/>
<feColorMatrix in="SourceAlpha" type="matrix" values="0 0 0 0 0 0 0 0 0 0 0 0 0 0 0 0 0 0 127 0" result="hardAlpha"/>
<feOffset/>
<feGaussianBlur stdDeviation="6.81156"/>
<feColorMatrix type="matrix" values="0 0 0 0 0.784314 0 0 0 0 0.372549 0 0 0 0 0.592157 0 0 0 1 0"/>
<feBlend mode="normal" in2="effect1_dropShadow_1843_37" result="effect2_dropShadow_1843_37"/>
<feBlend mode="normal" in="SourceGraphic" in2="effect2_dropShadow_1843_37" result="shape"/>
</filter>
</defs>
</svg>
