<svg width="25" height="25" viewBox="0 0 25 25" fill="none" xmlns="http://www.w3.org/2000/svg">
<g clip-path="url(#clip0_1464_634)">
<path d="M13.75 11.9125V5C13.75 3.67392 13.2232 2.40215 12.2855 1.46447C11.3479 0.526784 10.0761 0 8.75 0C7.42392 0 6.15215 0.526784 5.21447 1.46447C4.27679 2.40215 3.75 3.67392 3.75 5V11.9125C2.61785 12.9251 1.81985 14.2576 1.4616 15.7337C1.10334 17.2098 1.20172 18.7599 1.74371 20.1788C2.2857 21.5978 3.24576 22.8187 4.49684 23.6801C5.74792 24.5415 7.23106 25.0027 8.75 25.0027C10.2689 25.0027 11.7521 24.5415 13.0032 23.6801C14.2542 22.8187 15.2143 21.5978 15.7563 20.1788C16.2983 18.7599 16.3967 17.2098 16.0384 15.7337C15.6802 14.2576 14.8822 12.9251 13.75 11.9125ZM8.75 23.75C7.46221 23.7505 6.20571 23.3532 5.15232 22.6124C4.09894 21.8716 3.3001 20.8234 2.86507 19.6114C2.43003 18.3993 2.38003 17.0824 2.7219 15.8408C3.06377 14.5992 3.78083 13.4936 4.775 12.675L5 12.5V5C5 4.00544 5.39509 3.05161 6.09835 2.34835C6.80161 1.64509 7.75544 1.25 8.75 1.25C9.74456 1.25 10.6984 1.64509 11.4017 2.34835C12.1049 3.05161 12.5 4.00544 12.5 5V12.5L12.725 12.6875C13.7143 13.5073 14.427 14.612 14.7659 15.8514C15.1048 17.0907 15.0535 18.4043 14.6191 19.6135C14.1846 20.8226 13.388 21.8685 12.3378 22.6087C11.2876 23.3488 10.0348 23.7474 8.75 23.75Z" fill="#9B6195"/>
<path d="M10 15.35V6.25C10 5.91848 9.8683 5.60054 9.63388 5.36612C9.39946 5.1317 9.08152 5 8.75 5C8.41848 5 8.10054 5.1317 7.86612 5.36612C7.6317 5.60054 7.5 5.91848 7.5 6.25V15.35C7.0234 15.6252 6.65091 16.0499 6.4403 16.5584C6.2297 17.0668 6.19275 17.6305 6.33519 18.1621C6.47762 18.6937 6.79149 19.1634 7.2281 19.4984C7.66471 19.8335 8.19967 20.0151 8.75 20.0151C9.30034 20.0151 9.83529 19.8335 10.2719 19.4984C10.7085 19.1634 11.0224 18.6937 11.1648 18.1621C11.3073 17.6305 11.2703 17.0668 11.0597 16.5584C10.8491 16.0499 10.4766 15.6252 10 15.35Z" fill="#9B6195"/>
<path d="M22.5 2.5H17.5V3.75H22.5V2.5Z" fill="#9B6195"/>
<path d="M23.75 6.25H17.5V7.5H23.75V6.25Z" fill="#9B6195"/>
<path d="M22.5 10H17.5V11.25H22.5V10Z" fill="#9B6195"/>
</g>
<defs>
<clipPath id="clip0_1464_634">
<rect width="25" height="25" fill="white"/>
</clipPath>
</defs>
</svg>
