<svg width="25" height="25" viewBox="0 0 25 25" fill="none" xmlns="http://www.w3.org/2000/svg">
<g clip-path="url(#clip0_1464_605)">
<path d="M25 17.5H22.5V18.75H25V17.5Z" fill="#9B6195"/>
<path d="M25 13.75H22.5V15H25V13.75Z" fill="#9B6195"/>
<path d="M25 10H22.5V11.25H25V10Z" fill="#9B6195"/>
<path d="M25 6.25H22.5V7.5H25V6.25Z" fill="#9B6195"/>
<path d="M2.5 17.5H0V18.75H2.5V17.5Z" fill="#9B6195"/>
<path d="M2.5 13.75H0V15H2.5V13.75Z" fill="#9B6195"/>
<path d="M2.5 10H0V11.25H2.5V10Z" fill="#9B6195"/>
<path d="M2.5 6.25H0V7.5H2.5V6.25Z" fill="#9B6195"/>
<path d="M7.5 22.5H6.25V25H7.5V22.5Z" fill="#9B6195"/>
<path d="M11.25 22.5H10V25H11.25V22.5Z" fill="#9B6195"/>
<path d="M15 22.5H13.75V25H15V22.5Z" fill="#9B6195"/>
<path d="M18.75 22.5H17.5V25H18.75V22.5Z" fill="#9B6195"/>
<path d="M7.5 0H6.25V2.5H7.5V0Z" fill="#9B6195"/>
<path d="M11.25 0H10V2.5H11.25V0Z" fill="#9B6195"/>
<path d="M15 0H13.75V2.5H15V0Z" fill="#9B6195"/>
<path d="M18.75 0H17.5V2.5H18.75V0Z" fill="#9B6195"/>
<path d="M3.75 21.25H21.25V3.75H3.75V21.25ZM5 5H20V20H5V5Z" fill="#9B6195"/>
<path d="M7.5 17.5H17.5V7.5H7.5V17.5ZM8.75 8.75H16.25V16.25H8.75V8.75Z" fill="#9B6195"/>
</g>
<defs>
<clipPath id="clip0_1464_605">
<rect width="25" height="25" fill="white"/>
</clipPath>
</defs>
</svg>
