<svg width="25" height="25" viewBox="0 0 25 25" fill="none" xmlns="http://www.w3.org/2000/svg">
<path d="M2.5 5V3.75H0V5H1.25V20H2.5V18.75H25V5H2.5ZM23.75 17.5H2.5V6.25H23.75V17.5Z" fill="#00848C"/>
<path d="M18.125 15C18.7431 15 19.3473 14.8167 19.8612 14.4733C20.3751 14.13 20.7756 13.6419 21.0121 13.0709C21.2486 12.4999 21.3105 11.8715 21.19 11.2653C21.0694 10.6592 20.7717 10.1023 20.3347 9.66529C19.8977 9.22825 19.3408 8.93063 18.7347 8.81005C18.1285 8.68947 17.5001 8.75135 16.9291 8.98788C16.3581 9.2244 15.87 9.62494 15.5267 10.1388C15.1833 10.6527 15 11.2569 15 11.875C15.0033 12.7028 15.3336 13.4957 15.9189 14.0811C16.5043 14.6664 17.2972 14.9967 18.125 15ZM18.125 10C18.4958 10 18.8584 10.11 19.1667 10.316C19.475 10.522 19.7154 10.8149 19.8573 11.1575C19.9992 11.5001 20.0363 11.8771 19.964 12.2408C19.8916 12.6045 19.713 12.9386 19.4508 13.2008C19.1886 13.4631 18.8545 13.6416 18.4908 13.714C18.1271 13.7863 17.7501 13.7492 17.4075 13.6073C17.0649 13.4654 16.772 13.225 16.566 12.9167C16.36 12.6084 16.25 12.2458 16.25 11.875C16.25 11.3777 16.4475 10.9008 16.7992 10.5492C17.1508 10.1975 17.6277 10 18.125 10Z" fill="#00848C"/>
<path d="M13.75 21.25H5V22.5H13.75V21.25Z" fill="#00848C"/>
<path d="M6.25 8.75H5V15H6.25V8.75Z" fill="#00848C"/>
<path d="M11.25 8.75H10V15H11.25V8.75Z" fill="#00848C"/>
</svg>
