<svg width="20" height="20" viewBox="0 0 20 20" fill="none" xmlns="http://www.w3.org/2000/svg">
<path d="M2 0V20H18V0H2ZM17 19H3V1H17V19Z" fill="#9B6195"/>
<path d="M15 16H13V17H15V16Z" fill="#9B6195"/>
<path d="M10 16H5V17H10V16Z" fill="#9B6195"/>
<path d="M10 14C11.1867 14 12.3467 13.6481 13.3334 12.9888C14.3201 12.3295 15.0892 11.3925 15.5433 10.2961C15.9974 9.19975 16.1162 7.99335 15.8847 6.82946C15.6532 5.66558 15.0818 4.59648 14.2426 3.75736C13.4035 2.91825 12.3344 2.3468 11.1705 2.11529C10.0067 1.88378 8.80026 2.0026 7.7039 2.45673C6.60754 2.91085 5.67047 3.67989 5.01118 4.66658C4.35189 5.65328 4 6.81331 4 8C4 9.5913 4.63214 11.1174 5.75736 12.2426C6.88258 13.3679 8.4087 14 10 14ZM10 3C10.9889 3 11.9556 3.29325 12.7779 3.84265C13.6001 4.39206 14.241 5.17296 14.6194 6.08659C14.9978 7.00022 15.0969 8.00555 14.9039 8.97545C14.711 9.94536 14.2348 10.8363 13.5355 11.5355C12.8363 12.2348 11.9454 12.711 10.9755 12.9039C10.0055 13.0969 9.00021 12.9978 8.08658 12.6194C7.17295 12.241 6.39206 11.6001 5.84265 10.7779C5.29324 9.95561 5 8.98891 5 8C5 6.67392 5.52678 5.40215 6.46447 4.46447C7.40215 3.52679 8.67392 3 10 3Z" fill="#9B6195"/>
<path d="M10 10C10.3956 10 10.7822 9.8827 11.1111 9.66294C11.44 9.44318 11.6964 9.13082 11.8478 8.76537C11.9991 8.39992 12.0387 7.99778 11.9616 7.60982C11.8844 7.22186 11.6939 6.86549 11.4142 6.58579C11.1345 6.30608 10.7781 6.1156 10.3902 6.03843C10.0022 5.96126 9.60009 6.00087 9.23463 6.15224C8.86918 6.30362 8.55682 6.55996 8.33706 6.88886C8.1173 7.21776 8 7.60444 8 8C8 8.53043 8.21071 9.03914 8.58579 9.41421C8.96086 9.78929 9.46957 10 10 10ZM10 7C10.1978 7 10.3911 7.05865 10.5556 7.16853C10.72 7.27841 10.8482 7.43459 10.9239 7.61732C10.9996 7.80004 11.0194 8.00111 10.9808 8.19509C10.9422 8.38907 10.847 8.56726 10.7071 8.70711C10.5673 8.84696 10.3891 8.9422 10.1951 8.98079C10.0011 9.01937 9.80004 8.99957 9.61732 8.92388C9.43459 8.84819 9.27841 8.72002 9.16853 8.55557C9.05865 8.39112 9 8.19778 9 8C9 7.73478 9.10536 7.48043 9.29289 7.29289C9.48043 7.10536 9.73478 7 10 7Z" fill="#9B6195"/>
</svg>
