<svg width="25" height="25" viewBox="0 0 25 25" fill="none" xmlns="http://www.w3.org/2000/svg">
<g clip-path="url(#clip0_1464_657)">
<path d="M25 5H17.5V0H16.25V5H8.75V0H7.5V5H0V6.25H2.5V16.5C2.5033 18.0903 3.1365 19.6145 4.26101 20.739C5.38551 21.8635 6.90972 22.4967 8.5 22.5H11.25V25H13.75V22.5H16.5C18.0903 22.4967 19.6145 21.8635 20.739 20.739C21.8635 19.6145 22.4967 18.0903 22.5 16.5V6.25H25V5ZM21.25 16.5C21.2467 17.7588 20.7452 18.965 19.8551 19.8551C18.965 20.7452 17.7588 21.2467 16.5 21.25H8.5C7.24124 21.2467 6.03497 20.7452 5.14489 19.8551C4.2548 18.965 3.7533 17.7588 3.75 16.5V6.25H21.25V16.5Z" fill="#00848C"/>
<path d="M14.7501 8.7L13.7126 8L9.6001 14.175H13.0626L10.2501 18.4L11.2876 19.1L15.4001 12.925H11.9376L14.7501 8.7Z" fill="#00848C"/>
</g>
<defs>
<clipPath id="clip0_1464_657">
<rect width="25" height="25" fill="white"/>
</clipPath>
</defs>
</svg>
