<svg width="25" height="25" viewBox="0 0 25 25" fill="none" xmlns="http://www.w3.org/2000/svg">
<path d="M2.5 0V25H22.5V0H2.5ZM3.75 1.25H6.25V3.75H7.5V1.25H10V3.75H11.25V1.25H13.75V3.75H15V1.25H17.5V3.75H18.75V1.25H21.25V6.25H3.75V1.25ZM21.25 23.75H3.75V7.5H21.25V23.75Z" fill="#9B6195"/>
<path d="M11.25 11.25H7.5V12.5H11.25V11.25Z" fill="#9B6195"/>
<path d="M11.25 15H7.5V16.25H11.25V15Z" fill="#9B6195"/>
<path d="M11.25 18.75H7.5V20H11.25V18.75Z" fill="#9B6195"/>
<path d="M17.5 11.25H13.75V12.5H17.5V11.25Z" fill="#9B6195"/>
<path d="M17.5 15H13.75V16.25H17.5V15Z" fill="#9B6195"/>
<path d="M17.5 18.75H13.75V20H17.5V18.75Z" fill="#9B6195"/>
</svg>
