<svg width="41" height="41" viewBox="0 0 41 41" fill="none" xmlns="http://www.w3.org/2000/svg">
<rect width="5.95863" height="26.691" transform="matrix(0.776721 0.629845 -0.649853 0.76006 29.9819 7.23657)" fill="#00848C"/>
<path d="M34.7354 1.62603C35.0943 1.20626 35.733 1.14796 36.162 1.49581L39.2367 3.98914C39.6657 4.33699 39.7225 4.95927 39.3636 5.37904L35.1953 10.2542L30.5671 6.50119L34.7354 1.62603Z" fill="#00848C"/>
<path d="M16.8382 32.0584L12.21 28.3054L9.86191 35.3493C9.80542 35.5187 9.98931 35.6678 10.1502 35.583L16.8382 32.0584Z" fill="#00848C"/>
<path fill-rule="evenodd" clip-rule="evenodd" d="M27.0067 5.70242L2.01805 5.79711C0.913491 5.80129 0.0214595 6.70011 0.0256452 7.80467L0.143857 38.9998C0.148042 40.1044 1.04686 40.9964 2.15142 40.9922L34.2896 40.8704C35.3942 40.8663 36.2862 39.9674 36.282 38.8629L36.1884 14.1628L34.196 16.1791L34.282 38.8705L2.14384 38.9922L2.02563 7.79709L25.2911 7.70893L27.0067 5.70242Z" fill="#00848C"/>
</svg>
