<svg width="41" height="41" viewBox="0 0 41 41" fill="none" xmlns="http://www.w3.org/2000/svg">
<rect width="5.95863" height="26.691" transform="matrix(0.776721 0.629845 -0.649853 0.76006 29.9819 6.38818)" fill="#00848C"/>
<path d="M34.7354 0.777637C35.0943 0.357868 35.733 0.299569 36.162 0.647423L39.2367 3.14075C39.6657 3.4886 39.7225 4.11088 39.3636 4.53065L35.1953 9.40581L30.5671 5.6528L34.7354 0.777637Z" fill="#00848C"/>
<path d="M16.8382 31.21L12.21 27.457L9.86191 34.5009C9.80542 34.6703 9.98931 34.8194 10.1502 34.7346L16.8382 31.21Z" fill="#00848C"/>
<path fill-rule="evenodd" clip-rule="evenodd" d="M27.0067 4.85403L2.01805 4.94872C0.913491 4.95291 0.0214595 5.85172 0.0256452 6.95628L0.143857 38.1514C0.148042 39.256 1.04686 40.148 2.15142 40.1438L34.2896 40.0221C35.3942 40.0179 36.2862 39.1191 36.282 38.0145L36.1884 13.3144L34.196 15.3307L34.282 38.0221L2.14384 38.1439L2.02563 6.94871L25.2911 6.86054L27.0067 4.85403Z" fill="#00848C"/>
</svg>
