<svg width="46" height="38" viewBox="0 0 46 38" fill="none" xmlns="http://www.w3.org/2000/svg">
<path d="M27.7514 10.9399C27.9814 10.9799 28.2114 10.9999 28.4414 10.9999C29.4714 10.9999 30.4714 10.5999 31.3314 9.83992C32.3214 8.96992 33.0014 7.70992 33.2514 6.29992C33.5014 4.88993 33.2914 3.46993 32.6514 2.30993C31.9814 1.07993 30.9114 0.279925 29.6514 0.0599252C28.3914 -0.160075 27.1214 0.229925 26.0714 1.15992C25.0814 2.02992 24.4014 3.28992 24.1514 4.69992C23.6214 7.69992 25.2314 10.4999 27.7414 10.9399H27.7514ZM26.1314 5.04992C26.3014 4.07992 26.7514 3.22992 27.4014 2.65992C27.8914 2.22992 28.4414 1.99992 28.9814 1.99992C29.0914 1.99992 29.2014 1.99992 29.3114 2.02992C29.9614 2.13992 30.5214 2.58993 30.9014 3.26993C31.3214 4.02993 31.4514 4.97992 31.2814 5.94992C31.1114 6.91992 30.6614 7.76992 30.0114 8.33992C29.4214 8.85992 28.7414 9.07992 28.0914 8.96992C26.6714 8.71992 25.7814 6.95992 26.1214 5.04992H26.1314ZM42.3414 6.69992C41.1214 6.28992 39.7914 6.47993 38.5914 7.24993C37.4714 7.96993 36.5914 9.12993 36.1314 10.4999C35.6714 11.8699 35.6614 13.3199 36.1314 14.5799C36.6214 15.9099 37.5614 16.8699 38.7814 17.2899C39.2014 17.4299 39.6214 17.4999 40.0414 17.4999C42.1114 17.4999 44.1714 15.9099 44.9814 13.4899C45.9614 10.5699 44.7814 7.52992 42.3414 6.70992V6.69992ZM43.0814 12.8399C42.4514 14.7099 40.8014 15.8499 39.4114 15.3799C38.7814 15.1699 38.2814 14.6399 38.0014 13.8799C37.7014 13.0499 37.7114 12.0699 38.0314 11.1299C38.3514 10.1799 38.9314 9.39992 39.6814 8.91992C40.1314 8.62992 40.6114 8.47993 41.0714 8.47993C41.2914 8.47993 41.5014 8.50993 41.7114 8.57993C43.1014 9.04993 43.7214 10.9599 43.0914 12.8299L43.0814 12.8399ZM14.0114 9.84992C14.8714 10.6099 15.8814 11.0099 16.9014 11.0099C17.1314 11.0099 17.3614 10.9899 17.5914 10.9499C20.1014 10.5099 21.7114 7.70992 21.1814 4.70992C20.9314 3.29992 20.2514 2.03992 19.2614 1.16992C18.2114 0.239925 16.9314 -0.150075 15.6814 0.0699245C14.4214 0.289925 13.3614 1.08992 12.6814 2.31992C12.0514 3.47992 11.8314 4.88993 12.0814 6.30993C12.3314 7.71992 13.0114 8.97992 14.0014 9.84992H14.0114ZM14.4414 3.27992C14.8214 2.58992 15.3814 2.14992 16.0314 2.03992C16.1414 2.01992 16.2514 2.00993 16.3614 2.00993C16.9014 2.00993 17.4514 2.23992 17.9414 2.66992C18.5914 3.23992 19.0414 4.08992 19.2114 5.05993C19.5514 6.96992 18.6614 8.72993 17.2414 8.97993C16.6014 9.09993 15.9114 8.86992 15.3214 8.34992C14.6714 7.77992 14.2214 6.92992 14.0514 5.95992C13.8814 4.98992 14.0214 4.03992 14.4314 3.27992H14.4414Z" fill="#878787"/>
<path d="M6.74126 7.24994C5.55126 6.47994 4.21126 6.28994 2.99126 6.69994C1.77126 7.10994 0.83126 8.06994 0.34126 9.40994C-0.11874 10.6599 -0.10874 12.1099 0.34126 13.4899C0.80126 14.8599 1.68126 16.0199 2.80126 16.7399C3.58126 17.2399 4.43126 17.4999 5.26126 17.4999C5.69126 17.4999 6.13126 17.4299 6.54126 17.2899C8.98126 16.4699 10.1613 13.4299 9.18126 10.5099C8.72126 9.13994 7.84126 7.97994 6.72126 7.25994L6.74126 7.24994ZM5.92126 15.3899C5.29126 15.5999 4.57126 15.4799 3.89126 15.0499C3.15126 14.5699 2.56126 13.7899 2.24126 12.8399C1.92126 11.8899 1.91126 10.9199 2.21126 10.0899C2.48126 9.33994 2.98126 8.80994 3.62126 8.58994C3.83126 8.51994 4.04126 8.48994 4.26126 8.48994C4.72126 8.48994 5.19126 8.63994 5.65126 8.92994C6.39126 9.40994 6.98126 10.1899 7.30126 11.1399C7.93126 13.0099 7.31126 14.9199 5.92126 15.3899ZM33.1313 25.3299C32.1313 24.5099 31.4813 23.6099 31.1713 22.6599C29.8613 18.5699 26.3613 15.7199 22.6613 15.7199C18.9613 15.7199 15.4713 18.5799 14.1513 22.6599C13.8513 23.6099 13.1913 24.5099 12.1913 25.3299C10.4013 26.8199 9.46126 29.0899 9.69126 31.4199C10.0313 34.8999 13.0513 37.6699 16.5513 37.7199C16.5813 37.7199 16.6213 37.7199 16.6513 37.7199C17.2913 37.7199 17.9313 37.6299 18.5513 37.4599C21.2713 36.6899 24.0413 36.6899 26.7613 37.4599C27.4113 37.6399 28.0913 37.7299 28.7613 37.7199C32.2713 37.6699 35.2813 34.8999 35.6213 31.4199C35.8513 29.0999 34.9113 26.8199 33.1213 25.3299H33.1313ZM33.6413 31.2199C33.3913 33.6999 31.2413 35.6799 28.7413 35.7099C28.2413 35.7299 27.7813 35.6499 27.3113 35.5199C24.2713 34.6699 21.0613 34.6699 18.0213 35.5199C17.5613 35.6499 17.0913 35.7199 16.5913 35.7099C14.0913 35.6699 11.9313 33.6999 11.6913 31.2199C11.5313 29.5599 12.1913 27.9299 13.4813 26.8699C14.7713 25.7999 15.6413 24.5899 16.0713 23.2699C17.1213 19.9999 19.8313 17.7099 22.6713 17.7099C25.5113 17.7099 28.2213 19.9899 29.2713 23.2699C29.6913 24.5899 30.5613 25.7999 31.8613 26.8699C33.1413 27.9299 33.8113 29.5599 33.6513 31.2199H33.6413Z" fill="#878787"/>
</svg>
