<svg width="430" height="214" viewBox="0 0 430 214" fill="none" xmlns="http://www.w3.org/2000/svg">
<g filter="url(#filter0_dd_1843_34)">
<mask id="path-1-inside-1_1843_34" fill="white">
<path d="M58.9189 39.3219H40.8189C40.2689 39.3219 39.8189 39.7719 39.8189 40.3219V48.4719C39.8189 49.0219 40.2689 49.4719 40.8189 49.4719H58.8189C62.1689 49.4719 64.8189 52.1719 64.8189 55.4719V63.4219C64.8189 66.7219 62.1689 69.4219 58.8189 69.4219H35.9189C35.3689 69.4219 34.9189 68.9719 34.9189 68.4219V65.5219C34.9189 64.9719 35.3689 64.5219 35.9189 64.5219H58.9189C59.4689 64.5219 59.9189 64.0719 59.9189 63.5219V55.3719C59.9189 54.8219 59.4689 54.3719 58.9189 54.3719H40.9189C37.6189 54.3719 34.9189 51.6719 34.9189 48.3719V40.4219C34.9189 37.1219 37.6189 34.4219 40.9189 34.4219H58.9189C59.4689 34.4219 59.9189 34.8719 59.9189 35.4219V38.3219C59.9189 38.8719 59.4689 39.3219 58.9189 39.3219ZM70.9287 48.4219V35.4219C70.9287 34.8719 71.3787 34.4219 71.9287 34.4219H74.9287C75.4787 34.4219 75.9287 34.8719 75.9287 35.4219V48.4219C75.9287 48.9719 76.3787 49.4219 76.9287 49.4219H94.9287C95.4787 49.4219 95.9287 48.9719 95.9287 48.4219V35.4219C95.9287 34.8719 96.3787 34.4219 96.9287 34.4219H99.9287C100.479 34.4219 100.929 34.8719 100.929 35.4219V63.4219C100.929 66.7219 98.2287 69.4219 94.9287 69.4219H76.9287C76.3787 69.4219 75.9287 68.9719 75.9287 68.4219V65.4219C75.9287 64.8719 76.3787 64.4219 76.9287 64.4219H94.9287C95.4787 64.4219 95.9287 63.9719 95.9287 63.4219V55.4219C95.9287 54.8719 95.4787 54.4219 94.9287 54.4219H76.9287C73.6287 54.4219 70.9287 51.7219 70.9287 48.4219ZM130.938 39.3219H112.838C112.288 39.3219 111.838 39.7719 111.838 40.3219V48.4719C111.838 49.0219 112.288 49.4719 112.838 49.4719H130.838C134.188 49.4719 136.838 52.1719 136.838 55.4719V63.4219C136.838 66.7219 134.188 69.4219 130.838 69.4219H107.938C107.388 69.4219 106.938 68.9719 106.938 68.4219V65.5219C106.938 64.9719 107.388 64.5219 107.938 64.5219H130.938C131.488 64.5219 131.938 64.0719 131.938 63.5219V55.3719C131.938 54.8219 131.488 54.3719 130.938 54.3719H112.938C109.638 54.3719 106.938 51.6719 106.938 48.3719V40.4219C106.938 37.1219 109.638 34.4219 112.938 34.4219H130.938C131.488 34.4219 131.938 34.8719 131.938 35.4219V38.3219C131.938 38.8719 131.488 39.3219 130.938 39.3219ZM172.848 35.4219V38.4219C172.848 38.9719 172.398 39.4219 171.848 39.4219H161.398C160.848 39.4219 160.398 39.8719 160.398 40.4219V68.4219C160.398 68.9719 159.948 69.4219 159.398 69.4219H156.398C155.848 69.4219 155.398 68.9719 155.398 68.4219V40.4219C155.398 39.8719 154.948 39.4219 154.398 39.4219H143.948C143.398 39.4219 142.948 38.9719 142.948 38.4219V35.4219C142.948 34.8719 143.398 34.4219 143.948 34.4219H171.848C172.398 34.4219 172.848 34.8719 172.848 35.4219ZM208.858 35.4219V38.4219C208.858 38.9719 208.408 39.4219 207.858 39.4219H184.958C184.408 39.4219 183.958 39.8719 183.958 40.4219V48.4219C183.958 48.9719 184.408 49.4219 184.958 49.4219H202.958C203.508 49.4219 203.958 49.8719 203.958 50.4219V53.4219C203.958 53.9719 203.508 54.4219 202.958 54.4219H184.958C184.408 54.4219 183.958 54.8719 183.958 55.4219V63.4219C183.958 63.9719 184.408 64.4219 184.958 64.4219H207.858C208.408 64.4219 208.858 64.8719 208.858 65.4219V68.4219C208.858 68.9719 208.408 69.4219 207.858 69.4219H179.958C179.408 69.4219 178.958 68.9719 178.958 68.4219V35.4219C178.958 34.8719 179.408 34.4219 179.958 34.4219H207.858C208.408 34.4219 208.858 34.8719 208.858 35.4219ZM249.868 35.4219V68.4219C249.868 68.9719 249.418 69.4219 248.868 69.4219H245.868C245.318 69.4219 244.868 68.9719 244.868 68.4219V42.7219C244.868 42.2719 244.368 42.0219 244.018 42.3219L234.718 51.6219C234.568 51.8219 234.268 51.9219 234.018 51.9219H230.818C230.568 51.9219 230.318 51.8219 230.118 51.6219L220.818 42.3219C220.518 42.0219 219.968 42.2719 219.968 42.7219V68.4219C219.968 68.9719 219.518 69.4219 218.968 69.4219H215.968C215.418 69.4219 214.968 68.9719 214.968 68.4219V35.4219C214.968 34.8719 215.418 34.4219 215.968 34.4219H219.568C219.818 34.4219 220.068 34.5219 220.268 34.7219L232.068 46.5219C232.268 46.7219 232.568 46.7219 232.768 46.5219L244.618 34.7219C244.768 34.5219 245.018 34.4219 245.318 34.4219H248.868C249.418 34.4219 249.868 34.8719 249.868 35.4219ZM152.851 94.4219C152.301 94.4219 151.851 94.8719 151.851 95.4219V118.422C151.851 118.972 152.301 119.422 152.851 119.422H175.751C176.301 119.422 176.751 119.872 176.751 120.422V123.422C176.751 123.972 176.301 124.422 175.751 124.422H152.851C149.551 124.422 146.851 121.722 146.851 118.422V95.4219C146.851 92.1219 149.551 89.4219 152.851 89.4219H175.751C176.301 89.4219 176.751 89.8719 176.751 90.4219V93.4219C176.751 93.9719 176.301 94.4219 175.751 94.4219H152.851ZM207.86 103.422V95.4219C207.86 94.8719 207.41 94.4219 206.86 94.4219H188.86C188.31 94.4219 187.86 94.8719 187.86 95.4219V103.422C187.86 103.972 188.31 104.422 188.86 104.422H206.86C207.41 104.422 207.86 103.972 207.86 103.422ZM212.86 95.4219V123.422C212.86 123.972 212.41 124.422 211.86 124.422H208.86C208.31 124.422 207.86 123.972 207.86 123.422V110.422C207.86 109.872 207.41 109.422 206.86 109.422H188.86C188.31 109.422 187.86 109.872 187.86 110.422V123.422C187.86 123.972 187.41 124.422 186.86 124.422H183.86C183.31 124.422 182.86 123.972 182.86 123.422V95.4219C182.86 92.1219 185.56 89.4219 188.86 89.4219H206.86C210.16 89.4219 212.86 92.1219 212.86 95.4219ZM248.77 90.4219V93.4219C248.77 93.9719 248.32 94.4219 247.77 94.4219H237.32C236.77 94.4219 236.32 94.8719 236.32 95.4219V123.422C236.32 123.972 235.87 124.422 235.32 124.422H232.32C231.77 124.422 231.32 123.972 231.32 123.422V95.4219C231.32 94.8719 230.87 94.4219 230.32 94.4219H219.87C219.32 94.4219 218.87 93.9719 218.87 93.4219V90.4219C218.87 89.8719 219.32 89.4219 219.87 89.4219H247.77C248.32 89.4219 248.77 89.8719 248.77 90.4219ZM219.821 158.422V150.422C219.821 149.872 219.371 149.422 218.821 149.422H200.821C200.271 149.422 199.821 149.872 199.821 150.422V173.422C199.821 173.972 200.271 174.422 200.821 174.422H218.821C219.371 174.422 219.821 173.972 219.821 173.422V165.422C219.821 164.872 219.371 164.422 218.821 164.422H208.321C207.771 164.422 207.321 163.972 207.321 163.422V160.422C207.321 159.872 207.771 159.422 208.321 159.422H218.821C219.371 159.422 219.821 158.972 219.821 158.422ZM224.821 150.422V158.422C224.821 159.722 224.421 160.922 223.671 161.922C224.421 162.922 224.821 164.122 224.821 165.422V173.422C224.821 176.722 222.121 179.422 218.821 179.422H195.821C195.271 179.422 194.821 178.972 194.821 178.422V145.422C194.821 144.872 195.271 144.422 195.821 144.422H218.821C222.121 144.422 224.821 147.122 224.821 150.422ZM230.831 145.422C230.831 144.872 231.281 144.422 231.831 144.422H234.831C235.381 144.422 235.831 144.872 235.831 145.422V173.422C235.831 173.972 236.281 174.422 236.831 174.422H249.831C250.381 174.422 250.831 174.872 250.831 175.422V178.422C250.831 178.972 250.381 179.422 249.831 179.422H231.831C231.281 179.422 230.831 178.972 230.831 178.422V145.422ZM281.831 173.422V150.422C281.831 149.872 281.381 149.422 280.831 149.422H262.831C262.281 149.422 261.831 149.872 261.831 150.422V173.422C261.831 173.972 262.281 174.422 262.831 174.422H280.831C281.381 174.422 281.831 173.972 281.831 173.422ZM280.831 144.422C284.131 144.422 286.831 147.122 286.831 150.422V173.422C286.831 176.722 284.131 179.422 280.831 179.422H262.831C259.531 179.422 256.831 176.722 256.831 173.422V150.422C256.831 147.122 259.531 144.422 262.831 144.422H280.831ZM298.841 149.422C298.291 149.422 297.841 149.872 297.841 150.422V173.422C297.841 173.972 298.291 174.422 298.841 174.422H321.741C322.291 174.422 322.741 174.872 322.741 175.422V178.422C322.741 178.972 322.291 179.422 321.741 179.422H298.841C295.541 179.422 292.841 176.722 292.841 173.422V150.422C292.841 147.122 295.541 144.422 298.841 144.422H321.741C322.291 144.422 322.741 144.872 322.741 145.422V148.422C322.741 148.972 322.291 149.422 321.741 149.422H298.841ZM357.751 159.472C358.301 159.472 358.751 159.922 358.751 160.472V178.422C358.751 178.972 358.301 179.422 357.751 179.422H354.851C354.301 179.422 353.851 178.972 353.851 178.422V165.372C353.851 164.822 353.401 164.372 352.851 164.372H334.751C334.201 164.372 333.751 164.822 333.751 165.372V178.422C333.751 178.972 333.301 179.422 332.751 179.422H329.851C329.301 179.422 328.851 178.972 328.851 178.422V145.422C328.851 144.872 329.301 144.422 329.851 144.422H332.751C333.301 144.422 333.751 144.872 333.751 145.422V158.472C333.751 159.022 334.201 159.472 334.751 159.472H347.951C348.501 159.472 348.951 159.022 348.951 158.472V145.422C348.951 144.872 349.351 144.422 349.951 144.422H352.851C353.401 144.422 353.851 144.872 353.851 145.422V158.472C353.851 159.022 354.301 159.472 354.851 159.472H357.751ZM388.86 149.322H370.76C370.21 149.322 369.76 149.772 369.76 150.322V158.472C369.76 159.022 370.21 159.472 370.76 159.472H388.76C392.11 159.472 394.76 162.172 394.76 165.472V173.422C394.76 176.722 392.11 179.422 388.76 179.422H365.86C365.31 179.422 364.86 178.972 364.86 178.422V175.522C364.86 174.972 365.31 174.522 365.86 174.522H388.86C389.41 174.522 389.86 174.072 389.86 173.522V165.372C389.86 164.822 389.41 164.372 388.86 164.372H370.86C367.56 164.372 364.86 161.672 364.86 158.372V150.422C364.86 147.122 367.56 144.422 370.86 144.422H388.86C389.41 144.422 389.86 144.872 389.86 145.422V148.322C389.86 148.872 389.41 149.322 388.86 149.322Z"/>
</mask>
<path d="M58.9189 37.8219H40.8189V40.8219H58.9189V37.8219ZM40.8189 37.8219C39.4405 37.8219 38.3189 38.9434 38.3189 40.3219H41.3189C41.3189 40.6003 41.0974 40.8219 40.8189 40.8219V37.8219ZM38.3189 40.3219V48.4719H41.3189V40.3219H38.3189ZM38.3189 48.4719C38.3189 49.8503 39.4405 50.9719 40.8189 50.9719V47.9719C41.0974 47.9719 41.3189 48.1934 41.3189 48.4719H38.3189ZM40.8189 50.9719H58.8189V47.9719H40.8189V50.9719ZM58.8189 50.9719C61.3324 50.9719 63.3189 52.9921 63.3189 55.4719H66.3189C66.3189 51.3516 63.0055 47.9719 58.8189 47.9719V50.9719ZM63.3189 55.4719V63.4219H66.3189V55.4719H63.3189ZM63.3189 63.4219C63.3189 65.9016 61.3324 67.9219 58.8189 67.9219V70.9219C63.0055 70.9219 66.3189 67.5421 66.3189 63.4219H63.3189ZM58.8189 67.9219H35.9189V70.9219H58.8189V67.9219ZM35.9189 67.9219C36.1974 67.9219 36.4189 68.1434 36.4189 68.4219H33.4189C33.4189 69.8003 34.5405 70.9219 35.9189 70.9219V67.9219ZM36.4189 68.4219V65.5219H33.4189V68.4219H36.4189ZM36.4189 65.5219C36.4189 65.8003 36.1974 66.0219 35.9189 66.0219V63.0219C34.5405 63.0219 33.4189 64.1434 33.4189 65.5219H36.4189ZM35.9189 66.0219H58.9189V63.0219H35.9189V66.0219ZM58.9189 66.0219C60.2974 66.0219 61.4189 64.9003 61.4189 63.5219H58.4189C58.4189 63.2435 58.6405 63.0219 58.9189 63.0219V66.0219ZM61.4189 63.5219V55.3719H58.4189V63.5219H61.4189ZM61.4189 55.3719C61.4189 53.9934 60.2974 52.8719 58.9189 52.8719V55.8719C58.6405 55.8719 58.4189 55.6503 58.4189 55.3719H61.4189ZM58.9189 52.8719H40.9189V55.8719H58.9189V52.8719ZM40.9189 52.8719C38.4474 52.8719 36.4189 50.8434 36.4189 48.3719H33.4189C33.4189 52.5003 36.7905 55.8719 40.9189 55.8719V52.8719ZM36.4189 48.3719V40.4219H33.4189V48.3719H36.4189ZM36.4189 40.4219C36.4189 37.9503 38.4474 35.9219 40.9189 35.9219V32.9219C36.7905 32.9219 33.4189 36.2934 33.4189 40.4219H36.4189ZM40.9189 35.9219H58.9189V32.9219H40.9189V35.9219ZM58.9189 35.9219C58.6405 35.9219 58.4189 35.7003 58.4189 35.4219H61.4189C61.4189 34.0435 60.2974 32.9219 58.9189 32.9219V35.9219ZM58.4189 35.4219V38.3219H61.4189V35.4219H58.4189ZM58.4189 38.3219C58.4189 38.0434 58.6405 37.8219 58.9189 37.8219V40.8219C60.2974 40.8219 61.4189 39.7003 61.4189 38.3219H58.4189ZM72.4287 48.4219V35.4219H69.4287V48.4219H72.4287ZM72.4287 35.4219C72.4287 35.7003 72.2071 35.9219 71.9287 35.9219V32.9219C70.5503 32.9219 69.4287 34.0434 69.4287 35.4219H72.4287ZM71.9287 35.9219H74.9287V32.9219H71.9287V35.9219ZM74.9287 35.9219C74.6503 35.9219 74.4287 35.7003 74.4287 35.4219H77.4287C77.4287 34.0434 76.3071 32.9219 74.9287 32.9219V35.9219ZM74.4287 35.4219V48.4219H77.4287V35.4219H74.4287ZM74.4287 48.4219C74.4287 49.8003 75.5503 50.9219 76.9287 50.9219V47.9219C77.2071 47.9219 77.4287 48.1434 77.4287 48.4219H74.4287ZM76.9287 50.9219H94.9287V47.9219H76.9287V50.9219ZM94.9287 50.9219C96.3071 50.9219 97.4287 49.8003 97.4287 48.4219H94.4287C94.4287 48.1435 94.6503 47.9219 94.9287 47.9219V50.9219ZM97.4287 48.4219V35.4219H94.4287V48.4219H97.4287ZM97.4287 35.4219C97.4287 35.7003 97.2071 35.9219 96.9287 35.9219V32.9219C95.5503 32.9219 94.4287 34.0434 94.4287 35.4219H97.4287ZM96.9287 35.9219H99.9287V32.9219H96.9287V35.9219ZM99.9287 35.9219C99.6503 35.9219 99.4287 35.7003 99.4287 35.4219H102.429C102.429 34.0434 101.307 32.9219 99.9287 32.9219V35.9219ZM99.4287 35.4219V63.4219H102.429V35.4219H99.4287ZM99.4287 63.4219C99.4287 65.8934 97.4003 67.9219 94.9287 67.9219V70.9219C99.0571 70.9219 102.429 67.5503 102.429 63.4219H99.4287ZM94.9287 67.9219H76.9287V70.9219H94.9287V67.9219ZM76.9287 67.9219C77.2071 67.9219 77.4287 68.1434 77.4287 68.4219H74.4287C74.4287 69.8003 75.5503 70.9219 76.9287 70.9219V67.9219ZM77.4287 68.4219V65.4219H74.4287V68.4219H77.4287ZM77.4287 65.4219C77.4287 65.7003 77.2071 65.9219 76.9287 65.9219V62.9219C75.5503 62.9219 74.4287 64.0434 74.4287 65.4219H77.4287ZM76.9287 65.9219H94.9287V62.9219H76.9287V65.9219ZM94.9287 65.9219C96.3071 65.9219 97.4287 64.8003 97.4287 63.4219H94.4287C94.4287 63.1435 94.6503 62.9219 94.9287 62.9219V65.9219ZM97.4287 63.4219V55.4219H94.4287V63.4219H97.4287ZM97.4287 55.4219C97.4287 54.0435 96.3071 52.9219 94.9287 52.9219V55.9219C94.6503 55.9219 94.4287 55.7003 94.4287 55.4219H97.4287ZM94.9287 52.9219H76.9287V55.9219H94.9287V52.9219ZM76.9287 52.9219C74.4571 52.9219 72.4287 50.8934 72.4287 48.4219H69.4287C69.4287 52.5503 72.8003 55.9219 76.9287 55.9219V52.9219ZM130.938 37.8219H112.838V40.8219H130.938V37.8219ZM112.838 37.8219C111.46 37.8219 110.338 38.9434 110.338 40.3219H113.338C113.338 40.6003 113.117 40.8219 112.838 40.8219V37.8219ZM110.338 40.3219V48.4719H113.338V40.3219H110.338ZM110.338 48.4719C110.338 49.8503 111.46 50.9719 112.838 50.9719V47.9719C113.117 47.9719 113.338 48.1934 113.338 48.4719H110.338ZM112.838 50.9719H130.838V47.9719H112.838V50.9719ZM130.838 50.9719C133.352 50.9719 135.338 52.9921 135.338 55.4719H138.338C138.338 51.3516 135.025 47.9719 130.838 47.9719V50.9719ZM135.338 55.4719V63.4219H138.338V55.4719H135.338ZM135.338 63.4219C135.338 65.9016 133.352 67.9219 130.838 67.9219V70.9219C135.025 70.9219 138.338 67.5421 138.338 63.4219H135.338ZM130.838 67.9219H107.938V70.9219H130.838V67.9219ZM107.938 67.9219C108.217 67.9219 108.438 68.1434 108.438 68.4219H105.438C105.438 69.8003 106.56 70.9219 107.938 70.9219V67.9219ZM108.438 68.4219V65.5219H105.438V68.4219H108.438ZM108.438 65.5219C108.438 65.8003 108.217 66.0219 107.938 66.0219V63.0219C106.56 63.0219 105.438 64.1434 105.438 65.5219H108.438ZM107.938 66.0219H130.938V63.0219H107.938V66.0219ZM130.938 66.0219C132.317 66.0219 133.438 64.9003 133.438 63.5219H130.438C130.438 63.2435 130.66 63.0219 130.938 63.0219V66.0219ZM133.438 63.5219V55.3719H130.438V63.5219H133.438ZM133.438 55.3719C133.438 53.9934 132.317 52.8719 130.938 52.8719V55.8719C130.66 55.8719 130.438 55.6503 130.438 55.3719H133.438ZM130.938 52.8719H112.938V55.8719H130.938V52.8719ZM112.938 52.8719C110.467 52.8719 108.438 50.8434 108.438 48.3719H105.438C105.438 52.5003 108.81 55.8719 112.938 55.8719V52.8719ZM108.438 48.3719V40.4219H105.438V48.3719H108.438ZM108.438 40.4219C108.438 37.9503 110.467 35.9219 112.938 35.9219V32.9219C108.81 32.9219 105.438 36.2934 105.438 40.4219H108.438ZM112.938 35.9219H130.938V32.9219H112.938V35.9219ZM130.938 35.9219C130.66 35.9219 130.438 35.7003 130.438 35.4219H133.438C133.438 34.0435 132.317 32.9219 130.938 32.9219V35.9219ZM130.438 35.4219V38.3219H133.438V35.4219H130.438ZM130.438 38.3219C130.438 38.0434 130.66 37.8219 130.938 37.8219V40.8219C132.317 40.8219 133.438 39.7003 133.438 38.3219H130.438ZM171.348 35.4219V38.4219H174.348V35.4219H171.348ZM171.348 38.4219C171.348 38.1434 171.57 37.9219 171.848 37.9219V40.9219C173.227 40.9219 174.348 39.8003 174.348 38.4219H171.348ZM171.848 37.9219H161.398V40.9219H171.848V37.9219ZM161.398 37.9219C160.02 37.9219 158.898 39.0434 158.898 40.4219H161.898C161.898 40.7003 161.677 40.9219 161.398 40.9219V37.9219ZM158.898 40.4219V68.4219H161.898V40.4219H158.898ZM158.898 68.4219C158.898 68.1434 159.12 67.9219 159.398 67.9219V70.9219C160.777 70.9219 161.898 69.8003 161.898 68.4219H158.898ZM159.398 67.9219H156.398V70.9219H159.398V67.9219ZM156.398 67.9219C156.677 67.9219 156.898 68.1434 156.898 68.4219H153.898C153.898 69.8003 155.02 70.9219 156.398 70.9219V67.9219ZM156.898 68.4219V40.4219H153.898V68.4219H156.898ZM156.898 40.4219C156.898 39.0434 155.777 37.9219 154.398 37.9219V40.9219C154.12 40.9219 153.898 40.7003 153.898 40.4219H156.898ZM154.398 37.9219H143.948V40.9219H154.398V37.9219ZM143.948 37.9219C144.227 37.9219 144.448 38.1434 144.448 38.4219H141.448C141.448 39.8003 142.57 40.9219 143.948 40.9219V37.9219ZM144.448 38.4219V35.4219H141.448V38.4219H144.448ZM144.448 35.4219C144.448 35.7003 144.227 35.9219 143.948 35.9219V32.9219C142.57 32.9219 141.448 34.0434 141.448 35.4219H144.448ZM143.948 35.9219H171.848V32.9219H143.948V35.9219ZM171.848 35.9219C171.57 35.9219 171.348 35.7003 171.348 35.4219H174.348C174.348 34.0434 173.227 32.9219 171.848 32.9219V35.9219ZM207.358 35.4219V38.4219H210.358V35.4219H207.358ZM207.358 38.4219C207.358 38.1434 207.58 37.9219 207.858 37.9219V40.9219C209.236 40.9219 210.358 39.8003 210.358 38.4219H207.358ZM207.858 37.9219H184.958V40.9219H207.858V37.9219ZM184.958 37.9219C183.58 37.9219 182.458 39.0434 182.458 40.4219H185.458C185.458 40.7003 185.236 40.9219 184.958 40.9219V37.9219ZM182.458 40.4219V48.4219H185.458V40.4219H182.458ZM182.458 48.4219C182.458 49.8003 183.58 50.9219 184.958 50.9219V47.9219C185.236 47.9219 185.458 48.1434 185.458 48.4219H182.458ZM184.958 50.9219H202.958V47.9219H184.958V50.9219ZM202.958 50.9219C202.68 50.9219 202.458 50.7003 202.458 50.4219H205.458C205.458 49.0434 204.336 47.9219 202.958 47.9219V50.9219ZM202.458 50.4219V53.4219H205.458V50.4219H202.458ZM202.458 53.4219C202.458 53.1435 202.68 52.9219 202.958 52.9219V55.9219C204.336 55.9219 205.458 54.8003 205.458 53.4219H202.458ZM202.958 52.9219H184.958V55.9219H202.958V52.9219ZM184.958 52.9219C183.58 52.9219 182.458 54.0434 182.458 55.4219H185.458C185.458 55.7003 185.236 55.9219 184.958 55.9219V52.9219ZM182.458 55.4219V63.4219H185.458V55.4219H182.458ZM182.458 63.4219C182.458 64.8003 183.58 65.9219 184.958 65.9219V62.9219C185.236 62.9219 185.458 63.1434 185.458 63.4219H182.458ZM184.958 65.9219H207.858V62.9219H184.958V65.9219ZM207.858 65.9219C207.58 65.9219 207.358 65.7003 207.358 65.4219H210.358C210.358 64.0434 209.236 62.9219 207.858 62.9219V65.9219ZM207.358 65.4219V68.4219H210.358V65.4219H207.358ZM207.358 68.4219C207.358 68.1434 207.58 67.9219 207.858 67.9219V70.9219C209.236 70.9219 210.358 69.8003 210.358 68.4219H207.358ZM207.858 67.9219H179.958V70.9219H207.858V67.9219ZM179.958 67.9219C180.236 67.9219 180.458 68.1434 180.458 68.4219H177.458C177.458 69.8003 178.58 70.9219 179.958 70.9219V67.9219ZM180.458 68.4219V35.4219H177.458V68.4219H180.458ZM180.458 35.4219C180.458 35.7003 180.236 35.9219 179.958 35.9219V32.9219C178.58 32.9219 177.458 34.0434 177.458 35.4219H180.458ZM179.958 35.9219H207.858V32.9219H179.958V35.9219ZM207.858 35.9219C207.58 35.9219 207.358 35.7003 207.358 35.4219H210.358C210.358 34.0434 209.236 32.9219 207.858 32.9219V35.9219ZM244.018 42.3219L243.042 41.183L242.998 41.2205L242.957 41.2612L244.018 42.3219ZM234.718 51.6219L233.657 50.5612L233.582 50.6366L233.518 50.7219L234.718 51.6219ZM230.118 51.6219L229.057 52.6825L229.057 52.6825L230.118 51.6219ZM220.818 42.3219L221.878 41.2612L221.878 41.2612L220.818 42.3219ZM220.268 34.7219L219.207 35.7825L219.207 35.7825L220.268 34.7219ZM232.068 46.5219L233.128 45.4612L233.128 45.4612L232.068 46.5219ZM232.768 46.5219L231.709 45.459L231.707 45.4612L232.768 46.5219ZM244.618 34.7219L245.676 35.7848L245.753 35.7084L245.818 35.6219L244.618 34.7219ZM248.368 35.4219V68.4219H251.368V35.4219H248.368ZM248.368 68.4219C248.368 68.1434 248.589 67.9219 248.868 67.9219V70.9219C250.246 70.9219 251.368 69.8003 251.368 68.4219H248.368ZM248.868 67.9219H245.868V70.9219H248.868V67.9219ZM245.868 67.9219C246.146 67.9219 246.368 68.1434 246.368 68.4219H243.368C243.368 69.8003 244.489 70.9219 245.868 70.9219V67.9219ZM246.368 68.4219V42.7219H243.368V68.4219H246.368ZM246.368 42.7219C246.368 41.0751 244.428 39.9943 243.042 41.183L244.994 43.4608C244.701 43.7115 244.272 43.7602 243.923 43.5921C243.588 43.4305 243.368 43.0894 243.368 42.7219H246.368ZM242.957 41.2612L233.657 50.5612L235.778 52.6825L245.078 43.3825L242.957 41.2612ZM233.518 50.7219C233.653 50.5412 233.799 50.474 233.848 50.4542C233.904 50.4318 233.956 50.4219 234.018 50.4219V53.4219C234.539 53.4219 235.382 53.2358 235.918 52.5219L233.518 50.7219ZM234.018 50.4219H230.818V53.4219H234.018V50.4219ZM230.818 50.4219C230.978 50.4219 231.106 50.4889 231.178 50.5612L229.057 52.6825C229.529 53.1549 230.157 53.4219 230.818 53.4219V50.4219ZM231.178 50.5612L221.878 41.2612L219.757 43.3825L229.057 52.6825L231.178 50.5612ZM221.878 41.2612C221.198 40.5812 220.278 40.588 219.649 40.8801C219.017 41.1734 218.468 41.8367 218.468 42.7219H221.468C221.468 43.157 221.194 43.4704 220.912 43.6011C220.633 43.7307 220.137 43.7626 219.757 43.3825L221.878 41.2612ZM218.468 42.7219V68.4219H221.468V42.7219H218.468ZM218.468 68.4219C218.468 68.1434 218.689 67.9219 218.968 67.9219V70.9219C220.346 70.9219 221.468 69.8003 221.468 68.4219H218.468ZM218.968 67.9219H215.968V70.9219H218.968V67.9219ZM215.968 67.9219C216.246 67.9219 216.468 68.1434 216.468 68.4219H213.468C213.468 69.8003 214.589 70.9219 215.968 70.9219V67.9219ZM216.468 68.4219V35.4219H213.468V68.4219H216.468ZM216.468 35.4219C216.468 35.7003 216.246 35.9219 215.968 35.9219V32.9219C214.589 32.9219 213.468 34.0434 213.468 35.4219H216.468ZM215.968 35.9219H219.568V32.9219H215.968V35.9219ZM219.568 35.9219C219.407 35.9219 219.279 35.8549 219.207 35.7825L221.328 33.6612C220.856 33.1889 220.228 32.9219 219.568 32.9219V35.9219ZM219.207 35.7825L231.007 47.5825L233.128 45.4612L221.328 33.6612L219.207 35.7825ZM231.007 47.5825C231.793 48.3683 233.043 48.3683 233.828 47.5825L231.707 45.4612C231.879 45.2889 232.132 45.1719 232.418 45.1719C232.703 45.1719 232.956 45.2889 233.128 45.4612L231.007 47.5825ZM233.826 47.5848L245.676 35.7848L243.559 33.659L231.709 45.459L233.826 47.5848ZM245.818 35.6219C245.603 35.9084 245.335 35.9219 245.318 35.9219V32.9219C244.701 32.9219 243.933 33.1353 243.418 33.8219L245.818 35.6219ZM245.318 35.9219H248.868V32.9219H245.318V35.9219ZM248.868 35.9219C248.589 35.9219 248.368 35.7003 248.368 35.4219H251.368C251.368 34.0434 250.246 32.9219 248.868 32.9219V35.9219ZM152.851 92.9219C151.472 92.9219 150.351 94.0434 150.351 95.4219H153.351C153.351 95.7003 153.129 95.9219 152.851 95.9219V92.9219ZM150.351 95.4219V118.422H153.351V95.4219H150.351ZM150.351 118.422C150.351 119.8 151.472 120.922 152.851 120.922V117.922C153.129 117.922 153.351 118.143 153.351 118.422H150.351ZM152.851 120.922H175.751V117.922H152.851V120.922ZM175.751 120.922C175.472 120.922 175.251 120.7 175.251 120.422H178.251C178.251 119.043 177.129 117.922 175.751 117.922V120.922ZM175.251 120.422V123.422H178.251V120.422H175.251ZM175.251 123.422C175.251 123.143 175.472 122.922 175.751 122.922V125.922C177.129 125.922 178.251 124.8 178.251 123.422H175.251ZM175.751 122.922H152.851V125.922H175.751V122.922ZM152.851 122.922C150.379 122.922 148.351 120.893 148.351 118.422H145.351C145.351 122.55 148.722 125.922 152.851 125.922V122.922ZM148.351 118.422V95.4219H145.351V118.422H148.351ZM148.351 95.4219C148.351 92.9503 150.379 90.9219 152.851 90.9219V87.9219C148.722 87.9219 145.351 91.2934 145.351 95.4219H148.351ZM152.851 90.9219H175.751V87.9219H152.851V90.9219ZM175.751 90.9219C175.472 90.9219 175.251 90.7003 175.251 90.4219H178.251C178.251 89.0434 177.129 87.9219 175.751 87.9219V90.9219ZM175.251 90.4219V93.4219H178.251V90.4219H175.251ZM175.251 93.4219C175.251 93.1434 175.472 92.9219 175.751 92.9219V95.9219C177.129 95.9219 178.251 94.8003 178.251 93.4219H175.251ZM175.751 92.9219H152.851V95.9219H175.751V92.9219ZM209.36 103.422V95.4219H206.36V103.422H209.36ZM209.36 95.4219C209.36 94.0434 208.239 92.9219 206.86 92.9219V95.9219C206.582 95.9219 206.36 95.7003 206.36 95.4219H209.36ZM206.86 92.9219H188.86V95.9219H206.86V92.9219ZM188.86 92.9219C187.482 92.9219 186.36 94.0434 186.36 95.4219H189.36C189.36 95.7003 189.139 95.9219 188.86 95.9219V92.9219ZM186.36 95.4219V103.422H189.36V95.4219H186.36ZM186.36 103.422C186.36 104.8 187.482 105.922 188.86 105.922V102.922C189.139 102.922 189.36 103.143 189.36 103.422H186.36ZM188.86 105.922H206.86V102.922H188.86V105.922ZM206.86 105.922C208.239 105.922 209.36 104.8 209.36 103.422H206.36C206.36 103.143 206.582 102.922 206.86 102.922V105.922ZM211.36 95.4219V123.422H214.36V95.4219H211.36ZM211.36 123.422C211.36 123.143 211.582 122.922 211.86 122.922V125.922C213.239 125.922 214.36 124.8 214.36 123.422H211.36ZM211.86 122.922H208.86V125.922H211.86V122.922ZM208.86 122.922C209.139 122.922 209.36 123.143 209.36 123.422H206.36C206.36 124.8 207.482 125.922 208.86 125.922V122.922ZM209.36 123.422V110.422H206.36V123.422H209.36ZM209.36 110.422C209.36 109.043 208.239 107.922 206.86 107.922V110.922C206.582 110.922 206.36 110.7 206.36 110.422H209.36ZM206.86 107.922H188.86V110.922H206.86V107.922ZM188.86 107.922C187.482 107.922 186.36 109.043 186.36 110.422H189.36C189.36 110.7 189.139 110.922 188.86 110.922V107.922ZM186.36 110.422V123.422H189.36V110.422H186.36ZM186.36 123.422C186.36 123.143 186.582 122.922 186.86 122.922V125.922C188.239 125.922 189.36 124.8 189.36 123.422H186.36ZM186.86 122.922H183.86V125.922H186.86V122.922ZM183.86 122.922C184.139 122.922 184.36 123.143 184.36 123.422H181.36C181.36 124.8 182.482 125.922 183.86 125.922V122.922ZM184.36 123.422V95.4219H181.36V123.422H184.36ZM184.36 95.4219C184.36 92.9503 186.389 90.9219 188.86 90.9219V87.9219C184.732 87.9219 181.36 91.2934 181.36 95.4219H184.36ZM188.86 90.9219H206.86V87.9219H188.86V90.9219ZM206.86 90.9219C209.332 90.9219 211.36 92.9503 211.36 95.4219H214.36C214.36 91.2934 210.989 87.9219 206.86 87.9219V90.9219ZM247.27 90.4219V93.4219H250.27V90.4219H247.27ZM247.27 93.4219C247.27 93.1434 247.492 92.9219 247.77 92.9219V95.9219C249.149 95.9219 250.27 94.8003 250.27 93.4219H247.27ZM247.77 92.9219H237.32V95.9219H247.77V92.9219ZM237.32 92.9219C235.942 92.9219 234.82 94.0434 234.82 95.4219H237.82C237.82 95.7003 237.599 95.9219 237.32 95.9219V92.9219ZM234.82 95.4219V123.422H237.82V95.4219H234.82ZM234.82 123.422C234.82 123.143 235.042 122.922 235.32 122.922V125.922C236.699 125.922 237.82 124.8 237.82 123.422H234.82ZM235.32 122.922H232.32V125.922H235.32V122.922ZM232.32 122.922C232.599 122.922 232.82 123.143 232.82 123.422H229.82C229.82 124.8 230.942 125.922 232.32 125.922V122.922ZM232.82 123.422V95.4219H229.82V123.422H232.82ZM232.82 95.4219C232.82 94.0434 231.699 92.9219 230.32 92.9219V95.9219C230.042 95.9219 229.82 95.7003 229.82 95.4219H232.82ZM230.32 92.9219H219.87V95.9219H230.32V92.9219ZM219.87 92.9219C220.149 92.9219 220.37 93.1434 220.37 93.4219H217.37C217.37 94.8003 218.492 95.9219 219.87 95.9219V92.9219ZM220.37 93.4219V90.4219H217.37V93.4219H220.37ZM220.37 90.4219C220.37 90.7003 220.149 90.9219 219.87 90.9219V87.9219C218.492 87.9219 217.37 89.0434 217.37 90.4219H220.37ZM219.87 90.9219H247.77V87.9219H219.87V90.9219ZM247.77 90.9219C247.492 90.9219 247.27 90.7003 247.27 90.4219H250.27C250.27 89.0434 249.149 87.9219 247.77 87.9219V90.9219ZM223.671 161.922L222.471 161.022L221.796 161.922L222.471 162.822L223.671 161.922ZM221.321 158.422V150.422H218.321V158.422H221.321ZM221.321 150.422C221.321 149.043 220.2 147.922 218.821 147.922V150.922C218.543 150.922 218.321 150.7 218.321 150.422H221.321ZM218.821 147.922H200.821V150.922H218.821V147.922ZM200.821 147.922C199.443 147.922 198.321 149.043 198.321 150.422H201.321C201.321 150.7 201.1 150.922 200.821 150.922V147.922ZM198.321 150.422V173.422H201.321V150.422H198.321ZM198.321 173.422C198.321 174.8 199.443 175.922 200.821 175.922V172.922C201.1 172.922 201.321 173.143 201.321 173.422H198.321ZM200.821 175.922H218.821V172.922H200.821V175.922ZM218.821 175.922C220.2 175.922 221.321 174.8 221.321 173.422H218.321C218.321 173.143 218.543 172.922 218.821 172.922V175.922ZM221.321 173.422V165.422H218.321V173.422H221.321ZM221.321 165.422C221.321 164.043 220.2 162.922 218.821 162.922V165.922C218.543 165.922 218.321 165.7 218.321 165.422H221.321ZM218.821 162.922H208.321V165.922H218.821V162.922ZM208.321 162.922C208.6 162.922 208.821 163.143 208.821 163.422H205.821C205.821 164.8 206.943 165.922 208.321 165.922V162.922ZM208.821 163.422V160.422H205.821V163.422H208.821ZM208.821 160.422C208.821 160.7 208.6 160.922 208.321 160.922V157.922C206.943 157.922 205.821 159.043 205.821 160.422H208.821ZM208.321 160.922H218.821V157.922H208.321V160.922ZM218.821 160.922C220.2 160.922 221.321 159.8 221.321 158.422H218.321C218.321 158.143 218.543 157.922 218.821 157.922V160.922ZM223.321 150.422V158.422H226.321V150.422H223.321ZM223.321 158.422C223.321 159.404 223.023 160.287 222.471 161.022L224.871 162.822C225.82 161.557 226.321 160.04 226.321 158.422H223.321ZM222.471 162.822C223.023 163.557 223.321 164.44 223.321 165.422H226.321C226.321 163.804 225.82 162.287 224.871 161.022L222.471 162.822ZM223.321 165.422V173.422H226.321V165.422H223.321ZM223.321 173.422C223.321 175.893 221.293 177.922 218.821 177.922V180.922C222.95 180.922 226.321 177.55 226.321 173.422H223.321ZM218.821 177.922H195.821V180.922H218.821V177.922ZM195.821 177.922C196.1 177.922 196.321 178.143 196.321 178.422H193.321C193.321 179.8 194.443 180.922 195.821 180.922V177.922ZM196.321 178.422V145.422H193.321V178.422H196.321ZM196.321 145.422C196.321 145.7 196.1 145.922 195.821 145.922V142.922C194.443 142.922 193.321 144.043 193.321 145.422H196.321ZM195.821 145.922H218.821V142.922H195.821V145.922ZM218.821 145.922C221.293 145.922 223.321 147.95 223.321 150.422H226.321C226.321 146.293 222.95 142.922 218.821 142.922V145.922ZM232.331 145.422C232.331 145.7 232.109 145.922 231.831 145.922V142.922C230.453 142.922 229.331 144.043 229.331 145.422H232.331ZM231.831 145.922H234.831V142.922H231.831V145.922ZM234.831 145.922C234.553 145.922 234.331 145.7 234.331 145.422H237.331C237.331 144.043 236.209 142.922 234.831 142.922V145.922ZM234.331 145.422V173.422H237.331V145.422H234.331ZM234.331 173.422C234.331 174.8 235.453 175.922 236.831 175.922V172.922C237.109 172.922 237.331 173.143 237.331 173.422H234.331ZM236.831 175.922H249.831V172.922H236.831V175.922ZM249.831 175.922C249.553 175.922 249.331 175.7 249.331 175.422H252.331C252.331 174.043 251.209 172.922 249.831 172.922V175.922ZM249.331 175.422V178.422H252.331V175.422H249.331ZM249.331 178.422C249.331 178.143 249.553 177.922 249.831 177.922V180.922C251.209 180.922 252.331 179.8 252.331 178.422H249.331ZM249.831 177.922H231.831V180.922H249.831V177.922ZM231.831 177.922C232.109 177.922 232.331 178.143 232.331 178.422H229.331C229.331 179.8 230.453 180.922 231.831 180.922V177.922ZM232.331 178.422V145.422H229.331V178.422H232.331ZM283.331 173.422V150.422H280.331V173.422H283.331ZM283.331 150.422C283.331 149.043 282.209 147.922 280.831 147.922V150.922C280.553 150.922 280.331 150.7 280.331 150.422H283.331ZM280.831 147.922H262.831V150.922H280.831V147.922ZM262.831 147.922C261.453 147.922 260.331 149.043 260.331 150.422H263.331C263.331 150.7 263.109 150.922 262.831 150.922V147.922ZM260.331 150.422V173.422H263.331V150.422H260.331ZM260.331 173.422C260.331 174.8 261.453 175.922 262.831 175.922V172.922C263.109 172.922 263.331 173.143 263.331 173.422H260.331ZM262.831 175.922H280.831V172.922H262.831V175.922ZM280.831 175.922C282.209 175.922 283.331 174.8 283.331 173.422H280.331C280.331 173.143 280.553 172.922 280.831 172.922V175.922ZM280.831 145.922C283.303 145.922 285.331 147.95 285.331 150.422H288.331C288.331 146.293 284.959 142.922 280.831 142.922V145.922ZM285.331 150.422V173.422H288.331V150.422H285.331ZM285.331 173.422C285.331 175.893 283.303 177.922 280.831 177.922V180.922C284.959 180.922 288.331 177.55 288.331 173.422H285.331ZM280.831 177.922H262.831V180.922H280.831V177.922ZM262.831 177.922C260.359 177.922 258.331 175.893 258.331 173.422H255.331C255.331 177.55 258.703 180.922 262.831 180.922V177.922ZM258.331 173.422V150.422H255.331V173.422H258.331ZM258.331 150.422C258.331 147.95 260.359 145.922 262.831 145.922V142.922C258.703 142.922 255.331 146.293 255.331 150.422H258.331ZM262.831 145.922H280.831V142.922H262.831V145.922ZM298.841 147.922C297.462 147.922 296.341 149.043 296.341 150.422H299.341C299.341 150.7 299.119 150.922 298.841 150.922V147.922ZM296.341 150.422V173.422H299.341V150.422H296.341ZM296.341 173.422C296.341 174.8 297.462 175.922 298.841 175.922V172.922C299.119 172.922 299.341 173.143 299.341 173.422H296.341ZM298.841 175.922H321.741V172.922H298.841V175.922ZM321.741 175.922C321.462 175.922 321.241 175.7 321.241 175.422H324.241C324.241 174.043 323.119 172.922 321.741 172.922V175.922ZM321.241 175.422V178.422H324.241V175.422H321.241ZM321.241 178.422C321.241 178.143 321.462 177.922 321.741 177.922V180.922C323.119 180.922 324.241 179.8 324.241 178.422H321.241ZM321.741 177.922H298.841V180.922H321.741V177.922ZM298.841 177.922C296.369 177.922 294.341 175.893 294.341 173.422H291.341C291.341 177.55 294.712 180.922 298.841 180.922V177.922ZM294.341 173.422V150.422H291.341V173.422H294.341ZM294.341 150.422C294.341 147.95 296.369 145.922 298.841 145.922V142.922C294.712 142.922 291.341 146.293 291.341 150.422H294.341ZM298.841 145.922H321.741V142.922H298.841V145.922ZM321.741 145.922C321.462 145.922 321.241 145.7 321.241 145.422H324.241C324.241 144.043 323.119 142.922 321.741 142.922V145.922ZM321.241 145.422V148.422H324.241V145.422H321.241ZM321.241 148.422C321.241 148.143 321.462 147.922 321.741 147.922V150.922C323.119 150.922 324.241 149.8 324.241 148.422H321.241ZM321.741 147.922H298.841V150.922H321.741V147.922ZM357.751 160.972C357.472 160.972 357.251 160.75 357.251 160.472H360.251C360.251 159.093 359.129 157.972 357.751 157.972V160.972ZM357.251 160.472V178.422H360.251V160.472H357.251ZM357.251 178.422C357.251 178.143 357.472 177.922 357.751 177.922V180.922C359.129 180.922 360.251 179.8 360.251 178.422H357.251ZM357.751 177.922H354.851V180.922H357.751V177.922ZM354.851 177.922C355.129 177.922 355.351 178.143 355.351 178.422H352.351C352.351 179.8 353.472 180.922 354.851 180.922V177.922ZM355.351 178.422V165.372H352.351V178.422H355.351ZM355.351 165.372C355.351 163.993 354.229 162.872 352.851 162.872V165.872C352.572 165.872 352.351 165.65 352.351 165.372H355.351ZM352.851 162.872H334.751V165.872H352.851V162.872ZM334.751 162.872C333.372 162.872 332.251 163.993 332.251 165.372H335.251C335.251 165.65 335.029 165.872 334.751 165.872V162.872ZM332.251 165.372V178.422H335.251V165.372H332.251ZM332.251 178.422C332.251 178.143 332.472 177.922 332.751 177.922V180.922C334.129 180.922 335.251 179.8 335.251 178.422H332.251ZM332.751 177.922H329.851V180.922H332.751V177.922ZM329.851 177.922C330.129 177.922 330.351 178.143 330.351 178.422H327.351C327.351 179.8 328.472 180.922 329.851 180.922V177.922ZM330.351 178.422V145.422H327.351V178.422H330.351ZM330.351 145.422C330.351 145.7 330.129 145.922 329.851 145.922V142.922C328.472 142.922 327.351 144.043 327.351 145.422H330.351ZM329.851 145.922H332.751V142.922H329.851V145.922ZM332.751 145.922C332.472 145.922 332.251 145.7 332.251 145.422H335.251C335.251 144.043 334.129 142.922 332.751 142.922V145.922ZM332.251 145.422V158.472H335.251V145.422H332.251ZM332.251 158.472C332.251 159.85 333.372 160.972 334.751 160.972V157.972C335.029 157.972 335.251 158.193 335.251 158.472H332.251ZM334.751 160.972H347.951V157.972H334.751V160.972ZM347.951 160.972C349.329 160.972 350.451 159.85 350.451 158.472H347.451C347.451 158.193 347.672 157.972 347.951 157.972V160.972ZM350.451 158.472V145.422H347.451V158.472H350.451ZM350.451 145.422C350.451 145.513 350.415 145.643 350.305 145.758C350.187 145.879 350.043 145.922 349.951 145.922V142.922C348.473 142.922 347.451 144.093 347.451 145.422H350.451ZM349.951 145.922H352.851V142.922H349.951V145.922ZM352.851 145.922C352.572 145.922 352.351 145.7 352.351 145.422H355.351C355.351 144.043 354.229 142.922 352.851 142.922V145.922ZM352.351 145.422V158.472H355.351V145.422H352.351ZM352.351 158.472C352.351 159.85 353.472 160.972 354.851 160.972V157.972C355.129 157.972 355.351 158.193 355.351 158.472H352.351ZM354.851 160.972H357.751V157.972H354.851V160.972ZM388.86 147.822H370.76V150.822H388.86V147.822ZM370.76 147.822C369.382 147.822 368.26 148.943 368.26 150.322H371.26C371.26 150.6 371.039 150.822 370.76 150.822V147.822ZM368.26 150.322V158.472H371.26V150.322H368.26ZM368.26 158.472C368.26 159.85 369.382 160.972 370.76 160.972V157.972C371.039 157.972 371.26 158.193 371.26 158.472H368.26ZM370.76 160.972H388.76V157.972H370.76V160.972ZM388.76 160.972C391.274 160.972 393.26 162.992 393.26 165.472H396.26C396.26 161.352 392.947 157.972 388.76 157.972V160.972ZM393.26 165.472V173.422H396.26V165.472H393.26ZM393.26 173.422C393.26 175.902 391.274 177.922 388.76 177.922V180.922C392.947 180.922 396.26 177.542 396.26 173.422H393.26ZM388.76 177.922H365.86V180.922H388.76V177.922ZM365.86 177.922C366.139 177.922 366.36 178.143 366.36 178.422H363.36C363.36 179.8 364.482 180.922 365.86 180.922V177.922ZM366.36 178.422V175.522H363.36V178.422H366.36ZM366.36 175.522C366.36 175.8 366.139 176.022 365.86 176.022V173.022C364.482 173.022 363.36 174.143 363.36 175.522H366.36ZM365.86 176.022H388.86V173.022H365.86V176.022ZM388.86 176.022C390.239 176.022 391.36 174.9 391.36 173.522H388.36C388.36 173.243 388.582 173.022 388.86 173.022V176.022ZM391.36 173.522V165.372H388.36V173.522H391.36ZM391.36 165.372C391.36 163.993 390.239 162.872 388.86 162.872V165.872C388.582 165.872 388.36 165.65 388.36 165.372H391.36ZM388.86 162.872H370.86V165.872H388.86V162.872ZM370.86 162.872C368.389 162.872 366.36 160.843 366.36 158.372H363.36C363.36 162.5 366.732 165.872 370.86 165.872V162.872ZM366.36 158.372V150.422H363.36V158.372H366.36ZM366.36 150.422C366.36 147.95 368.389 145.922 370.86 145.922V142.922C366.732 142.922 363.36 146.293 363.36 150.422H366.36ZM370.86 145.922H388.86V142.922H370.86V145.922ZM388.86 145.922C388.582 145.922 388.36 145.7 388.36 145.422H391.36C391.36 144.043 390.239 142.922 388.86 142.922V145.922ZM388.36 145.422V148.322H391.36V145.422H388.36ZM388.36 148.322C388.36 148.043 388.582 147.822 388.86 147.822V150.822C390.239 150.822 391.36 149.7 391.36 148.322H388.36Z" fill="white" style="mix-blend-mode:hard-light" mask="url(#path-1-inside-1_1843_34)"/>
</g>
<defs>
<filter id="filter0_dd_1843_34" x="0.626774" y="0.129704" width="428.426" height="213.584" filterUnits="userSpaceOnUse" color-interpolation-filters="sRGB">
<feFlood flood-opacity="0" result="BackgroundImageFix"/>
<feColorMatrix in="SourceAlpha" type="matrix" values="0 0 0 0 0 0 0 0 0 0 0 0 0 0 0 0 0 0 127 0" result="hardAlpha"/>
<feOffset/>
<feGaussianBlur stdDeviation="4.89888"/>
<feColorMatrix type="matrix" values="0 0 0 0 0.52549 0 0 0 0 0.254902 0 0 0 0 0.372549 0 0 0 1 0"/>
<feBlend mode="normal" in2="BackgroundImageFix" result="effect1_dropShadow_1843_34"/>
<feColorMatrix in="SourceAlpha" type="matrix" values="0 0 0 0 0 0 0 0 0 0 0 0 0 0 0 0 0 0 127 0" result="hardAlpha"/>
<feOffset/>
<feGaussianBlur stdDeviation="17.1461"/>
<feColorMatrix type="matrix" values="0 0 0 0 0.52549 0 0 0 0 0.254902 0 0 0 0 0.372549 0 0 0 1 0"/>
<feBlend mode="normal" in2="effect1_dropShadow_1843_34" result="effect2_dropShadow_1843_34"/>
<feBlend mode="normal" in="SourceGraphic" in2="effect2_dropShadow_1843_34" result="shape"/>
</filter>
</defs>
</svg>
