<svg width="283" height="177" viewBox="0 0 283 177" fill="none" xmlns="http://www.w3.org/2000/svg">
<g filter="url(#filter0_dddddd_486_3776)">
<path d="M113.578 26.2454L119.181 23.6283M114.088 29.7349H119.69M82 5.74474H86.584L95.7519 14.4684H113.578L122.746 5.74474L127.84 4V32.7882L155.323 53.4813L160.131 54.1798H166.742L172.753 55.7562L177.561 58.0312L182.97 62.0125L190.783 68.8375L199.798 79.075L201 90.45L194.99 95H186.576L180.566 87.0375L188.98 88.7438L193.187 84.7625L190.783 77.9375L182.97 70.5437L172.753 63.7188L163.493 62.0125H125.802V54.1798L117.144 51.1079L113.578 57.2145V62.0125H103.901V57.2145L100.336 52.8526H95.7519L92.1866 57.2145V62.0125L86.584 43.2566L88.6213 35.4053L82 5.74474ZM101.355 28.8625L105.429 32.7882L108.485 28.8625H101.355Z" stroke="url(#paint0_linear_486_3776)" stroke-width="3"/>
</g>
<defs>
<filter id="filter0_dddddd_486_3776" x="0.294594" y="-77.933" width="282.12" height="254.267" filterUnits="userSpaceOnUse" color-interpolation-filters="sRGB">
<feFlood flood-opacity="0" result="BackgroundImageFix"/>
<feColorMatrix in="SourceAlpha" type="matrix" values="0 0 0 0 0 0 0 0 0 0 0 0 0 0 0 0 0 0 127 0" result="hardAlpha"/>
<feOffset/>
<feGaussianBlur stdDeviation="0.9504"/>
<feColorMatrix type="matrix" values="0 0 0 0 0.764706 0 0 0 0 0.156863 0 0 0 0 0.337255 0 0 0 1 0"/>
<feBlend mode="normal" in2="BackgroundImageFix" result="effect1_dropShadow_486_3776"/>
<feColorMatrix in="SourceAlpha" type="matrix" values="0 0 0 0 0 0 0 0 0 0 0 0 0 0 0 0 0 0 127 0" result="hardAlpha"/>
<feOffset/>
<feGaussianBlur stdDeviation="1.9008"/>
<feColorMatrix type="matrix" values="0 0 0 0 0.764706 0 0 0 0 0.156863 0 0 0 0 0.337255 0 0 0 1 0"/>
<feBlend mode="normal" in2="effect1_dropShadow_486_3776" result="effect2_dropShadow_486_3776"/>
<feColorMatrix in="SourceAlpha" type="matrix" values="0 0 0 0 0 0 0 0 0 0 0 0 0 0 0 0 0 0 127 0" result="hardAlpha"/>
<feOffset/>
<feGaussianBlur stdDeviation="6.6528"/>
<feColorMatrix type="matrix" values="0 0 0 0 0.764706 0 0 0 0 0.156863 0 0 0 0 0.337255 0 0 0 1 0"/>
<feBlend mode="normal" in2="effect2_dropShadow_486_3776" result="effect3_dropShadow_486_3776"/>
<feColorMatrix in="SourceAlpha" type="matrix" values="0 0 0 0 0 0 0 0 0 0 0 0 0 0 0 0 0 0 127 0" result="hardAlpha"/>
<feOffset/>
<feGaussianBlur stdDeviation="13.3056"/>
<feColorMatrix type="matrix" values="0 0 0 0 0.764706 0 0 0 0 0.156863 0 0 0 0 0.337255 0 0 0 1 0"/>
<feBlend mode="normal" in2="effect3_dropShadow_486_3776" result="effect4_dropShadow_486_3776"/>
<feColorMatrix in="SourceAlpha" type="matrix" values="0 0 0 0 0 0 0 0 0 0 0 0 0 0 0 0 0 0 127 0" result="hardAlpha"/>
<feOffset/>
<feGaussianBlur stdDeviation="22.8096"/>
<feColorMatrix type="matrix" values="0 0 0 0 0.764706 0 0 0 0 0.156863 0 0 0 0 0.337255 0 0 0 1 0"/>
<feBlend mode="normal" in2="effect4_dropShadow_486_3776" result="effect5_dropShadow_486_3776"/>
<feColorMatrix in="SourceAlpha" type="matrix" values="0 0 0 0 0 0 0 0 0 0 0 0 0 0 0 0 0 0 127 0" result="hardAlpha"/>
<feOffset/>
<feGaussianBlur stdDeviation="39.9168"/>
<feColorMatrix type="matrix" values="0 0 0 0 0.764706 0 0 0 0 0.156863 0 0 0 0 0.337255 0 0 0 1 0"/>
<feBlend mode="normal" in2="effect5_dropShadow_486_3776" result="effect6_dropShadow_486_3776"/>
<feBlend mode="normal" in="SourceGraphic" in2="effect6_dropShadow_486_3776" result="shape"/>
</filter>
<linearGradient id="paint0_linear_486_3776" x1="126.926" y1="5.10935" x2="126.926" y2="62.5346" gradientUnits="userSpaceOnUse">
<stop stop-color="#7B51F0"/>
<stop offset="1" stop-color="#AD86FF" stop-opacity="0.29"/>
</linearGradient>
</defs>
</svg>
