<svg width="151" height="115" viewBox="0 0 151 115" fill="none" xmlns="http://www.w3.org/2000/svg">
<g filter="url(#filter0_ddd_1843_24)">
<path d="M58.0339 48.2105L65.4915 44.4211M58.7119 53.2632H66.1695M16 18.5263H22.1017L34.3051 31.1579H58.0339L70.2373 18.5263L77.017 16V57.6842L112.271 93.0526L124.475 79.1579L121.085 57.6842L114.983 46.9474V40H121.085L126.508 45.0526L133.288 57.6842L136 79.1579V86.7368L124.475 100H74.3051V88.6586L62.7797 84.2105L58.0339 93.0526V100H45.1525V93.0526L40.4068 86.7368H34.3051L29.5593 93.0526V100L22.1017 72.8421L24.8136 61.4737L16 18.5263ZM41.7627 52L47.1864 57.6842L51.2542 52H41.7627Z" stroke="url(#paint0_linear_1843_24)" stroke-width="3"/>
</g>
<defs>
<filter id="filter0_ddd_1843_24" x="0.855536" y="0.534735" width="149.95" height="114.271" filterUnits="userSpaceOnUse" color-interpolation-filters="sRGB">
<feFlood flood-opacity="0" result="BackgroundImageFix"/>
<feColorMatrix in="SourceAlpha" type="matrix" values="0 0 0 0 0 0 0 0 0 0 0 0 0 0 0 0 0 0 127 0" result="hardAlpha"/>
<feOffset/>
<feGaussianBlur stdDeviation="0.9504"/>
<feColorMatrix type="matrix" values="0 0 0 0 0.764706 0 0 0 0 0.156863 0 0 0 0 0.337255 0 0 0 1 0"/>
<feBlend mode="normal" in2="BackgroundImageFix" result="effect1_dropShadow_1843_24"/>
<feColorMatrix in="SourceAlpha" type="matrix" values="0 0 0 0 0 0 0 0 0 0 0 0 0 0 0 0 0 0 127 0" result="hardAlpha"/>
<feOffset/>
<feGaussianBlur stdDeviation="1.9008"/>
<feColorMatrix type="matrix" values="0 0 0 0 0.764706 0 0 0 0 0.156863 0 0 0 0 0.337255 0 0 0 1 0"/>
<feBlend mode="normal" in2="effect1_dropShadow_1843_24" result="effect2_dropShadow_1843_24"/>
<feColorMatrix in="SourceAlpha" type="matrix" values="0 0 0 0 0 0 0 0 0 0 0 0 0 0 0 0 0 0 127 0" result="hardAlpha"/>
<feOffset/>
<feGaussianBlur stdDeviation="6.6528"/>
<feColorMatrix type="matrix" values="0 0 0 0 0.764706 0 0 0 0 0.156863 0 0 0 0 0.337255 0 0 0 1 0"/>
<feBlend mode="normal" in2="effect2_dropShadow_1843_24" result="effect3_dropShadow_1843_24"/>
<feBlend mode="normal" in="SourceGraphic" in2="effect3_dropShadow_1843_24" result="shape"/>
</filter>
<linearGradient id="paint0_linear_1843_24" x1="75.8003" y1="17.6063" x2="75.8003" y2="100.756" gradientUnits="userSpaceOnUse">
<stop stop-color="#7B51F0"/>
<stop offset="1" stop-color="#AD86FF" stop-opacity="0.29"/>
</linearGradient>
</defs>
</svg>
