<svg width="485" height="524" viewBox="0 0 485 524" fill="none" xmlns="http://www.w3.org/2000/svg">
<g filter="url(#filter0_b_1843_17)">
<path d="M23 112.162V493.519C23 497.546 26.2639 500.809 30.29 500.809H356.119C357.676 500.809 359.192 500.311 360.445 499.387L450.16 433.23C452.024 431.856 453.123 429.678 453.123 427.363V36.29C453.123 32.2638 449.86 29 445.833 29H141.558C140.093 29 138.661 29.4415 137.451 30.267L26.183 106.139C24.1915 107.497 23 109.751 23 112.162Z" stroke="#0F0E0E" stroke-width="45"/>
</g>
<g filter="url(#filter1_dd_1843_17)">
<path d="M439.912 29.5195H455V47.4021" stroke="#00848C" stroke-width="3.0375"/>
</g>
<g filter="url(#filter2_dd_1843_17)">
<path d="M42.7671 501.223H27.6787V483.341" stroke="#00848C" stroke-width="3.0375"/>
</g>
<g filter="url(#filter3_b_1843_17)">
<path d="M38.0754 120.746V479.983C38.0754 484.01 41.3393 487.273 45.3655 487.273H347.478C349.053 487.273 350.586 486.763 351.846 485.819L434.911 423.633C436.75 422.257 437.832 420.094 437.832 417.797V49.3828C437.832 45.3566 434.569 42.0928 430.542 42.0928H148.45C146.967 42.0928 145.52 42.5449 144.301 43.3889L41.216 114.752C39.2491 116.113 38.0754 118.353 38.0754 120.746Z" fill="#1C1B1B"/>
<path d="M38.0754 120.746V479.983C38.0754 484.01 41.3393 487.273 45.3655 487.273H347.478C349.053 487.273 350.586 486.763 351.846 485.819L434.911 423.633C436.75 422.257 437.832 420.094 437.832 417.797V49.3828C437.832 45.3566 434.569 42.0928 430.542 42.0928H148.45C146.967 42.0928 145.52 42.5449 144.301 43.3889L41.216 114.752C39.2491 116.113 38.0754 118.353 38.0754 120.746Z" stroke="#00848C" stroke-width="1.0125"/>
</g>
<g filter="url(#filter4_d_1843_17)">
<path d="M369.213 497.376L448.749 437.594" stroke="#00848C" stroke-opacity="0.5" stroke-width="3"/>
</g>
<g filter="url(#filter5_d_1843_17)">
<path d="M32.877 98.6587L130.087 32.639" stroke="#00848C" stroke-opacity="0.5" stroke-width="3.0375"/>
</g>
<defs>
<filter id="filter0_b_1843_17" x="-44.5" y="-38.5" width="565.124" height="606.81" filterUnits="userSpaceOnUse" color-interpolation-filters="sRGB">
<feFlood flood-opacity="0" result="BackgroundImageFix"/>
<feGaussianBlur in="BackgroundImageFix" stdDeviation="22.5"/>
<feComposite in2="SourceAlpha" operator="in" result="effect1_backgroundBlur_1843_17"/>
<feBlend mode="normal" in="SourceGraphic" in2="effect1_backgroundBlur_1843_17" result="shape"/>
</filter>
<filter id="filter1_dd_1843_17" x="412.325" y="0.414169" width="71.7808" height="74.5745" filterUnits="userSpaceOnUse" color-interpolation-filters="sRGB">
<feFlood flood-opacity="0" result="BackgroundImageFix"/>
<feColorMatrix in="SourceAlpha" type="matrix" values="0 0 0 0 0 0 0 0 0 0 0 0 0 0 0 0 0 0 127 0" result="hardAlpha"/>
<feOffset/>
<feGaussianBlur stdDeviation="6.8967"/>
<feColorMatrix type="matrix" values="0 0 0 0 0 0 0 0 0 0.517647 0 0 0 0 0.54902 0 0 0 1 0"/>
<feBlend mode="normal" in2="BackgroundImageFix" result="effect1_dropShadow_1843_17"/>
<feColorMatrix in="SourceAlpha" type="matrix" values="0 0 0 0 0 0 0 0 0 0 0 0 0 0 0 0 0 0 127 0" result="hardAlpha"/>
<feOffset/>
<feGaussianBlur stdDeviation="13.7934"/>
<feColorMatrix type="matrix" values="0 0 0 0 0 0 0 0 0 0.517647 0 0 0 0 0.54902 0 0 0 1 0"/>
<feBlend mode="normal" in2="effect1_dropShadow_1843_17" result="effect2_dropShadow_1843_17"/>
<feBlend mode="normal" in="SourceGraphic" in2="effect2_dropShadow_1843_17" result="shape"/>
</filter>
<filter id="filter2_dd_1843_17" x="22.2189" y="479.4" width="24.4891" height="27.2828" filterUnits="userSpaceOnUse" color-interpolation-filters="sRGB">
<feFlood flood-opacity="0" result="BackgroundImageFix"/>
<feColorMatrix in="SourceAlpha" type="matrix" values="0 0 0 0 0 0 0 0 0 0 0 0 0 0 0 0 0 0 127 0" result="hardAlpha"/>
<feOffset/>
<feGaussianBlur stdDeviation="0.985243"/>
<feColorMatrix type="matrix" values="0 0 0 0 0 0 0 0 0 0.517647 0 0 0 0 0.54902 0 0 0 1 0"/>
<feBlend mode="normal" in2="BackgroundImageFix" result="effect1_dropShadow_1843_17"/>
<feColorMatrix in="SourceAlpha" type="matrix" values="0 0 0 0 0 0 0 0 0 0 0 0 0 0 0 0 0 0 127 0" result="hardAlpha"/>
<feOffset/>
<feGaussianBlur stdDeviation="1.97049"/>
<feColorMatrix type="matrix" values="0 0 0 0 0 0 0 0 0 0.517647 0 0 0 0 0.54902 0 0 0 1 0"/>
<feBlend mode="normal" in2="effect1_dropShadow_1843_17" result="effect2_dropShadow_1843_17"/>
<feBlend mode="normal" in="SourceGraphic" in2="effect2_dropShadow_1843_17" result="shape"/>
</filter>
<filter id="filter3_b_1843_17" x="-7.43091" y="-3.41357" width="490.77" height="536.193" filterUnits="userSpaceOnUse" color-interpolation-filters="sRGB">
<feFlood flood-opacity="0" result="BackgroundImageFix"/>
<feGaussianBlur in="BackgroundImageFix" stdDeviation="22.5"/>
<feComposite in2="SourceAlpha" operator="in" result="effect1_backgroundBlur_1843_17"/>
<feBlend mode="normal" in="SourceGraphic" in2="effect1_backgroundBlur_1843_17" result="shape"/>
</filter>
<filter id="filter4_d_1843_17" x="354.519" y="422.602" width="108.925" height="89.7665" filterUnits="userSpaceOnUse" color-interpolation-filters="sRGB">
<feFlood flood-opacity="0" result="BackgroundImageFix"/>
<feColorMatrix in="SourceAlpha" type="matrix" values="0 0 0 0 0 0 0 0 0 0 0 0 0 0 0 0 0 0 127 0" result="hardAlpha"/>
<feOffset/>
<feGaussianBlur stdDeviation="6.8967"/>
<feColorMatrix type="matrix" values="0 0 0 0 0 0 0 0 0 0.517647 0 0 0 0 0.54902 0 0 0 1 0"/>
<feBlend mode="normal" in2="BackgroundImageFix" result="effect1_dropShadow_1843_17"/>
<feBlend mode="normal" in="SourceGraphic" in2="effect1_dropShadow_1843_17" result="shape"/>
</filter>
<filter id="filter5_d_1843_17" x="18.2303" y="17.5894" width="126.504" height="96.119" filterUnits="userSpaceOnUse" color-interpolation-filters="sRGB">
<feFlood flood-opacity="0" result="BackgroundImageFix"/>
<feColorMatrix in="SourceAlpha" type="matrix" values="0 0 0 0 0 0 0 0 0 0 0 0 0 0 0 0 0 0 127 0" result="hardAlpha"/>
<feOffset/>
<feGaussianBlur stdDeviation="6.8967"/>
<feColorMatrix type="matrix" values="0 0 0 0 0 0 0 0 0 0.517647 0 0 0 0 0.54902 0 0 0 1 0"/>
<feBlend mode="normal" in2="BackgroundImageFix" result="effect1_dropShadow_1843_17"/>
<feBlend mode="normal" in="SourceGraphic" in2="effect1_dropShadow_1843_17" result="shape"/>
</filter>
</defs>
</svg>
