<svg width="676" height="733" viewBox="0 0 676 733" fill="none" xmlns="http://www.w3.org/2000/svg">
<g filter="url(#filter0_b_1843_17)">
<path d="M23 147.276V702.414C23 706.44 26.2639 709.704 30.29 709.704H504.669C506.226 709.704 507.742 709.205 508.995 708.281L640.598 611.236C642.461 609.862 643.561 607.684 643.561 605.369V36.29C643.561 32.2638 640.297 29 636.271 29H193.054C191.589 29 190.157 29.4415 188.947 30.267L26.183 141.253C24.1915 142.611 23 144.866 23 147.276Z" stroke="#878787" stroke-opacity="0.1" stroke-width="45"/>
</g>
<g filter="url(#filter1_dd_1843_17)">
<path d="M624.5 29.75H646.269V55.5501" stroke="#00848C" stroke-width="3.0375"/>
</g>
<g filter="url(#filter2_dd_1843_17)">
<path d="M51.5187 710.301H29.75V684.501" stroke="#00848C" stroke-width="3.0375"/>
</g>
<g filter="url(#filter3_b_1843_17)">
<path d="M44.75 159.675V682.885C44.75 686.911 48.0139 690.175 52.04 690.175H492.215C493.79 690.175 495.323 689.664 496.584 688.72L618.579 597.389C620.418 596.013 621.5 593.85 621.5 591.554V55.1796C621.5 51.1535 618.236 47.8896 614.21 47.8896H202.985C201.502 47.8896 200.055 48.3418 198.836 49.1858L47.8906 153.681C45.9237 155.043 44.75 157.283 44.75 159.675Z" fill="#878787" fill-opacity="0.2"/>
<path d="M44.75 159.675V682.885C44.75 686.911 48.0139 690.175 52.04 690.175H492.215C493.79 690.175 495.323 689.664 496.584 688.72L618.579 597.389C620.418 596.013 621.5 593.85 621.5 591.554V55.1796C621.5 51.1535 618.236 47.8896 614.21 47.8896H202.985C201.502 47.8896 200.055 48.3418 198.836 49.1858L47.8906 153.681C45.9237 155.043 44.75 157.283 44.75 159.675Z" stroke="#00848C" stroke-width="1.0125"/>
</g>
<g filter="url(#filter4_d_1843_17)">
<path d="M522.5 704.75L637.25 618.5" stroke="#00848C" stroke-opacity="0.5" stroke-width="3"/>
</g>
<g filter="url(#filter5_d_1843_17)">
<path d="M37.25 129.5L177.5 34.25" stroke="#00848C" stroke-opacity="0.5" stroke-width="3.0375"/>
</g>
<defs>
<filter id="filter0_b_1843_17" x="-44.5" y="-38.5" width="755.561" height="815.704" filterUnits="userSpaceOnUse" color-interpolation-filters="sRGB">
<feFlood flood-opacity="0" result="BackgroundImageFix"/>
<feGaussianBlur in="BackgroundImageFix" stdDeviation="22.5"/>
<feComposite in2="SourceAlpha" operator="in" result="effect1_backgroundBlur_1843_17"/>
<feBlend mode="normal" in="SourceGraphic" in2="effect1_backgroundBlur_1843_17" result="shape"/>
</filter>
<filter id="filter1_dd_1843_17" x="596.913" y="0.644638" width="78.4612" height="82.4925" filterUnits="userSpaceOnUse" color-interpolation-filters="sRGB">
<feFlood flood-opacity="0" result="BackgroundImageFix"/>
<feColorMatrix in="SourceAlpha" type="matrix" values="0 0 0 0 0 0 0 0 0 0 0 0 0 0 0 0 0 0 127 0" result="hardAlpha"/>
<feOffset/>
<feGaussianBlur stdDeviation="6.8967"/>
<feColorMatrix type="matrix" values="0 0 0 0 0 0 0 0 0 0.517647 0 0 0 0 0.54902 0 0 0 1 0"/>
<feBlend mode="normal" in2="BackgroundImageFix" result="effect1_dropShadow_1843_17"/>
<feColorMatrix in="SourceAlpha" type="matrix" values="0 0 0 0 0 0 0 0 0 0 0 0 0 0 0 0 0 0 127 0" result="hardAlpha"/>
<feOffset/>
<feGaussianBlur stdDeviation="13.7934"/>
<feColorMatrix type="matrix" values="0 0 0 0 0 0 0 0 0 0.517647 0 0 0 0 0.54902 0 0 0 1 0"/>
<feBlend mode="normal" in2="effect1_dropShadow_1843_17" result="effect2_dropShadow_1843_17"/>
<feBlend mode="normal" in="SourceGraphic" in2="effect2_dropShadow_1843_17" result="shape"/>
</filter>
<filter id="filter2_dd_1843_17" x="24.2902" y="680.56" width="31.1695" height="35.2008" filterUnits="userSpaceOnUse" color-interpolation-filters="sRGB">
<feFlood flood-opacity="0" result="BackgroundImageFix"/>
<feColorMatrix in="SourceAlpha" type="matrix" values="0 0 0 0 0 0 0 0 0 0 0 0 0 0 0 0 0 0 127 0" result="hardAlpha"/>
<feOffset/>
<feGaussianBlur stdDeviation="0.985243"/>
<feColorMatrix type="matrix" values="0 0 0 0 0 0 0 0 0 0.517647 0 0 0 0 0.54902 0 0 0 1 0"/>
<feBlend mode="normal" in2="BackgroundImageFix" result="effect1_dropShadow_1843_17"/>
<feColorMatrix in="SourceAlpha" type="matrix" values="0 0 0 0 0 0 0 0 0 0 0 0 0 0 0 0 0 0 127 0" result="hardAlpha"/>
<feOffset/>
<feGaussianBlur stdDeviation="1.97049"/>
<feColorMatrix type="matrix" values="0 0 0 0 0 0 0 0 0 0.517647 0 0 0 0 0.54902 0 0 0 1 0"/>
<feBlend mode="normal" in2="effect1_dropShadow_1843_17" result="effect2_dropShadow_1843_17"/>
<feBlend mode="normal" in="SourceGraphic" in2="effect2_dropShadow_1843_17" result="shape"/>
</filter>
<filter id="filter3_b_1843_17" x="-0.756348" y="2.3833" width="667.763" height="733.297" filterUnits="userSpaceOnUse" color-interpolation-filters="sRGB">
<feFlood flood-opacity="0" result="BackgroundImageFix"/>
<feGaussianBlur in="BackgroundImageFix" stdDeviation="22.5"/>
<feComposite in2="SourceAlpha" operator="in" result="effect1_backgroundBlur_1843_17"/>
<feBlend mode="normal" in="SourceGraphic" in2="effect1_backgroundBlur_1843_17" result="shape"/>
</filter>
<filter id="filter4_d_1843_17" x="507.805" y="603.507" width="144.14" height="116.235" filterUnits="userSpaceOnUse" color-interpolation-filters="sRGB">
<feFlood flood-opacity="0" result="BackgroundImageFix"/>
<feColorMatrix in="SourceAlpha" type="matrix" values="0 0 0 0 0 0 0 0 0 0 0 0 0 0 0 0 0 0 127 0" result="hardAlpha"/>
<feOffset/>
<feGaussianBlur stdDeviation="6.8967"/>
<feColorMatrix type="matrix" values="0 0 0 0 0 0 0 0 0 0.517647 0 0 0 0 0.54902 0 0 0 1 0"/>
<feBlend mode="normal" in2="BackgroundImageFix" result="effect1_dropShadow_1843_17"/>
<feBlend mode="normal" in="SourceGraphic" in2="effect1_dropShadow_1843_17" result="shape"/>
</filter>
<filter id="filter5_d_1843_17" x="22.6033" y="19.2002" width="169.543" height="125.35" filterUnits="userSpaceOnUse" color-interpolation-filters="sRGB">
<feFlood flood-opacity="0" result="BackgroundImageFix"/>
<feColorMatrix in="SourceAlpha" type="matrix" values="0 0 0 0 0 0 0 0 0 0 0 0 0 0 0 0 0 0 127 0" result="hardAlpha"/>
<feOffset/>
<feGaussianBlur stdDeviation="6.8967"/>
<feColorMatrix type="matrix" values="0 0 0 0 0 0 0 0 0 0.517647 0 0 0 0 0.54902 0 0 0 1 0"/>
<feBlend mode="normal" in2="BackgroundImageFix" result="effect1_dropShadow_1843_17"/>
<feBlend mode="normal" in="SourceGraphic" in2="effect1_dropShadow_1843_17" result="shape"/>
</filter>
</defs>
</svg>
