<svg width="281" height="87" viewBox="0 0 281 87" fill="none" xmlns="http://www.w3.org/2000/svg">
<g filter="url(#filter0_b_1025_129)">
<rect x="0.5" y="0.5" width="268" height="86" stroke="#878787"/>
<path fill-rule="evenodd" clip-rule="evenodd" d="M0 21V18H69L90 0H125V8L162 8V0H269V21H0Z" fill="#878787" fill-opacity="0.1"/>
<path d="M127 6L127 1.43051e-06L160 -1.19647e-08L160 6L127 6Z" fill="#00848C"/>
<path d="M89 0H0V18H70.2632L89 0Z" fill="#00848C"/>
<path d="M15 21H0V69H9.90502H12.6323H15V21Z" fill="#878787" fill-opacity="0.1"/>
<rect width="236" height="48" transform="translate(15 21)" fill="#878787" fill-opacity="0.1"/>
<path fill-rule="evenodd" clip-rule="evenodd" d="M251 21H269V69H251V21Z" fill="#878787" fill-opacity="0.1"/>
<path fill-rule="evenodd" clip-rule="evenodd" d="M0 69H212L193.5 87H168.538H110.351H0V69.3353V69Z" fill="#878787" fill-opacity="0.1"/>
<path d="M210.394 69H269V87H196L210.394 69Z" fill="#00848C"/>
</g>
<defs>
<filter id="filter0_b_1025_129" x="-60" y="-60" width="401" height="207" filterUnits="userSpaceOnUse" color-interpolation-filters="sRGB">
<feFlood flood-opacity="0" result="BackgroundImageFix"/>
<feGaussianBlur in="BackgroundImageFix" stdDeviation="30"/>
<feComposite in2="SourceAlpha" operator="in" result="effect1_backgroundBlur_1025_129"/>
<feBlend mode="normal" in="SourceGraphic" in2="effect1_backgroundBlur_1025_129" result="shape"/>
</filter>
</defs>
</svg>
