<svg width="168" height="59" viewBox="0 0 168 59" fill="none" xmlns="http://www.w3.org/2000/svg">
<rect x="0.5" y="0.5" width="167" height="58" fill="#090809"/>
<rect x="0.5" y="0.5" width="167" height="58" stroke="#878787"/>
<g clip-path="url(#clip0_1102_249)">
<path fill-rule="evenodd" clip-rule="evenodd" d="M168 0H160.5L158.5 4L153.5 4L151.5 0H89V5H86V0H84V2H83V0H81V5H78V0H13L0 11V21H168V0Z" fill="#090708" fill-opacity="0.05"/>
<path d="M0.5 7.94488V0.5H9.5993L0.5 7.94488Z" stroke="#B2085A"/>
</g>
<path fill-rule="evenodd" clip-rule="evenodd" d="M9 42H10.905H13.6323H16V21H9V42Z" fill="#090708" fill-opacity="0.05"/>
<path fill-rule="evenodd" clip-rule="evenodd" d="M154 23H151V44H154V23Z" fill="#090708" fill-opacity="0.05"/>
<path fill-rule="evenodd" clip-rule="evenodd" d="M31.8333 59H51.5L53.5 55L58.5 55L60.5 59L168 59V56.5L148 56.5V55.5L168 55.5V42H0V59H25.1667L26.5 57L30.5 57L31.8333 59ZM152 55H163V46L152 55ZM146 56.5H144V55.5H146V56.5ZM140 56.5H142V55.5H140V56.5Z" fill="#090708" fill-opacity="0.05"/>
<path d="M167.5 51.0551V58.5H158.401L167.5 51.0551Z" stroke="#B2085A"/>
<defs>
<clipPath id="clip0_1102_249">
<rect width="168" height="21" fill="white"/>
</clipPath>
</defs>
</svg>
