<svg width="42" height="41" viewBox="0 0 42 41" fill="none" xmlns="http://www.w3.org/2000/svg">
<path d="M20.0729 28.7922C20.4634 29.1827 21.0966 29.1827 21.4871 28.7922L27.8511 22.4282C28.2416 22.0377 28.2416 21.4046 27.8511 21.014C27.4606 20.6235 26.8274 20.6235 26.4369 21.014L20.78 26.6709L15.1232 21.014C14.7327 20.6235 14.0995 20.6235 13.709 21.014C13.3184 21.4046 13.3184 22.0377 13.709 22.4282L20.0729 28.7922ZM19.78 6.5117e-08L19.78 28.0851L21.78 28.0851L21.78 -6.5117e-08L19.78 6.5117e-08Z" fill="white"/>
<path d="M1 40.0001H0V41.0001H1V40.0001ZM41 40.0001V41.0001H42V40.0001H41ZM42 28.0852C42 27.5329 41.5523 27.0852 41 27.0852C40.4477 27.0852 40 27.5329 40 28.0852H42ZM0 28.0852V40.0001H2V28.0852H0ZM1 41.0001H41V39.0001H1V41.0001ZM42 40.0001V28.0852H40V40.0001H42Z" fill="white"/>
</svg>
