<svg width="733" height="762" viewBox="0 0 733 762" fill="none" xmlns="http://www.w3.org/2000/svg">
<path d="M1 221.827V73.8027L217.55 73.8027V111.837M1 221.827H25.634M1 221.827L1 651.51H217.55M217.55 111.837H270.828M217.55 111.837V166.832M270.828 111.837V145.759M270.828 111.837V1L505.138 1V55.8136M25.634 221.827V403.774M25.634 221.827H74.9021M270.828 145.759L404.883 145.759V171.458M270.828 145.759L270.828 383.729M270.828 383.729V421.763H217.55M270.828 383.729H404.883L404.883 199.726M522.897 761.5L217.55 761.5V651.51M522.897 761.5H732L732 55.8136L618.569 55.8136M522.897 761.5V745.567M217.55 421.763H172.865L25.634 421.763V403.774M217.55 421.763L522.897 421.763L522.897 615.531M217.55 421.763L217.55 615.531M217.55 651.51V615.531M522.897 651.51H605.393L605.393 171.458H505.138M522.897 651.51V615.531M522.897 651.51V745.567M404.883 171.458H505.138M404.883 171.458V199.726M505.138 171.458V145.759M505.138 55.8136L618.569 55.8136M505.138 55.8136V73.8027M618.569 55.8136V73.8027M505.138 145.759L618.569 145.759V73.8027M505.138 145.759V129.826M505.138 73.8027L593.935 73.8027V129.826H505.138M505.138 73.8027V129.826M217.55 615.531H25.634L25.634 403.774M404.883 199.726H567.582L567.582 615.531H522.897M618.569 73.8027L710.23 73.8027L710.23 745.567H522.897M74.9021 221.827L217.55 221.827V166.832M74.9021 221.827V383.729H217.55V166.832M493.68 449.518L493.68 735.287L250.777 735.287L250.777 449.518H493.68ZM25.634 87.68L195.208 87.68V199.726L25.634 199.726V87.68Z" stroke="#878787" stroke-opacity="0.6" style="mix-blend-mode:exclusion"/>
</svg>
