<svg width="39" height="36" viewBox="0 0 39 36" fill="none" xmlns="http://www.w3.org/2000/svg">
<g clip-path="url(#clip0_832_771)">
<path d="M16.6251 6.36004C17.715 6.11836 18.8308 5.99755 19.9501 6.00004C31.0335 6.00004 37.3668 18 37.3668 18C36.4057 19.7034 35.2595 21.3071 33.9468 22.785M23.3068 21.18C22.8719 21.6222 22.3475 21.9768 21.7649 22.2227C21.1822 22.4687 20.5532 22.6009 19.9154 22.6116C19.2776 22.6222 18.6441 22.5111 18.0527 22.2848C17.4612 22.0584 16.9239 21.7216 16.4729 21.2943C16.0218 20.867 15.6662 20.358 15.4273 19.7976C15.1884 19.2373 15.0711 18.6371 15.0824 18.0329C15.0936 17.4287 15.2332 16.8328 15.4928 16.2808C15.7525 15.7288 16.1268 15.232 16.5934 14.82M29.3551 26.91C26.6486 28.8645 23.3529 29.9473 19.9501 30C8.86678 30 2.53345 18 2.53345 18C4.50294 14.5229 7.23458 11.4849 10.5451 9.09004L29.3551 26.91Z" stroke="white" stroke-opacity="0.5" stroke-width="4" stroke-linecap="round" stroke-linejoin="round"/>
<path d="M2.53345 1.5L37.3668 34.5" stroke="white" stroke-opacity="0.5" stroke-width="4" stroke-linecap="round" stroke-linejoin="round"/>
</g>
<defs>
<clipPath id="clip0_832_771">
<rect width="38" height="36" fill="white" transform="translate(0.949951)"/>
</clipPath>
</defs>
</svg>
